<svg width="267" height="307" viewBox="0 0 267 307" fill="none" xmlns="http://www.w3.org/2000/svg">
<path d="M162.686 194.775L171.642 143.079L177.311 142.794L165.535 194.775C165.512 194.881 165.467 194.981 165.402 195.069C165.337 195.156 165.254 195.229 165.159 195.282C164.854 195.456 164.512 195.557 164.161 195.574C163.81 195.591 163.459 195.525 163.139 195.381C163.014 195.336 162.905 195.256 162.826 195.149C162.747 195.042 162.7 194.915 162.693 194.782L162.686 194.775Z" fill="#263238"/>
<path d="M246.982 134.621H252.659L266.002 188.314C266 188.447 265.96 188.576 265.887 188.687C265.813 188.797 265.709 188.884 265.587 188.936C265.274 189.095 264.928 189.178 264.577 189.178C264.226 189.178 263.88 189.095 263.567 188.936C263.468 188.889 263.381 188.821 263.311 188.738C263.241 188.654 263.189 188.557 263.159 188.452L246.982 134.621Z" fill="#263238"/>
<path d="M207.723 219.431L207.968 161.544L213.637 161.26L210.565 219.424C210.543 219.531 210.497 219.633 210.433 219.722C210.368 219.811 210.284 219.884 210.188 219.938C209.883 220.111 209.541 220.21 209.19 220.227C208.839 220.244 208.489 220.18 208.168 220.038C208.044 219.99 207.937 219.908 207.859 219.8C207.781 219.692 207.736 219.564 207.73 219.431H207.723Z" fill="#263238"/>
<path d="M216.002 116.608H221.679L230.766 173.658C230.764 173.791 230.725 173.921 230.651 174.031C230.577 174.142 230.473 174.228 230.351 174.281C230.038 174.44 229.692 174.523 229.341 174.523C228.99 174.523 228.644 174.44 228.331 174.281C228.231 174.233 228.144 174.164 228.074 174.079C228.003 173.994 227.952 173.895 227.924 173.789L216.002 116.608Z" fill="#263238"/>
<path d="M263.32 71.9243C264.606 75.1099 265.371 78.4816 265.586 81.9102C266.239 89.5455 263.65 114.287 262.098 125.349C259.848 143.838 257.098 143.869 253.088 146.964C246.175 152.287 226.387 162.719 219.843 165.292C207.983 169.962 198.289 162.765 191.061 159.193C184.437 155.839 178.043 152.052 171.919 147.855C170.113 146.534 169.176 145.205 169.192 143.807C169.192 143.254 169.192 140.988 169.192 140.397C169.192 138.614 170.766 136.702 174.085 134.551C180.23 130.58 202.352 117.652 210.955 112.912C210.96 112.894 210.97 112.878 210.983 112.866C210.997 112.854 211.014 112.846 211.032 112.843C217.631 108.841 221.602 81.6029 226.172 67.108C226.272 66.8008 226.364 66.5012 226.464 66.2093C226.564 65.9174 226.626 65.7561 226.702 65.541C226.994 64.7729 227.286 64.0047 227.601 63.3672" fill="#B1B1B1"/>
<path d="M169.191 140.367C169.191 138.585 170.766 136.672 174.084 134.521C180.23 130.55 202.352 117.622 210.955 112.883C210.96 112.865 210.969 112.849 210.983 112.836C210.997 112.824 211.014 112.816 211.032 112.814C217.63 108.811 221.602 81.5731 226.172 67.0783C226.447 66.1741 226.767 65.2845 227.132 64.4128C227.132 64.3514 227.186 64.2899 227.209 64.2208L227.47 63.6293C227.516 63.5372 227.563 63.4296 227.601 63.3375C228.329 61.6844 229.373 60.1893 230.674 58.936C231.12 58.5158 231.625 58.1615 232.171 57.8836L234.86 56.3474C239.346 53.6589 245.222 56.8851 252.527 60.8948C257.082 63.3912 260.977 66.3639 263.335 71.9022C264.621 75.0878 265.386 78.4595 265.601 81.8881C266.254 89.5234 263.665 114.265 262.114 125.327C259.863 143.816 257.113 143.846 253.103 146.942C246.19 152.265 226.403 162.697 219.858 165.27C207.998 169.94 198.304 162.743 191.076 159.171C184.452 155.817 178.058 152.03 171.934 147.833C170.129 146.512 169.191 145.183 169.207 143.785C169.207 143.224 169.191 140.958 169.191 140.367Z" fill="#B1B1B1"/>
<path opacity="0.25" d="M169.191 140.367C169.191 138.585 170.766 136.672 174.084 134.521C180.23 130.55 202.352 117.622 210.955 112.883C210.96 112.865 210.969 112.849 210.983 112.836C210.997 112.824 211.014 112.816 211.032 112.814C217.63 108.811 221.602 81.5731 226.172 67.0783C226.447 66.1741 226.767 65.2845 227.132 64.4128C227.132 64.3514 227.186 64.2899 227.209 64.2208L227.47 63.6293C227.516 63.5372 227.563 63.4296 227.601 63.3375C228.329 61.6844 229.373 60.1893 230.674 58.936C231.12 58.5158 231.625 58.1615 232.171 57.8836L234.86 56.3474C239.346 53.6589 245.222 56.8851 252.527 60.8948C257.082 63.3912 260.977 66.3639 263.335 71.9022C264.621 75.0878 265.386 78.4595 265.601 81.8881C266.254 89.5234 263.665 114.265 262.114 125.327C259.863 143.816 257.113 143.846 253.103 146.942C246.19 152.265 226.403 162.697 219.858 165.27C207.998 169.94 198.304 162.743 191.076 159.171C184.452 155.817 178.058 152.03 171.934 147.833C170.129 146.512 169.191 145.183 169.207 143.785C169.207 143.224 169.191 140.958 169.191 140.367Z" fill="white"/>
<path d="M191.069 155.73C184.447 152.372 178.052 148.582 171.927 144.385C167.817 141.397 168.194 138.347 174.086 134.522C182.274 129.214 215.634 110.279 215.634 110.279C215.634 110.279 257.813 135.175 256 139.768C254.187 144.362 228.078 158.588 219.851 161.822C207.991 166.492 198.29 159.294 191.069 155.73Z" fill="#B1B1B1"/>
<path opacity="0.6" d="M191.069 155.73C184.447 152.372 178.052 148.582 171.927 144.385C167.817 141.397 168.194 138.347 174.086 134.522C182.274 129.214 215.634 110.279 215.634 110.279C215.634 110.279 257.813 135.175 256 139.768C254.187 144.362 228.078 158.588 219.851 161.822C207.991 166.492 198.29 159.294 191.069 155.73Z" fill="white"/>
<path d="M232.125 57.884C236.565 55.5796 242.334 58.7213 249.47 62.6311C254.079 65.1353 257.919 68.108 260.308 73.6617L263.319 71.9257C260.953 66.3874 257.067 63.4147 252.512 60.9182C245.176 56.9085 239.299 53.6823 234.844 56.3708L232.125 57.884Z" fill="#B1B1B1"/>
<path opacity="0.5" d="M232.125 57.884C236.565 55.5796 242.334 58.7213 249.47 62.6311C254.079 65.1353 257.919 68.108 260.308 73.6617L263.319 71.9257C260.953 66.3874 257.067 63.4147 252.512 60.9182C245.176 56.9085 239.299 53.6823 234.844 56.3708L232.125 57.884Z" fill="white"/>
<path d="M211.002 112.814C211.002 112.814 215.304 114.227 230.643 121.762C236.942 124.835 241.082 127.969 246.982 131.687C255.662 137.148 255.001 141.204 255.001 141.204C259.318 137.632 263.62 96.1526 262.56 83.5935C262.338 79.9956 261.501 76.4623 260.086 73.1467C259.971 72.9009 259.856 72.6628 259.733 72.417L259.479 71.9177C259.441 71.8409 259.395 71.7641 259.349 71.6873C259.016 71.0874 258.652 70.5054 258.258 69.9436C258.158 69.8053 258.066 69.6671 257.966 69.5365L257.667 69.137L257.359 68.753L257.09 68.4457C256.612 67.8772 256.099 67.3385 255.554 66.8326C255.424 66.6943 255.285 66.5714 255.147 66.4485C254.279 65.6924 253.36 64.9968 252.397 64.3669C252.251 64.2593 252.105 64.1672 251.952 64.075C251.798 63.9828 251.56 63.8215 251.352 63.6986L250.846 63.3913C250.4 63.1302 249.954 62.8767 249.494 62.6232C244.04 59.6351 239.385 57.0772 235.506 57.0772C233.714 57.0705 231.984 57.7303 230.651 58.9284C227.786 61.4479 226.265 66.7635 226.165 67.0707C221.572 81.5733 217.6 108.812 211.002 112.814Z" fill="#B1B1B1"/>
<path opacity="0.4" d="M211.002 112.814C211.002 112.814 215.304 114.227 230.643 121.762C236.942 124.835 241.082 127.969 246.982 131.687C255.662 137.148 255.001 141.204 255.001 141.204C259.318 137.632 263.62 96.1526 262.56 83.5935C262.338 79.9956 261.501 76.4623 260.086 73.1467C259.971 72.9009 259.856 72.6628 259.733 72.417L259.479 71.9177C259.441 71.8409 259.395 71.7641 259.349 71.6873C259.016 71.0874 258.652 70.5054 258.258 69.9436C258.158 69.8053 258.066 69.6671 257.966 69.5365L257.667 69.137L257.359 68.753L257.09 68.4457C256.612 67.8772 256.099 67.3385 255.554 66.8326C255.424 66.6943 255.285 66.5714 255.147 66.4485C254.279 65.6924 253.36 64.9968 252.397 64.3669C252.251 64.2593 252.105 64.1672 251.952 64.075C251.798 63.9828 251.56 63.8215 251.352 63.6986L250.846 63.3913C250.4 63.1302 249.954 62.8767 249.494 62.6232C244.04 59.6351 239.385 57.0772 235.506 57.0772C233.714 57.0705 231.984 57.7303 230.651 58.9284C227.786 61.4479 226.265 66.7635 226.165 67.0707C221.572 81.5733 217.6 108.812 211.002 112.814Z" fill="white"/>
<path d="M180.299 177.505C180.299 177.505 186.943 189.342 187.98 194.205C189.094 199.275 190.63 200.772 190.661 206.495C190.661 207.739 190.415 210.267 190.408 211.273C190.389 211.492 190.42 211.712 190.496 211.917C190.573 212.123 190.694 212.309 190.851 212.463C191.009 212.616 191.198 212.733 191.405 212.805C191.612 212.877 191.833 212.902 192.051 212.878C194.356 212.994 197.428 208.269 198.519 203.438C199.492 197.926 200.115 192.359 200.386 186.769C200.274 185.516 199.825 184.316 199.088 183.297C198.693 182.693 198.243 182.128 197.743 181.607C196.63 179.503 195.577 175.324 194.463 172.497L180.299 177.505Z" fill="#C8856A"/>
<path d="M205.601 190.711C205.984 191.184 206.283 191.719 206.484 192.293C206.707 193.307 204.902 197.025 204.18 198.392C203.141 200.237 202.865 202.415 203.412 204.461C204.08 207.702 203.12 211.074 201.407 214.093C199.007 218.075 195.451 221.231 191.213 223.142C185.99 225.646 183.609 223.242 183.609 223.242C183.609 223.242 181.473 220.937 182.326 219.685C183.179 218.433 205.601 190.711 205.601 190.711Z" fill="#455A64"/>
<path d="M197.765 181.576C197.934 181.576 198.219 181.453 198.733 181.899C198.925 182.06 200.323 184.326 201.368 185.471C202.413 186.615 204.986 188.689 205.6 190.709C204.986 194.896 201.614 198.268 201.652 202.124C201.691 205.98 202.351 210.358 197.189 215.881C192.027 221.404 186.02 222.795 183.639 221.927C181.258 221.059 181.074 218.723 183.409 213.884C185.882 208.753 186.42 198.375 186.42 198.375C186.475 196.922 186.434 195.467 186.297 194.02C186.182 192.622 185.529 191.216 185.191 189.857C184.98 189.221 184.98 188.534 185.191 187.898C185.522 187.31 186.026 186.838 186.635 186.546C187.536 185.95 188.499 185.456 189.508 185.071C190.533 184.688 191.654 184.648 192.703 184.956C193.403 185.303 194.121 185.611 194.854 185.878C195.367 185.994 195.903 185.966 196.401 185.798C196.9 185.63 197.343 185.328 197.681 184.925C198.021 184.565 198.239 184.107 198.302 183.615C198.366 183.124 198.272 182.625 198.034 182.191C197.955 181.981 197.866 181.776 197.765 181.576Z" fill="#455A64"/>
<path d="M200.04 211.673C200.04 211.673 197.006 207.464 190.723 208.455C184.439 209.446 182.788 212.91 182.135 214.899C181.367 217.265 180.821 221.413 183.594 222.158C186.598 222.927 189.778 222.074 194.471 218.786C199.165 215.499 200.04 211.673 200.04 211.673Z" fill="#FAFAFA"/>
<path d="M195.869 193.307C195.786 193.365 195.691 193.403 195.591 193.419C195.491 193.435 195.389 193.428 195.293 193.399C194.24 193.061 188.94 192.8 186.39 195.972C185.96 195.726 185.944 195.166 186.313 194.305C189.455 191.586 194.471 191.817 195.738 192.216C195.814 192.241 195.883 192.281 195.943 192.333C196.003 192.386 196.052 192.45 196.087 192.521C196.123 192.593 196.143 192.67 196.148 192.75C196.152 192.829 196.141 192.909 196.114 192.984C196.071 193.116 195.985 193.23 195.869 193.307Z" fill="#FAFAFA"/>
<path d="M186.337 199.659C186.207 199.383 186.148 199.079 186.162 198.773C186.177 198.468 186.266 198.171 186.421 197.908C189.57 195.55 194.233 195.773 195.447 196.157C195.524 196.18 195.595 196.219 195.656 196.271C195.718 196.323 195.768 196.386 195.804 196.458C195.84 196.53 195.861 196.609 195.865 196.689C195.87 196.769 195.858 196.849 195.831 196.925C195.779 197.051 195.691 197.158 195.577 197.232C195.495 197.291 195.4 197.329 195.299 197.344C195.199 197.359 195.097 197.349 195.001 197.317C193.987 197.009 188.956 196.764 186.337 199.659Z" fill="#FAFAFA"/>
<path d="M185.13 208.355C184.994 207.547 185.149 206.716 185.568 206.012C188.717 203.416 193.618 203.638 194.87 204.038C194.947 204.061 195.018 204.1 195.079 204.152C195.14 204.204 195.19 204.268 195.226 204.34C195.261 204.412 195.281 204.49 195.285 204.571C195.288 204.651 195.275 204.731 195.246 204.806C195.198 204.933 195.113 205.043 195.001 205.121C194.916 205.176 194.821 205.212 194.722 205.227C194.622 205.241 194.521 205.234 194.424 205.205C193.318 204.86 187.473 204.591 185.13 208.355Z" fill="#FAFAFA"/>
<path d="M195.284 201.187C195.202 201.242 195.108 201.278 195.01 201.293C194.911 201.308 194.811 201.3 194.716 201.272C193.679 200.941 188.479 200.688 185.905 203.753C185.792 203.44 185.753 203.105 185.792 202.774C185.831 202.443 185.946 202.126 186.128 201.848C189.285 199.482 193.948 199.705 195.162 200.096C195.238 200.121 195.308 200.16 195.369 200.212C195.429 200.264 195.479 200.328 195.514 200.4C195.549 200.472 195.569 200.55 195.574 200.63C195.578 200.71 195.566 200.79 195.538 200.865C195.491 200.997 195.402 201.11 195.284 201.187Z" fill="#FAFAFA"/>
<path d="M176.288 195.588C176.288 195.588 175.697 207.325 175.175 216.397C174.791 222.988 169.798 225.96 165.688 230.3C164.797 231.253 162.761 232.989 162.032 233.757C161.861 233.907 161.726 234.093 161.637 234.302C161.547 234.511 161.505 234.737 161.513 234.964C161.521 235.191 161.579 235.413 161.683 235.615C161.788 235.817 161.936 235.993 162.116 236.13C163.837 237.859 171.334 238.565 175.62 235.647C179.906 232.728 183.962 226.306 186.543 223.925C187.519 223.026 188.433 222.104 189.308 221.129C190.184 220.153 189.961 219.247 190.077 218.156C190.123 217.626 190.077 216.182 190.077 216.182C190.737 213.616 192.696 205.773 193.602 203.292L176.288 195.588Z" fill="#C8856A"/>
<path d="M191.198 227.842C191.223 228.474 191.137 229.106 190.945 229.708C190.499 230.692 186.628 232.712 185.161 233.419C183.135 234.323 181.537 235.974 180.698 238.027C179.223 241.154 176.289 243.404 172.939 244.887C168.407 246.758 163.419 247.234 158.614 246.254C152.614 245.156 152.115 241.691 152.115 241.691C152.115 241.691 151.785 238.427 153.275 237.92C154.765 237.413 191.198 227.842 191.198 227.842Z" fill="#263238"/>
<path d="M190.33 215.383C190.484 215.46 190.791 215.56 190.945 216.243C191.006 216.504 190.76 219.262 190.945 220.852C191.129 222.442 191.974 225.761 191.221 227.835C188.057 230.969 183.087 231.737 180.698 235.001C178.309 238.266 176.089 242.337 168.246 243.82C160.404 245.302 154.42 242.813 152.976 240.616C151.531 238.42 152.83 236.353 157.846 233.703C163.177 230.907 170.136 222.527 170.174 222.519C171.133 221.333 172.013 220.086 172.809 218.786C173.577 217.549 173.93 215.967 174.507 214.622C174.715 213.952 175.135 213.367 175.705 212.956C176.356 212.666 177.078 212.578 177.779 212.702C178.916 212.752 180.044 212.927 181.143 213.224C182.244 213.519 183.217 214.17 183.909 215.076C184.377 215.744 184.623 216.551 185.153 217.173C185.523 217.58 185.995 217.88 186.521 218.042C187.047 218.204 187.606 218.222 188.141 218.094C188.655 218.004 189.127 217.754 189.49 217.38C189.854 217.007 190.092 216.529 190.169 216.013L190.33 215.383Z" fill="#455A64"/>
<path d="M173.3 242.022C173.3 242.022 173.376 236.645 167.446 233.626C161.516 230.607 157.929 232.512 156.124 233.78C153.973 235.316 150.901 238.45 152.783 240.77C154.818 243.274 158.06 244.48 164.105 244.611C170.15 244.741 173.3 242.022 173.3 242.022Z" fill="#FAFAFA"/>
<path d="M181.328 224.071C181.223 224.069 181.12 224.043 181.027 223.995C180.933 223.948 180.852 223.879 180.79 223.795C180.114 222.873 175.789 219.408 171.634 220.522C171.419 220.046 171.772 219.562 172.625 219.063C176.988 218.709 181.074 221.966 181.912 223.08C181.961 223.149 181.996 223.227 182.014 223.309C182.032 223.392 182.032 223.477 182.016 223.56C181.999 223.643 181.966 223.722 181.917 223.791C181.869 223.861 181.807 223.919 181.735 223.964C181.613 224.04 181.471 224.077 181.328 224.071Z" fill="#FAFAFA"/>
<path d="M169.268 223.571C169.335 223.26 169.476 222.969 169.68 222.723C169.883 222.477 170.142 222.283 170.435 222.158C174.591 222.104 178.393 225.138 179.177 226.206C179.228 226.274 179.264 226.351 179.283 226.434C179.302 226.516 179.304 226.602 179.288 226.685C179.272 226.768 179.239 226.847 179.191 226.917C179.142 226.987 179.08 227.045 179.008 227.089C178.887 227.168 178.745 227.208 178.601 227.205C178.495 227.201 178.392 227.174 178.299 227.125C178.206 227.076 178.125 227.006 178.063 226.92C177.402 226.029 173.3 222.749 169.268 223.571Z" fill="#FAFAFA"/>
<path d="M162.762 230.108C163.164 229.346 163.818 228.746 164.613 228.411C168.915 228.157 172.924 231.337 173.723 232.436C173.774 232.504 173.81 232.581 173.83 232.664C173.849 232.746 173.85 232.832 173.834 232.915C173.819 232.998 173.785 233.077 173.737 233.147C173.689 233.216 173.626 233.275 173.554 233.319C173.434 233.399 173.291 233.437 173.147 233.427C173.042 233.425 172.939 233.399 172.846 233.351C172.753 233.303 172.672 233.234 172.609 233.15C171.895 232.205 167.117 228.411 162.762 230.108Z" fill="#FAFAFA"/>
<path d="M175.874 230.331C175.77 230.327 175.667 230.301 175.574 230.253C175.481 230.205 175.4 230.137 175.336 230.054C174.668 229.14 170.428 225.753 166.318 226.751C166.424 226.419 166.605 226.114 166.845 225.862C167.086 225.609 167.382 225.414 167.709 225.292C171.864 225.23 175.674 228.272 176.45 229.34C176.501 229.408 176.537 229.485 176.557 229.568C176.576 229.65 176.577 229.736 176.561 229.819C176.546 229.902 176.512 229.981 176.464 230.051C176.416 230.121 176.354 230.179 176.281 230.223C176.16 230.3 176.018 230.337 175.874 230.331Z" fill="#FAFAFA"/>
<path d="M203.834 106.714C203.834 106.714 179.768 119.496 168.331 131.317C164.236 135.55 161.686 139.252 165.949 150.221C169.237 158.671 174.921 167.989 180.168 178.919L230.719 119.496L203.834 106.714Z" fill="#263238"/>
<path d="M179.454 177.452C187.305 170.355 212.046 129.697 212.046 129.697L210.925 129.52C204.834 126.847 202.353 118.582 202.353 118.582C201.584 121.877 202.952 126.578 204.987 129.106C201.546 131.617 193.765 137.325 181.812 146.258C179.731 147.794 175.529 150.752 175.782 156.559C176.113 164.148 176.351 171.599 176.351 171.599L179.454 177.452Z" fill="#37474F"/>
<path d="M203.973 106.83L252.942 112.498C252.942 118.475 252.028 130.266 247.512 136.995C244.232 141.88 240.598 144.845 227.886 151.512C216.025 157.727 205.417 162.904 202.706 164.363C200.663 165.462 201.039 170.04 200.401 175.425C199.748 181.078 199.149 184.228 196.031 196.303C194.494 202.164 192.958 207.226 192.958 207.226C192.958 207.226 183.08 208.309 175.736 204.368C175.736 204.368 176.958 174.672 177.349 167.39C177.687 161.16 177.28 155.369 182.043 150.737C186.129 146.758 211.102 129.628 211.102 129.628C211.102 129.628 199.702 117.96 203.973 106.83Z" fill="#263238"/>
<path d="M247.725 113.351L247.034 113.251C246.75 121.447 245.62 127.661 239.706 133.684C235.95 131.149 236.725 128.79 238.131 124.589C238.561 123.321 239.037 121.885 239.445 120.256C240.129 117.651 240.567 114.986 240.75 112.298L240.051 112.191C239.882 114.861 239.455 117.508 238.776 120.095C238.377 121.685 237.901 123.114 237.478 124.366C236.072 128.56 235.174 131.371 239.206 134.183C237.713 135.621 236.111 136.941 234.413 138.131C225.603 144.391 213.159 151.743 205.723 156.136C203.127 157.673 201.076 158.886 200.016 159.555C195.707 162.289 195.584 163.91 195.73 171.138C195.853 177.468 191.497 198.592 189.27 207.241H189.976C192.235 198.423 196.544 177.46 196.421 171.138C196.275 163.825 196.513 162.612 200.385 160.154C201.437 159.485 203.457 158.279 206.076 156.743C213.52 152.349 225.979 144.991 234.82 138.707C245.643 131.018 247.364 123.751 247.725 113.351Z" fill="#37474F"/>
<path d="M204.118 86.5033L188.556 95.0527C187.446 92.4978 187.251 89.6385 188.003 86.9565C189.892 79.8895 197.735 61.1853 200.923 55.4089C204.11 49.6324 210.463 44.1632 220.126 45.5613L216.032 60.7167L204.118 86.5033Z" fill="#263238"/>
<path d="M204.909 65.9101C206.391 51.4921 212.767 45.9845 220.133 45.562C220.133 45.562 230.603 46.2687 236.387 47.444C243.431 48.865 246.949 50.1248 252.595 51.9069C255.36 53.3894 255.806 62.8068 255.744 73.0231C255.698 80.2897 255.045 93.1792 254.561 102.343C254.077 111.507 253.394 118.036 252.088 127.507C241.879 130.772 209.156 124.765 201.613 107.497C202.673 105.016 203.457 96.4591 203.649 91.5968C203.841 86.7344 204.432 70.4345 204.909 65.9101Z" fill="#3252BB"/>
<path d="M238.355 42.2207C239.054 38.1803 243.079 33.9785 244.899 30.4604C246.651 27.0652 247.695 24.4305 247.503 21.2427C247.396 19.3454 246.205 16.7798 244.807 16.2421C246.443 9.22129 241.174 5.94132 238.378 5.27304C237.075 4.99385 235.792 4.62947 234.537 4.18227C233.001 3.54472 232.671 2.31569 231.465 1.27101C229.352 -0.526439 225.796 -0.572524 224.428 2.13902C223.03 0.318521 221.118 0.356929 218.913 0.909992C217.971 1.10719 217.141 1.65688 216.591 2.44655C216.041 3.23621 215.814 4.20615 215.956 5.15782C213.014 3.50631 210.31 5.5803 210.033 7.3163C209.834 8.59141 210.102 9.66681 209.265 10.8113C208.32 12.1018 206.538 12.0788 206.001 11.0341C205.693 12.8469 206.4 14.2373 208.374 14.1067C208.036 14.6095 207.814 15.1811 207.724 15.7801C207.633 16.3792 207.677 16.9909 207.852 17.571C208.085 18.299 208.536 18.9384 209.142 19.4037C209.749 19.869 210.483 20.1381 211.247 20.175C211.324 21.1528 211.621 22.1007 212.115 22.948C212.705 23.8207 213.495 24.5398 214.419 25.045C217.392 26.4661 220.695 26.9423 223.906 27.6106L227.747 28.3788C227.962 28.4248 229.114 28.494 229.283 28.6937L238.355 42.2207Z" fill="#263238"/>
<path d="M243.263 37.0052C240.421 38.6951 238.501 36.8515 238.501 36.8515L238.678 50.1788C236.45 55.8707 226.702 56.8079 223.169 55.1948C219.635 53.5817 220.096 51.4693 222.401 48.2815L222.163 46.1C220.557 46.1248 218.951 46.0504 217.354 45.8772C214.189 45.4394 211.524 42.3668 210.625 38.9639C209.649 34.6554 209.625 30.1857 210.556 25.8671C210.807 24.777 210.867 23.6516 210.733 22.541C210.433 19.599 210.971 17.8861 211.739 15.4127C215.226 12.6089 223.261 11.6718 230.796 16.2576C229.921 20.7282 231.649 24.277 234.898 25.99C234.745 27.196 234.591 30.2455 236.573 30.1917C238.002 30.1917 238.109 28.3635 239.576 26.7889C241.044 25.2142 244.469 24.7917 245.791 27.1268C247.626 30.3914 246.374 35.1539 243.263 37.0052Z" fill="#C8856A"/>
<path d="M230.665 23.6006L240.175 26.2276C239.582 26.6038 239.104 27.1351 238.792 27.7639L230.496 25.8205L230.665 23.6006Z" fill="#263238"/>
<path d="M207.729 21.9961C207.718 22.4955 207.854 22.9871 208.121 23.4095C208.214 23.5632 208.27 23.7371 208.282 23.9165C208.281 25.1867 208.376 26.4552 208.566 27.7111C208.735 28.5448 209.176 29.2988 209.82 29.8549C210.463 30.411 211.274 30.7377 212.123 30.7837C212.577 30.8409 213.036 30.8409 213.49 30.7837H213.59C213.992 30.7312 214.383 30.6172 214.75 30.4457H214.819L214.919 30.3919L215.05 30.3228L215.172 30.246L215.303 30.1615L215.426 30.0693L215.672 29.8696C216.091 29.4777 216.448 29.0244 216.732 28.5253C217.5 27.2733 217.554 25.4528 218.506 25.3299H218.737C219.996 25.4758 219.612 27.4346 220.15 28.9325C220.43 29.8756 220.999 30.7072 221.776 31.3107C222.553 31.9141 223.499 32.259 224.482 32.2969H224.843H225.135C225.36 32.3091 225.586 32.3091 225.811 32.2969H226.026H226.234H226.364C226.63 32.2274 226.888 32.1295 227.132 32.005L227.401 31.8591C227.567 31.7544 227.724 31.6362 227.87 31.5057C228.264 31.149 228.592 30.7251 228.838 30.2537C229.368 29.3012 229.644 27.5191 229.944 26.6203C229.998 26.4338 230.086 26.2592 230.205 26.1057C230.581 25.7748 230.848 25.3386 230.973 24.8536C231.012 24.6057 230.969 24.3519 230.851 24.1303C230.734 23.9087 230.547 23.7313 230.32 23.6246L229.667 23.471C227.555 22.9947 224.782 22.5953 223.061 22.8872C220.903 23.2559 220.089 23.8627 218.921 23.7245C217.753 23.5862 217.216 22.818 215.318 21.9577C213.782 21.2818 211.217 21.036 209.173 21.0206H208.551C208.221 20.9284 207.783 21.4123 207.729 21.9961ZM221.333 24.7154C221.52 24.5262 221.745 24.3795 221.994 24.2852L222.101 24.2468H222.17L222.477 24.1316L222.769 24.0471C223.072 23.9645 223.38 23.9004 223.691 23.855L224.06 23.8013C224.367 23.8013 224.682 23.7475 224.997 23.7475H225.212C227.248 23.7475 228.461 24.3927 228.876 24.8613C229.291 25.3299 228.876 27.2349 228.623 28.195V28.2642V28.341C228.623 28.4562 228.546 28.5868 228.5 28.7327L228.408 28.9709C228.357 29.1075 228.298 29.2409 228.231 29.3703L228.162 29.5086L228.116 29.5854C228.101 29.6177 228.083 29.6486 228.062 29.6776C228.044 29.7175 228.024 29.756 228 29.7928L227.916 29.9157L227.816 30.0463L227.716 30.1769C227.355 30.6103 226.885 30.9408 226.355 31.135C225.825 31.3292 225.253 31.3802 224.697 31.283C224.133 31.2621 223.58 31.1171 223.078 30.8582C222.577 30.5993 222.138 30.2329 221.794 29.7851C221.367 29.1641 221.102 28.4456 221.026 27.6957C220.88 26.5512 220.887 25.2684 221.333 24.7154ZM209.58 22.5185C209.744 22.4 209.925 22.3092 210.118 22.2496H210.164L210.395 22.1882H210.533H210.648H210.725H210.871C211.027 22.1762 211.183 22.1762 211.339 22.1882H211.869H212.192H212.307H212.415C212.707 22.1882 213.006 22.288 213.337 22.3648C214.742 22.7182 216.156 23.5478 216.471 24.1853C216.786 24.8229 216.532 26.0827 216.194 27.1504C216.121 27.3929 216.028 27.6293 215.918 27.8571V27.9185V27.9876V28.0337C215.904 28.0646 215.886 28.0931 215.864 28.1182L215.764 28.2949C215.733 28.3453 215.7 28.394 215.664 28.4408V28.4946L215.587 28.5868L215.518 28.6713C214.912 29.2868 214.116 29.68 213.259 29.7873C212.402 29.8946 211.533 29.7098 210.794 29.2628C209.45 28.3564 209.327 26.6511 209.258 25.8676C209.096 24.8229 209.104 22.8872 209.596 22.5185H209.58Z" fill="#37474F"/>
<path d="M219.842 27.5035L218.305 34.4168L213.543 31.928L214.157 31.0446C214.265 30.891 214.373 30.7374 214.472 30.5761C214.672 30.2919 214.864 30 215.072 29.7081C215.625 28.9399 216.17 28.1718 216.692 27.4881C216.977 27.1271 217.292 26.72 217.576 26.4435C217.796 26.1738 218.032 25.9173 218.282 25.6753C218.431 25.5332 218.587 25.3999 218.751 25.2759C219.611 25.4141 219.696 26.405 219.842 27.5035Z" fill="#FFBDA7"/>
<path d="M222.769 35.5534C222.687 35.5265 222.598 35.5265 222.516 35.5534C222.275 35.6461 222.052 35.7786 221.855 35.9452C221.089 36.4724 220.236 36.8599 219.335 37.0897C219.143 37.1367 218.948 37.1726 218.752 37.1973L218.083 37.2971C218.007 37.2981 217.934 37.3253 217.876 37.3739C217.484 37.7196 218.706 37.7426 218.821 37.735C219.291 37.7353 219.761 37.6812 220.219 37.5737C221.14 37.3651 221.991 36.9234 222.692 36.2908C222.808 36.202 222.896 36.0821 222.946 35.9452C222.972 35.8756 222.975 35.799 222.953 35.7279C222.93 35.6568 222.885 35.5953 222.823 35.5534H222.769Z" fill="#FFBDA7"/>
<path d="M222.146 46.1001C227.17 45.524 230.988 44.9863 233.615 41.3453C234.836 39.4776 235.853 37.4844 236.649 35.3999C236.649 35.3999 236.127 39.8474 234.483 42.8586C233.215 45.163 230.22 47.2216 222.339 47.8899L222.146 46.1001Z" fill="#FFBDA7"/>
<path d="M222.738 26.8273C222.736 27.1044 222.815 27.3763 222.965 27.6089C223.116 27.8416 223.331 28.0249 223.585 28.1359C223.839 28.247 224.12 28.2809 224.393 28.2335C224.667 28.186 224.92 28.0594 225.121 27.8692C225.323 27.6791 225.464 27.4338 225.528 27.164C225.591 26.8941 225.574 26.6116 225.478 26.3516C225.382 26.0915 225.211 25.8655 224.988 25.7015C224.764 25.5375 224.498 25.4428 224.221 25.4292C223.839 25.4189 223.469 25.5602 223.191 25.8222C222.913 26.0842 222.75 26.4456 222.738 26.8273Z" fill="#263238"/>
<path d="M224.744 20.9433L228.001 22.1032C228.146 21.6586 228.114 21.1754 227.913 20.7535C227.711 20.3316 227.355 20.0035 226.918 19.8372C226.703 19.7633 226.475 19.7334 226.248 19.7493C226.021 19.7652 225.8 19.8265 225.597 19.9297C225.394 20.0329 225.214 20.1758 225.068 20.3499C224.921 20.524 224.811 20.7258 224.744 20.9433Z" fill="#263238"/>
<path d="M211.97 20.8202L215.426 20.4362C215.41 20.212 215.349 19.9935 215.246 19.7936C215.143 19.5938 215.001 19.4168 214.828 19.2733C214.655 19.1298 214.455 19.0228 214.24 18.9586C214.025 18.8944 213.799 18.8744 213.575 18.8999C213.114 18.9558 212.691 19.1855 212.392 19.5422C212.094 19.899 211.943 20.356 211.97 20.8202Z" fill="#263238"/>
<path d="M211.968 25.4829C211.993 25.7582 212.097 26.0203 212.269 26.2369C212.44 26.4535 212.672 26.615 212.934 26.7015C213.196 26.788 213.478 26.7957 213.745 26.7236C214.012 26.6515 214.252 26.5028 214.435 26.2959C214.618 26.089 214.736 25.8329 214.776 25.5593C214.815 25.2858 214.773 25.0068 214.655 24.7568C214.537 24.5068 214.349 24.2969 214.113 24.1529C213.877 24.0089 213.604 23.9372 213.328 23.9466C213.137 23.9564 212.95 24.0041 212.778 24.0869C212.606 24.1698 212.452 24.2862 212.326 24.4292C212.199 24.5723 212.102 24.7392 212.041 24.9201C211.98 25.101 211.955 25.2924 211.968 25.4829Z" fill="#263238"/>
<path d="M252.596 51.8994C260.062 54.2038 263.35 62.0466 261.752 69.7587C259.617 80.313 254.378 93.7709 251.098 100.415C248.21 106.261 246.75 107.075 243.77 107.521L239.322 84.0769L245.467 66.6862C245.467 66.6862 249.193 53.4357 252.596 51.8994Z" fill="#263238"/>
<path d="M236.388 63.0054C235.397 57.3903 235.75 54.8093 233.999 52.0517C232.383 49.833 230.604 47.7378 228.676 45.7836C227.624 44.762 225.496 43.3563 223.814 41.9429C222.131 40.5296 221.632 40.1532 219.589 40.1916C216.785 40.1916 214.565 40.1916 213.559 40.7216C212.553 41.2516 212.714 41.9353 213.812 42.7034C214.911 43.4715 216.885 43.3486 217.553 43.4178C218.221 43.4869 219.627 43.8249 219.627 43.8249L222.83 47.0741C222.83 47.0741 218.698 48.6488 217.945 49.2633C217.192 49.8779 216.877 52.1746 217.469 53.3038C217.469 53.3038 216.094 54.6557 216.992 56.0844C216.992 56.0844 216.224 57.5132 217.108 58.3889C218.038 59.2901 219.069 60.0814 220.18 60.7471C220.787 61.1004 222.861 60.8316 222.861 60.8316C223.139 62.144 223.532 63.4292 224.036 64.6723C225.142 67.0305 226.341 67.2072 226.84 69.2811L236.388 63.0054Z" fill="#C8856A"/>
<path d="M236.388 63.006C236.05 61.1548 235.82 59.2805 235.581 57.414C235.45 55.539 234.893 53.7185 233.953 52.0907C232.86 50.5635 231.672 49.1063 230.396 47.7277C229.759 47.0364 229.129 46.3297 228.453 45.6921C227.777 45.0546 227.001 44.5092 226.248 43.9484C225.496 43.3877 224.712 42.8269 223.998 42.2278C223.315 41.5957 222.557 41.0513 221.739 40.607C220.857 40.3135 219.922 40.2113 218.997 40.3074C218.06 40.3074 217.115 40.3074 216.178 40.3766C215.255 40.3625 214.34 40.5404 213.49 40.8989C213.303 40.9972 213.15 41.1499 213.052 41.3367C213.016 41.4296 213.005 41.53 213.02 41.6282C213.035 41.7265 213.075 41.8192 213.136 41.8975C213.398 42.2625 213.743 42.56 214.143 42.7655C215.001 43.1139 215.92 43.2863 216.846 43.2725C217.085 43.2725 217.315 43.2725 217.561 43.2725L218.26 43.403L219.65 43.6796L222.853 46.9365L222.961 47.0517L222.815 47.1055C221.325 47.6893 219.819 48.2731 218.398 48.9951C218.06 49.185 217.777 49.4599 217.578 49.7927C217.378 50.1255 217.269 50.5046 217.261 50.8924C217.111 51.666 217.189 52.4664 217.484 53.1969V53.2506L217.438 53.2967C217.098 53.6548 216.855 54.0936 216.731 54.5718C216.677 54.8095 216.671 55.0555 216.714 55.2956C216.756 55.5356 216.845 55.7648 216.977 55.9699V56.0159C216.802 56.3348 216.709 56.6928 216.709 57.0568C216.709 57.4207 216.802 57.7788 216.977 58.0976C217.477 58.6556 218.039 59.1555 218.652 59.5878C218.951 59.8106 219.258 60.0333 219.573 60.2407C219.859 60.4776 220.196 60.6458 220.557 60.7323C221.301 60.8039 222.051 60.791 222.792 60.6939H222.846V60.7477C223.121 62.2988 223.612 63.8036 224.305 65.2183C224.704 65.9002 225.172 66.5386 225.703 67.1233C226.227 67.722 226.592 68.4433 226.763 69.2203C226.585 68.448 226.212 67.7342 225.68 67.1463C225.142 66.5649 224.666 65.929 224.259 65.249C223.542 63.8345 223.025 62.3273 222.723 60.7708L222.784 60.8092C222.022 60.9296 221.247 60.9477 220.48 60.8629C220.101 60.7759 219.747 60.6053 219.443 60.3636L218.513 59.7107C217.888 59.2622 217.314 58.7471 216.8 58.1744C216.608 57.8306 216.507 57.4431 216.507 57.0491C216.507 56.6551 216.608 56.2676 216.8 55.9238V56.0006C216.656 55.7749 216.558 55.523 216.512 55.2593C216.466 54.9957 216.473 54.7254 216.531 54.4643C216.664 53.9516 216.929 53.4827 217.3 53.1047V53.2045C216.862 52.0404 216.892 50.7519 217.384 49.6096C217.567 49.2269 217.88 48.9218 218.267 48.7493C219.712 47.9812 221.202 47.4281 222.7 46.8366V47.0056L219.489 43.7641H219.543L218.26 43.6796L217.568 43.549C217.346 43.549 217.108 43.549 216.877 43.549C215.916 43.572 214.96 43.3913 214.073 43.019C213.631 42.7946 213.252 42.4648 212.967 42.0588C212.889 41.9485 212.84 41.8205 212.824 41.6864C212.808 41.5523 212.826 41.4163 212.875 41.2907C212.992 41.0562 213.18 40.8652 213.413 40.7453C214.295 40.3651 215.249 40.1791 216.209 40.1999C217.154 40.1615 218.091 40.1538 219.036 40.1461C219.988 40.0535 220.948 40.1634 221.855 40.4687C222.69 40.9258 223.464 41.4858 224.159 42.1356C224.881 42.7271 225.634 43.2878 226.387 43.8563C227.14 44.4247 227.923 44.9777 228.607 45.6153C229.29 46.2529 229.913 46.9749 230.542 47.6739C231.82 49.0615 233.008 50.5291 234.099 52.0677C235.037 53.7129 235.578 55.5538 235.681 57.4447C235.866 59.2806 236.073 61.1164 236.388 63.006Z" fill="#FFBDA7"/>
<path d="M220.979 47.8196C219.888 47.5661 219.534 46.9209 218.674 47.4662C217.814 48.0116 218.351 49.0025 218.351 49.0025L220.979 47.8196Z" fill="#FFBDA7"/>
<path d="M217.491 53.435C218.025 52.7861 218.64 52.2079 219.32 51.7143C219.957 51.2381 221.324 50.4546 221.324 50.4546C220.321 50.7304 219.363 51.1522 218.482 51.7067C218.032 51.9884 217.608 52.3097 217.215 52.6668C217.259 52.9045 217.337 53.1346 217.445 53.3505L217.491 53.435Z" fill="#FFBDA7"/>
<path d="M217.637 54.8641C217.328 55.0694 217.033 55.2952 216.754 55.5401C216.819 55.7719 216.915 55.994 217.038 56.2007C217.453 55.302 219.419 54.0269 219.419 54.0269C218.796 54.2381 218.198 54.5189 217.637 54.8641Z" fill="#FFBDA7"/>
<path d="M222.868 60.8635C222.328 59.8752 221.568 59.0239 220.648 58.3747C219.88 57.7832 218.72 58.1058 218.528 58.5667C218.336 59.0276 219.711 58.7127 220.149 58.8125C221.178 59.3158 222.101 60.012 222.868 60.8635Z" fill="#FFBDA7"/>
<path d="M223.983 46.7517C223.983 46.7517 222.992 45.7915 221.271 44.2936C219.55 42.7957 219.673 43.0338 218.268 43.0185C216.862 43.0031 214.196 43.0185 213.344 42.3271C213.489 42.4682 213.646 42.5966 213.812 42.7112C214.88 43.4794 216.885 43.3565 217.553 43.4256C218.221 43.4947 219.627 43.8327 219.627 43.8327L222.922 47.1741L223.983 46.7517Z" fill="#FFBDA7"/>
<path d="M236.388 63.0054C237.248 67.9676 249.039 86.9868 250.007 91.6187C250.975 96.2506 247.703 104.946 245.36 106.743C243.017 108.541 237.678 106.336 235.044 101.159C232.409 95.9817 228.322 76.4171 226.84 69.3272L236.388 63.0054Z" fill="#C8856A"/>
<path d="M251.428 101.615C250.998 102.383 250.045 103.074 249.892 103.873C249.6 105.878 245.375 106.945 243.747 108.39C239.245 111.316 227.969 111.285 219.389 109.926C205.416 107.691 193.541 101.184 189.862 97.19C187.657 94.7857 188.118 92.9576 188.848 91.813C189.801 90.3098 191.123 89.075 192.688 88.2258C196.529 85.7601 202.213 85.9214 203.757 86.3823C208.22 89.1322 214.288 94.1328 219.251 96.2068C221.455 97.1286 224.236 97.8967 225.565 97.8353C227.101 97.7738 227.954 97.7584 228.822 96.852C230.21 95.4061 231.84 94.213 233.638 93.3263C235.091 92.5366 236.447 91.5802 237.678 90.4765C238.039 90.1692 238.685 90.392 239.03 90.7299C239.195 90.9153 239.313 91.138 239.373 91.3788C239.433 91.6195 239.434 91.8714 239.376 92.1126C239.053 94.5707 237.072 96.2759 235.727 98.2577C235.302 98.7683 235.087 99.4224 235.128 100.086C235.209 100.407 235.371 100.702 235.598 100.943C235.825 101.183 236.11 101.362 236.426 101.461C238.231 102.129 247.441 102.16 251.712 98.9567C251.852 99.8523 251.754 100.769 251.428 101.615Z" fill="#C8856A"/>
<path d="M228.922 96.8136C230.081 95.5495 231.422 94.4648 232.901 93.5951C233.669 93.165 234.437 92.827 235.098 92.3047C235.758 91.7823 236.45 91.283 237.103 90.7684L237.587 90.3536C237.688 90.2584 237.81 90.1876 237.943 90.1463C238.076 90.1051 238.217 90.0945 238.355 90.1154C238.603 90.1361 238.842 90.2168 239.052 90.3507C239.263 90.4845 239.437 90.6674 239.561 90.8836C239.764 91.3176 239.813 91.8083 239.699 92.2739C239.632 92.7114 239.513 93.1394 239.346 93.549C238.677 95.2082 237.441 96.468 236.457 97.8199C235.966 98.4882 235.413 99.2026 235.482 99.9323C235.565 100.304 235.763 100.639 236.049 100.89C236.335 101.141 236.693 101.296 237.072 101.33C238.742 101.582 240.434 101.649 242.119 101.53C243.813 101.453 245.497 101.222 247.15 100.839C248.82 100.499 250.411 99.85 251.843 98.926C250.455 99.9228 248.891 100.65 247.234 101.069C245.574 101.504 243.877 101.787 242.165 101.914C240.445 102.075 238.712 102.029 237.003 101.776C236.529 101.719 236.084 101.516 235.731 101.195C235.377 100.875 235.132 100.452 235.029 99.9861C235.074 99.0671 235.447 98.1949 236.081 97.528C237.11 96.1454 238.316 94.9163 238.954 93.38C239.108 93.0015 239.222 92.6075 239.292 92.2048C239.387 91.8343 239.357 91.4429 239.207 91.091C239.113 90.9387 238.986 90.8089 238.836 90.7107C238.686 90.6125 238.517 90.5483 238.339 90.5226C238.261 90.5095 238.18 90.5153 238.104 90.5393C238.028 90.5633 237.958 90.605 237.901 90.6608L237.394 91.0603C236.726 91.5903 236.05 92.1203 235.328 92.5965C234.606 93.0728 233.792 93.4415 233.078 93.8409C231.551 94.6179 230.15 95.62 228.922 96.8136Z" fill="#FFBDA7"/>
<path d="M103.676 194.774L94.7119 143.078L89.043 142.794L100.819 194.774C100.842 194.881 100.887 194.981 100.952 195.068C101.017 195.156 101.1 195.228 101.195 195.281C101.5 195.456 101.842 195.556 102.193 195.574C102.544 195.591 102.894 195.525 103.215 195.381C103.34 195.336 103.449 195.255 103.528 195.148C103.607 195.042 103.654 194.914 103.661 194.782L103.676 194.774Z" fill="#263238"/>
<path d="M19.3727 134.62H13.6962L0.353516 188.313C0.354755 188.446 0.394643 188.576 0.468304 188.686C0.541966 188.797 0.646214 188.883 0.768313 188.935C1.08123 189.095 1.42734 189.178 1.77842 189.178C2.1295 189.178 2.47561 189.095 2.78853 188.935C2.88684 188.888 2.974 188.821 3.04419 188.737C3.11439 188.654 3.16602 188.556 3.19564 188.452L19.3727 134.62Z" fill="#263238"/>
<path d="M58.6334 219.431L58.3876 161.543L52.7188 161.259L55.7913 219.423C55.8135 219.531 55.8587 219.632 55.9236 219.721C55.9885 219.81 56.0718 219.884 56.1677 219.938C56.4735 220.11 56.8153 220.209 57.166 220.226C57.5167 220.244 57.8666 220.179 58.1879 220.038C58.314 219.992 58.4236 219.91 58.503 219.802C58.5823 219.694 58.6277 219.565 58.6334 219.431Z" fill="#263238"/>
<path d="M50.3594 116.608H44.6598L35.5957 173.658C35.5969 173.791 35.6368 173.92 35.7105 174.031C35.7842 174.141 35.8884 174.228 36.0105 174.28C36.3248 174.439 36.6721 174.522 37.0244 174.522C37.3768 174.522 37.7241 174.439 38.0384 174.28C38.1361 174.231 38.2223 174.162 38.2912 174.077C38.36 173.993 38.41 173.894 38.4378 173.788L50.3594 116.608Z" fill="#263238"/>
<path d="M3.03368 71.9249C1.73458 75.1083 0.956479 78.48 0.729252 81.9107C0.107057 89.5384 2.70338 114.265 4.25503 125.326C6.50569 143.815 9.26331 143.846 13.2653 146.942C20.1786 152.265 39.966 162.696 46.5105 165.27C58.3707 169.94 68.0646 162.742 75.2928 159.17C81.9163 155.817 88.311 152.03 94.4349 147.833C96.2401 146.512 97.1772 145.183 97.1618 143.785C97.1618 143.232 97.1618 140.966 97.1618 140.374C97.1618 138.592 95.6256 136.679 92.2688 134.528C86.1236 130.557 64.0011 117.629 55.3979 112.89C55.3941 112.873 55.3855 112.858 55.3733 112.845C55.3611 112.833 55.3457 112.825 55.3288 112.821C48.7228 108.819 44.7515 81.5804 40.181 67.0856C40.0889 66.7783 39.989 66.4788 39.8891 66.1869C39.7893 65.895 39.7278 65.7337 39.651 65.5186C39.3591 64.7504 39.0672 63.9823 38.7523 63.3447" fill="#B1B1B1"/>
<path d="M97.1618 140.366C97.1618 138.584 95.6255 136.672 92.2688 134.521C86.1236 130.549 64.0011 117.622 55.3979 112.882C55.394 112.865 55.3855 112.85 55.3733 112.838C55.3611 112.825 55.3456 112.817 55.3288 112.813C48.7228 108.811 44.7515 81.5727 40.181 67.0778C39.911 66.1731 39.5931 65.2833 39.2285 64.4124C39.1958 64.3505 39.1675 64.2863 39.144 64.2203L38.8829 63.6289C38.8368 63.5367 38.7984 63.4291 38.7523 63.337C38.0242 61.6839 36.9805 60.1888 35.6797 58.9355C35.2229 58.5102 34.7051 58.1555 34.1434 57.8831L31.4549 56.3469C26.969 53.6584 21.0927 56.8846 13.7876 60.8943C9.22488 63.3907 5.33809 66.3634 2.97221 71.9017C1.67311 75.0851 0.895009 78.4569 0.667781 81.8876C0.107037 89.5383 2.70336 114.265 4.25501 125.326C6.50566 143.815 9.26329 143.846 13.2653 146.942C20.1786 152.265 39.966 162.696 46.5105 165.269C58.3706 169.94 68.0646 162.742 75.2928 159.17C81.9163 155.817 88.3109 152.029 94.4349 147.833C96.2401 146.511 97.1772 145.183 97.1618 143.785C97.1465 143.224 97.1618 140.958 97.1618 140.366Z" fill="#B1B1B1"/>
<path d="M75.2858 155.73C81.9081 152.371 88.3026 148.581 94.4279 144.384C98.5375 141.396 98.1611 138.347 92.2694 134.521C84.0887 129.214 50.7206 110.279 50.7206 110.279C50.7206 110.279 8.55725 135.174 10.3547 139.768C12.1522 144.361 38.2767 158.587 46.5035 161.821C58.3636 166.491 68.0576 159.294 75.2858 155.73Z" fill="#B1B1B1"/>
<path opacity="0.6" d="M75.2858 155.73C81.9081 152.371 88.3026 148.581 94.4279 144.384C98.5375 141.396 98.1611 138.347 92.2694 134.521C84.0887 129.214 50.7206 110.279 50.7206 110.279C50.7206 110.279 8.55725 135.174 10.3547 139.768C12.1522 144.361 38.2767 158.587 46.5035 161.821C58.3636 166.491 68.0576 159.294 75.2858 155.73Z" fill="white"/>
<path d="M34.2275 57.8835C29.7876 55.5791 24.0189 58.7208 16.8828 62.6307C12.274 65.1348 8.43325 68.1075 6.04433 73.6612L3.0332 71.9252C5.39908 66.3869 9.32429 63.4218 13.8486 60.9177C21.1767 56.908 27.053 53.6818 31.5159 56.3703L34.2275 57.8835Z" fill="#B1B1B1"/>
<path opacity="0.5" d="M34.2275 57.8835C29.7876 55.5791 24.0189 58.7208 16.8828 62.6307C12.274 65.1348 8.43325 68.1075 6.04433 73.6612L3.0332 71.9252C5.39908 66.3869 9.32429 63.4218 13.8486 60.9177C21.1767 56.908 27.053 53.6818 31.5159 56.3703L34.2275 57.8835Z" fill="white"/>
<path d="M40.2117 67.0776C40.1195 66.7703 38.5909 61.4548 35.7257 58.9353C34.3932 57.7372 32.6629 57.0774 30.871 57.084C27.0303 57.084 22.337 59.6419 16.8832 62.63C16.4223 62.8835 15.9768 63.137 15.5312 63.3982L15.0243 63.7054L14.4251 64.0818C14.2715 64.174 14.1255 64.2662 13.9796 64.3737C13.0164 65.0179 12.0977 65.7262 11.2296 66.4938C11.0914 66.6167 10.9531 66.7396 10.8225 66.8778C10.278 67.3838 9.765 67.9225 9.28624 68.491L9.01739 68.7982L8.71013 69.1823L8.41056 69.5817C8.3107 69.7123 8.21852 69.8506 8.11867 69.9888C7.73459 70.5419 7.35052 71.118 7.0279 71.7325C6.98182 71.8093 6.94341 71.8861 6.905 71.9629C6.86659 72.0398 6.72833 72.2933 6.64383 72.4622C6.55934 72.6312 6.40571 72.9462 6.29049 73.192C4.8758 76.5075 4.03924 80.0408 3.81707 83.6387C2.75703 96.1902 7.05863 137.67 11.3756 141.249C11.3756 141.249 10.715 137.194 19.395 131.732C25.2943 128.014 29.4346 124.896 35.7334 121.808C51.0962 114.272 55.3825 112.859 55.3825 112.859C48.7534 108.811 44.7821 81.5724 40.2117 67.0776Z" fill="#B1B1B1"/>
<path opacity="0.4" d="M40.2117 67.0776C40.1195 66.7703 38.5909 61.4548 35.7257 58.9353C34.3932 57.7372 32.6629 57.0774 30.871 57.084C27.0303 57.084 22.337 59.6419 16.8832 62.63C16.4223 62.8835 15.9768 63.137 15.5312 63.3982L15.0243 63.7054L14.4251 64.0818C14.2715 64.174 14.1255 64.2662 13.9796 64.3737C13.0164 65.0179 12.0977 65.7262 11.2296 66.4938C11.0914 66.6167 10.9531 66.7396 10.8225 66.8778C10.278 67.3838 9.765 67.9225 9.28624 68.491L9.01739 68.7982L8.71013 69.1823L8.41056 69.5817C8.3107 69.7123 8.21852 69.8506 8.11867 69.9888C7.73459 70.5419 7.35052 71.118 7.0279 71.7325C6.98182 71.8093 6.94341 71.8861 6.905 71.9629C6.86659 72.0398 6.72833 72.2933 6.64383 72.4622C6.55934 72.6312 6.40571 72.9462 6.29049 73.192C4.8758 76.5075 4.03924 80.0408 3.81707 83.6387C2.75703 96.1902 7.05863 137.67 11.3756 141.249C11.3756 141.249 10.715 137.194 19.395 131.732C25.2943 128.014 29.4346 124.896 35.7334 121.808C51.0962 114.272 55.3825 112.859 55.3825 112.859C48.7534 108.811 44.7821 81.5724 40.2117 67.0776Z" fill="white"/>
<path d="M71.9287 170.27C67.8268 169.862 64.4393 173.258 64.1474 174.31C63.7403 175.739 64.0014 178.596 65.7912 182.068C67.3658 185.531 68.1152 189.312 67.9804 193.114C67.7961 196.348 66.544 204.46 69.9468 208.392C73.3497 212.325 80.7008 215.605 83.0821 209.929C83.8502 208.085 81.9452 201.863 81.0311 197.3C79.226 188.252 77.6897 179.218 77.6897 179.218L71.9287 170.27Z" fill="#263238"/>
<path d="M70.9062 177.605C71.7523 182.016 72.2658 186.484 72.4425 190.971C72.5347 195.88 73.6869 199.067 75.4537 201.195C77.4047 203.538 82.1211 204.729 81.3914 199.697C80.8844 196.195 77.7427 179.219 77.7427 179.219L70.9062 177.605Z" fill="#FFBDA7"/>
<path opacity="0.15" d="M65.446 172.651C65.3615 175.678 67.2742 183.636 71.5912 190.203C75.8236 196.648 81.9688 204.183 83.2516 208.846C83.2516 206.68 82.2376 202.762 81.4388 199.267C81.4388 199.191 81.4388 199.114 81.385 199.037C81.3389 198.829 81.3005 198.63 81.2544 198.43C81.2083 198.23 81.216 198.246 81.193 198.154L81.0317 197.385V197.339C80.4632 194.497 79.9255 191.663 79.4954 189.112C79.119 187.069 78.7887 185.203 78.5121 183.651C78.3816 182.883 78.2587 182.184 78.1588 181.592C78.105 181.293 78.0589 181.016 78.0205 180.77C77.8515 179.78 77.7594 179.234 77.7594 179.234L71.9292 170.27C71.6733 170.256 71.4169 170.256 71.161 170.27C69.0338 170.36 67.0081 171.204 65.446 172.651Z" fill="black"/>
<path d="M83.988 116.224C71.1677 107.882 56.7573 99.0557 56.7573 99.0557L14.3789 107.544L58.4856 132.209L76.6292 143.5C76.6292 143.5 80.0013 143.109 78.1654 148.463C77.5663 150.168 76.706 153.555 75.7996 157.388L84.879 179.703C84.879 179.703 89.0039 171.66 94.8649 157.112C100.319 143.593 100.242 135.381 99.5505 132.462C98.5904 128.645 95.0876 123.444 83.988 116.224Z" fill="#263238"/>
<path d="M55.2207 124.104C64.3078 130.864 80.1546 142.01 81.8906 146.857C82.966 149.853 82.3822 168.288 84.8172 179.695L87.1217 174.902C87.1217 174.902 86.7837 160.023 86.1615 152.587C85.3933 143.792 83.3501 142.755 79.8166 139.029C76.4061 135.45 61.1047 124.773 59.8449 124.104C63.8546 118.351 64.4154 113.957 63.9238 110.339C63.9468 110.347 63.4706 116.892 55.2207 124.104Z" fill="#37474F"/>
<path d="M75.2927 204.875C74.2941 204.875 74.2941 206.55 73.7564 208.716C73.0874 210.819 73.0633 213.074 73.6872 215.191C74.6013 217.887 78.9337 218.264 81.1843 221.82C83.435 225.377 86.7149 231.745 94.4194 233.634C102.124 235.524 108.108 233.143 109.621 230.877C111.134 228.611 109.913 226.391 105.012 223.403C99.8425 220.23 98.3753 219.301 98.3753 219.301L75.2927 204.875Z" fill="#263238"/>
<path d="M86.9544 193.106C86.9544 193.106 88.3985 201.518 90.5186 206.342C92.6387 211.165 95.1275 214.399 98.9682 218.724C99.8131 219.661 101.718 221.405 102.409 222.173C102.573 222.322 102.701 222.505 102.785 222.709C102.869 222.913 102.906 223.134 102.894 223.354C102.883 223.575 102.822 223.79 102.717 223.984C102.612 224.178 102.465 224.347 102.287 224.477C100.62 226.121 93.4759 226.613 89.4278 223.671C85.3797 220.729 81.6235 214.384 79.1962 212.003C78.2861 211.121 77.4221 210.193 76.6075 209.222C75.819 208.347 75.3671 207.22 75.3324 206.042C75.4076 204.312 75.3588 202.58 75.1865 200.857C75.0175 199.037 74.7025 197.185 74.2109 194.435L86.9544 193.106Z" fill="#FFBDA7"/>
<path d="M14.3795 107.543C13.4577 121.031 14.1874 125.717 16.6839 130.802C19.9255 137.408 23.6433 141.103 34.62 147.286C43.6995 152.394 55.2907 157.203 58.0023 158.348C60.7138 159.492 60.8828 162.004 61.2285 167.865C61.5357 173.004 63.072 174.778 67.9036 186.093C72.8121 197.615 74.525 200.58 74.525 200.58C74.525 200.58 83.0668 204.052 88.5283 198.614C88.5283 198.614 84.2804 153.57 81.8915 146.895C79.5026 140.219 50.8893 122.567 50.8893 122.567C50.8893 122.567 54.1846 111.399 51.1044 103.687L14.3795 107.543Z" fill="#263238"/>
<path d="M53.3553 48.7275C56.9886 49.3574 61.7434 49.4957 63.1644 56.8084C64.5855 64.1211 66.7824 87.2729 66.7824 87.2729C66.7824 87.2729 67.6888 88.7324 70.4771 92.5577C73.0888 96.1373 74.0413 97.3202 75.1782 98.3649C76.0437 99.1062 76.9862 99.7526 77.9896 100.293C77.9896 100.293 68.2034 107.368 65.4996 103.412C62.7957 99.4557 58.0486 95.7302 55.7749 92.9572C53.5012 90.1842 53.5934 88.4175 52.9942 83.5782C52.3029 78.0168 51.3965 69.4213 51.3965 69.4213L53.3553 48.7275Z" fill="#FFBDA7"/>
<path d="M15.5618 78.0174C14.9934 62.7928 19.4025 58.2761 21.4688 53.2755L26.2697 51.6931C26.2697 51.6931 42.032 48.7127 48.7763 48.4746L53.3851 48.7435C56.4577 52.3307 64.0392 60.3962 66.2515 67.2403C67.0672 70.0168 66.9727 72.9816 65.9816 75.7004C64.9905 78.4193 63.1551 80.7494 60.7439 82.3497C60.5493 85.8075 60.6985 89.276 61.1894 92.7043C61.1894 92.7043 63.8933 98.4884 64.262 103.458C62.7257 111.14 52.1945 115.687 38.0146 118.053C22.7977 120.557 14.2022 115.334 14.2022 115.334C13.7413 102.598 16.1225 92.927 15.5618 78.0174Z" fill="#3252BB"/>
<path d="M48.769 85.7765C48.769 85.7765 44.5288 90.3853 36.7322 89.0641C28.6897 87.6661 27.5145 80.8604 27.5145 80.8604C27.5145 80.8604 26.6465 89.6325 36.2483 91.2994C38.6509 91.8109 41.1536 91.5527 43.4011 90.5613C45.6487 89.5699 47.5268 87.8957 48.769 85.7765Z" fill="#3252BB"/>
<path d="M26.4228 11.3109C26.0233 4.39766 39.1432 -3.57566 52.0173 4.35157C64.8913 12.2788 60.6282 20.4826 59.8447 22.979C59.1344 25.0562 58.6829 27.213 58.5004 29.4007C58.3233 31.4018 58.812 33.4055 59.8907 35.1003C60.4117 35.8545 61.1761 36.4066 62.0559 36.6639C62.9356 36.9213 63.8771 36.8682 64.7224 36.5137C64.2307 39.5863 62.3027 41.8907 57.5402 43.619C55.5628 44.2204 53.467 44.3207 51.4412 43.9109C52.1171 44.4179 53.0927 45.2321 56.1422 45.2628C54.0989 47.5673 45.7262 48.2893 40.4875 45.0708C40.1687 44.9045 39.8082 44.8351 39.4505 44.8711C39.0221 44.9319 38.6083 45.0698 38.2291 45.2782C35.1566 46.584 31.3158 46.0847 28.2433 45.2782C26.4861 44.8885 24.8216 44.1606 23.3425 43.1351C21.8565 42.0975 20.8082 40.5456 20.4005 38.7797C19.9722 40.342 20.1138 42.0057 20.8 43.4731C19.6471 43.116 18.5802 42.525 17.666 41.7371C16.0759 40.2008 15.6227 37.7965 15.9376 35.5919C16.3814 33.4309 17.1234 31.3421 18.1422 29.3853C19.1638 27.1347 20.0011 24.9224 19.9473 22.426C19.8665 20.7668 19.9592 19.1037 20.2239 17.4638C20.8461 14.1531 22.8048 11.526 26.4228 11.3109Z" fill="#263238"/>
<path d="M29.902 46.9991V37.2361C29.8329 37.8429 26.6681 39.4944 24.0411 36.3527C21.4141 33.211 21.2297 29.8773 22.8197 27.7572C24.5788 25.4528 28.8266 25.2838 30.5012 29.0477C31.5843 30.4303 34.0116 28.8326 33.1129 25.0917C33.351 22.4724 37.1302 19.6302 35.1177 15.1904C42.5994 10.2589 50.2501 10.9579 54.7898 14.8831C55.3967 16.6806 56.111 18.4089 55.7423 24.1008C55.6578 25.4143 56.5105 28.0184 56.449 29.4778C56.1264 38.1117 54.1446 41.5684 51.4023 43.0202C49.5511 43.988 47.7613 44.3414 44.489 44.0648V45.7548C44.5505 47.1144 44.4353 47.5215 45.7565 47.967C46.7377 48.2045 47.7373 48.3587 48.7446 48.4279C48.7446 48.4279 52.7466 54.8419 43.3676 56.3935C31.1234 58.4214 26.261 51.6464 26.261 51.6464C26.261 51.6464 26.8909 51.3622 28.2044 50.8168C29.518 50.2714 29.902 49.5033 29.902 46.9991Z" fill="#FFBDA7"/>
<path d="M44.52 44.0414C40.9251 43.6727 39.2045 43.5037 36.7157 42.3669C35.1488 41.5692 33.823 40.368 32.875 38.8872C32.875 38.8872 33.935 42.1441 36.2855 43.5345C39.5809 45.4779 44.5354 45.8389 44.5354 45.8389L44.52 44.0414Z" fill="#F0997A"/>
<path d="M46.9637 35.5305C47.0328 35.5305 47.2479 35.5305 47.2709 35.4153C47.294 35.3001 47.1941 35.3078 47.1403 35.3001C46.3883 35.2373 45.6488 35.0692 44.9435 34.8008C44.5808 34.6595 44.2334 34.4819 43.9065 34.2708C43.6531 34.0747 43.3772 33.9097 43.0846 33.7792C42.8848 33.7024 42.6851 33.7792 42.7235 34.0173C42.7773 34.386 43.1844 34.6164 43.4917 34.7854C43.9917 35.0886 44.5399 35.3042 45.1125 35.423C45.719 35.5635 46.345 35.5999 46.9637 35.5305Z" fill="#B16668"/>
<path d="M54.4139 21.1738L50.8574 20.2828C50.9053 20.0493 50.9998 19.8279 51.1354 19.6319C51.2711 19.436 51.4449 19.2695 51.6466 19.1424C51.8482 19.0154 52.0735 18.9305 52.3088 18.8928C52.5441 18.8551 52.7847 18.8655 53.0159 18.9232C53.4924 19.0486 53.9028 19.3518 54.1627 19.7703C54.4227 20.1889 54.5126 20.6911 54.4139 21.1738Z" fill="#263238"/>
<path d="M38.7512 22.3653L42.1772 20.9519C42.0966 20.7243 41.9704 20.5155 41.8064 20.3384C41.6423 20.1612 41.4439 20.0194 41.2231 19.9216C41.0023 19.8238 40.7639 19.7721 40.5225 19.7696C40.2811 19.7672 40.0417 19.814 39.819 19.9073C39.3607 20.1031 38.9948 20.4669 38.7963 20.924C38.5978 21.381 38.5816 21.8968 38.7512 22.3653Z" fill="#263238"/>
<path d="M51.1341 24.7461C51.1081 25.1516 51.2398 25.5515 51.5018 25.8622C51.7638 26.1728 52.1357 26.3702 52.5398 26.4129C52.736 26.4352 52.9347 26.4178 53.1241 26.3619C53.3135 26.3059 53.4898 26.2124 53.6424 26.0871C53.7949 25.9617 53.9208 25.8069 54.0125 25.632C54.1041 25.4571 54.1597 25.2655 54.1759 25.0687C54.1939 24.8674 54.1719 24.6645 54.1113 24.4718C54.0507 24.279 53.9527 24.1 53.8228 23.9452C53.6929 23.7903 53.5338 23.6626 53.3545 23.5694C53.1752 23.4762 52.9793 23.4192 52.7779 23.4018C52.5809 23.3773 52.381 23.3931 52.1902 23.4481C51.9995 23.5032 51.8219 23.5964 51.6682 23.722C51.5146 23.8477 51.388 24.0033 51.2962 24.1793C51.2044 24.3553 51.1492 24.5481 51.1341 24.7461Z" fill="#263238"/>
<path d="M40.3264 25.5757C40.3084 25.777 40.3304 25.9799 40.391 26.1727C40.4516 26.3654 40.5496 26.5444 40.6795 26.6992C40.8094 26.8541 40.9685 26.9818 41.1478 27.075C41.3271 27.1682 41.523 27.2252 41.7244 27.2426C41.9212 27.266 42.1207 27.2494 42.311 27.1939C42.5013 27.1385 42.6785 27.0452 42.8319 26.9197C42.9854 26.7943 43.1119 26.6391 43.2041 26.4636C43.2962 26.2882 43.3521 26.0959 43.3682 25.8983C43.3861 25.6964 43.3639 25.493 43.3028 25.2997C43.2417 25.1065 43.143 24.9272 43.0123 24.7723C42.8817 24.6173 42.7217 24.4898 42.5415 24.397C42.3613 24.3041 42.1645 24.2479 41.9625 24.2315C41.7661 24.2081 41.567 24.2247 41.3771 24.2802C41.1873 24.3358 41.0107 24.4292 40.8578 24.5547C40.705 24.6803 40.5791 24.8355 40.4878 25.0109C40.3965 25.1864 40.3416 25.3785 40.3264 25.5757Z" fill="#263238"/>
<path d="M53.109 30.0153L47.947 32.7038L45.9883 23.1865C47.732 23.7319 50.4819 26.551 53.109 30.0153Z" fill="#F0997A"/>
<path d="M140.57 229.194L137.551 227.45V304.38L140.57 306.123V229.194Z" fill="#263238"/>
<path d="M140.57 229.194L143.589 227.45V304.38L140.57 306.123V229.194Z" fill="#263238"/>
<path d="M238.2 172.85L235.174 171.106V248.036L238.2 249.78V172.85Z" fill="#263238"/>
<path d="M238.201 172.85L241.22 171.106V248.036L238.201 249.78V172.85Z" fill="#263238"/>
<path d="M11.3997 154.508L8.38086 152.764V229.694L11.3997 231.437V154.508Z" fill="#263238"/>
<path d="M11.3984 154.508L14.4172 152.764V229.694L11.3984 231.437V154.508Z" fill="#263238"/>
<path d="M0.0234375 153.116V148.984C0.0415144 148.726 0.120563 148.475 0.254094 148.254C0.387624 148.032 0.571829 147.845 0.79158 147.709L113.662 82.5239C113.892 82.4102 114.144 82.3511 114.4 82.3511C114.656 82.3511 114.908 82.4102 115.137 82.5239L254.171 163.002C254.392 163.138 254.576 163.325 254.71 163.546C254.844 163.768 254.922 164.019 254.939 164.277V168.41C254.922 168.669 254.844 168.921 254.71 169.144C254.577 169.367 254.392 169.555 254.171 169.693L141.308 234.877C141.079 234.991 140.826 235.05 140.57 235.05C140.315 235.05 140.062 234.991 139.833 234.877L0.799263 154.399C0.577075 154.263 0.390736 154.075 0.255781 153.852C0.120827 153.629 0.041166 153.376 0.0234375 153.116Z" fill="#B1B1B1"/>
<g opacity="0.7">
<path d="M0.0234375 153.116V148.983C0.0415144 148.725 0.120563 148.475 0.254094 148.253C0.387624 148.032 0.571829 147.845 0.79158 147.708L113.662 82.5235C113.892 82.4097 114.144 82.3506 114.4 82.3506C114.656 82.3506 114.908 82.4097 115.137 82.5235L254.171 163.002C254.392 163.137 254.576 163.324 254.71 163.546C254.844 163.768 254.922 164.018 254.939 164.277V168.409C254.922 168.669 254.844 168.921 254.71 169.144C254.577 169.367 254.392 169.555 254.171 169.692L141.308 234.877C141.079 234.991 140.826 235.05 140.57 235.05C140.315 235.05 140.062 234.991 139.833 234.877L0.799263 154.399C0.577075 154.262 0.390736 154.074 0.255781 153.851C0.120827 153.628 0.041166 153.376 0.0234375 153.116Z" fill="white"/>
</g>
<path d="M140.57 229.217V235.055C140.303 235.064 140.038 235.003 139.802 234.878L0.768142 154.4C0.548392 154.263 0.364187 154.076 0.230656 153.855C0.0971252 153.633 0.0180769 153.383 0 153.125V148.992C0.0107892 148.763 0.0705348 148.539 0.17521 148.335C0.279886 148.131 0.427062 147.951 0.606833 147.809C0.337983 148.032 0.38407 148.354 0.737416 148.577L139.771 229.056C140.018 229.18 140.294 229.236 140.57 229.217Z" fill="#B1B1B1"/>
<g opacity="0.6">
<path d="M140.57 229.217V235.055C140.303 235.064 140.038 235.003 139.802 234.878L0.768142 154.4C0.548392 154.263 0.364187 154.076 0.230656 153.855C0.0971252 153.633 0.0180769 153.383 0 153.125V148.992C0.0107892 148.763 0.0705348 148.539 0.17521 148.335C0.279886 148.131 0.427062 147.951 0.606833 147.809C0.337983 148.032 0.38407 148.354 0.737416 148.577L139.771 229.056C140.018 229.18 140.294 229.236 140.57 229.217Z" fill="white"/>
</g>
<path d="M0.760366 148.561L139.794 229.039C140.023 229.153 140.276 229.212 140.532 229.212C140.787 229.212 141.04 229.153 141.269 229.039L254.14 163.855C254.228 163.823 254.303 163.765 254.357 163.689C254.41 163.613 254.439 163.522 254.439 163.429C254.439 163.335 254.41 163.244 254.357 163.168C254.303 163.092 254.228 163.034 254.14 163.002L115.106 82.5239C114.877 82.4102 114.624 82.3511 114.369 82.3511C114.113 82.3511 113.86 82.4102 113.631 82.5239L0.760366 147.709C0.672667 147.74 0.596856 147.798 0.543271 147.874C0.489686 147.951 0.460938 148.042 0.460938 148.135C0.460938 148.228 0.489686 148.319 0.543271 148.395C0.596856 148.472 0.672667 148.53 0.760366 148.561Z" fill="#B1B1B1"/>
<g opacity="0.8">
<path d="M0.760366 148.561L139.794 229.039C140.023 229.153 140.276 229.212 140.532 229.212C140.787 229.212 141.04 229.153 141.269 229.039L197.704 196.447L254.14 163.854C254.228 163.823 254.303 163.765 254.357 163.689C254.41 163.612 254.439 163.521 254.439 163.428C254.439 163.335 254.41 163.244 254.357 163.168C254.303 163.091 254.228 163.033 254.14 163.002L115.106 82.5235C114.877 82.4097 114.624 82.3506 114.369 82.3506C114.113 82.3506 113.86 82.4097 113.631 82.5235L0.760366 147.708C0.672667 147.74 0.596856 147.798 0.543271 147.874C0.489686 147.95 0.460938 148.041 0.460938 148.134C0.460938 148.228 0.489686 148.319 0.543271 148.395C0.596856 148.471 0.672667 148.529 0.760366 148.561Z" fill="#B1B1B1"/>
</g>
<path d="M66.5129 104.954C66.9968 105.722 67.4808 106.406 67.957 107.136C68.5896 108.154 69.3092 109.115 70.1078 110.009C70.876 110.838 72.2817 111.299 72.9115 112.159C73.1958 112.551 74.1329 114.034 74.01 114.533C73.8871 115.032 73.2418 115.301 72.996 115.631C72.6694 116.15 72.4283 116.718 72.2817 117.314C71.9168 118.166 71.8518 119.116 72.0973 120.01C72.1972 120.263 72.3508 120.501 72.4353 120.778C72.5214 121.245 72.5728 121.717 72.5889 122.191C72.6689 122.617 72.8669 123.011 73.1603 123.328C73.4537 123.646 73.8307 123.875 74.2481 123.989C74.8466 124.107 75.4642 124.086 76.0532 123.927C76.98 123.75 77.8956 123.52 78.7955 123.236C80.5776 122.675 82.4596 121.769 83.1509 120.041C83.5273 119.111 83.5196 118.02 84.1034 117.198C84.3338 116.868 84.6564 116.599 84.8715 116.246C85.3324 115.432 85.0559 114.379 85.4323 113.519C85.5705 113.204 85.7856 112.928 85.9546 112.628C86.5691 111.545 86.2695 110.239 86.0545 109.072C85.8318 107.837 85.479 106.629 85.0021 105.469C84.8227 104.979 84.5632 104.522 84.234 104.117C83.9338 103.818 83.5955 103.56 83.2277 103.349C81.8604 102.473 80.4624 101.743 79.0874 100.929C77.8643 100.105 76.4483 99.613 74.9778 99.5005C73.3494 99.5005 71.7593 100.345 70.369 101.037C68.7559 101.805 67.1274 102.611 65.5527 103.456L66.5129 104.954Z" fill="#FFBDA7"/>
<path d="M78.2656 102.266C78.8975 102.948 79.5668 103.594 80.2704 104.202C80.9617 104.832 81.6684 105.439 82.3905 106.015C82.7592 106.307 83.1125 106.583 83.4889 106.844C83.8995 107.107 84.2806 107.414 84.6258 107.758C84.7363 107.869 84.8207 108.003 84.8725 108.151C84.9244 108.298 84.9424 108.455 84.9253 108.611C84.8568 108.9 84.6915 109.158 84.4568 109.341C84.0627 109.669 83.5926 109.894 83.0895 109.994C82.125 110.163 81.1347 110.111 80.1936 109.84C79.2669 109.61 78.3774 109.251 77.5512 108.772C76.7546 108.304 75.9852 107.791 75.2468 107.236C74.4786 106.675 73.7873 106.068 72.9961 105.569C74.6706 106.414 76.1455 107.589 77.8047 108.404C78.6132 108.825 79.4694 109.147 80.3549 109.364C81.2196 109.594 82.1245 109.631 83.005 109.471C83.4205 109.396 83.811 109.219 84.1418 108.957C84.4798 108.665 84.549 108.45 84.2724 108.127C83.704 107.528 82.8053 107.044 82.137 106.383C80.707 105.149 79.4095 103.769 78.2656 102.266Z" fill="#F0997A"/>
<path d="M77.3822 113.274H77.2593C76.3837 113.066 75.508 112.843 74.64 112.59C74.5939 112.444 74.8013 112.344 74.9549 112.313C77.0135 111.922 79.1797 111.699 81.0386 110.662C81.57 110.373 82.0257 109.964 82.3687 109.466C82.7118 108.968 82.9324 108.396 83.0127 107.797C83.1356 106.645 81.1999 107.321 80.5316 107.405C79.6459 107.537 78.7534 107.619 77.8585 107.651C74.6364 107.631 71.4163 107.818 68.2183 108.212C65.1457 108.542 62.004 107.528 52.8555 104.44C43.7069 101.352 34.2203 97.7188 34.2203 97.7188C34.2203 97.7188 29.5654 75.8728 28.5591 71.8477C27.5529 67.8227 25.5787 57.4912 21.4615 53.2817C12.1286 56.2391 8.08812 59.8724 11.0301 74.7897C14.1872 90.8285 17.1752 102.604 17.8896 105.277C19.0802 109.709 20.194 112.306 24.5264 113.619C27.8447 114.61 31.3705 115.217 42.4932 117.053C47.4785 117.883 49.4756 118.121 54.0153 118.989C58.3861 119.818 60.4985 120.356 62.4649 121.201C64.8178 122.247 67.2286 123.157 69.6855 123.928C71.7511 124.511 73.8599 124.93 75.9919 125.18C77.4258 125.248 78.8534 124.949 80.1399 124.312C81.3182 123.864 82.4176 123.231 83.3968 122.438C83.951 122.069 84.4658 121.644 84.9331 121.17C85.214 120.688 85.4309 120.172 85.5783 119.634C86.0765 118.876 86.533 118.091 86.9456 117.283C87.0731 116.552 87.0575 115.804 86.8995 115.079C87.4823 114.44 87.848 113.634 87.9442 112.774C87.9941 112.194 87.9941 111.611 87.9442 111.031C87.9424 110.44 87.8701 109.852 87.7291 109.279C87.4756 109.215 87.2099 109.217 86.9572 109.284C86.7045 109.351 86.4731 109.482 86.285 109.663C85.9182 110.032 85.6535 110.49 85.5169 110.992C85.4365 111.319 85.293 111.627 85.0944 111.899C84.835 112.131 84.5245 112.3 84.188 112.39C82.8514 112.843 81.3459 113.857 79.9094 113.811C79.0515 113.715 78.2051 113.535 77.3822 113.274Z" fill="#FFBDA7"/>
<path d="M86.0626 109.84C85.7002 110.36 85.4203 110.933 85.233 111.538C84.9641 112.122 84.2651 112.183 83.6967 112.436L81.9607 113.205C81.3948 113.45 80.7931 113.603 80.1786 113.658C79.5595 113.649 78.9445 113.556 78.3504 113.381L74.9552 112.498L75.3239 112.429L76.0921 112.291C76.6144 112.198 77.1444 112.106 77.6744 111.999C78.7382 111.807 79.7716 111.474 80.747 111.008C81.2564 110.776 81.7148 110.445 82.0958 110.035C82.4768 109.625 82.7729 109.144 82.9669 108.619C83.061 108.351 83.1204 108.072 83.1436 107.789C83.164 107.618 83.1261 107.445 83.0361 107.298C82.9317 107.158 82.7827 107.057 82.6136 107.013C82.0546 106.936 81.4855 106.984 80.9467 107.152C80.439 107.249 79.9261 107.315 79.4105 107.351L77.8204 107.513L74.6096 107.605C72.4588 107.674 70.331 107.951 68.2109 108.212C70.3387 108.012 72.4741 107.843 74.6172 107.82H77.8281L79.4335 107.689C79.9749 107.666 80.5139 107.604 81.0466 107.505C81.5441 107.355 82.0667 107.308 82.5829 107.367C82.63 107.376 82.6748 107.394 82.7147 107.421C82.7547 107.448 82.7888 107.482 82.8153 107.522C82.8418 107.562 82.86 107.607 82.8689 107.654C82.8778 107.701 82.8772 107.75 82.8671 107.797C82.8439 108.059 82.7871 108.317 82.6981 108.565C82.5171 109.045 82.2417 109.484 81.8881 109.857C81.5345 110.229 81.1099 110.526 80.6395 110.731C79.6836 111.182 78.6744 111.51 77.636 111.707C77.1214 111.814 76.5914 111.906 76.0998 111.999L75.3316 112.145C75.1857 112.145 75.0781 112.183 74.9168 112.221C74.8309 112.248 74.7503 112.29 74.6787 112.344C74.6234 112.384 74.5819 112.441 74.5599 112.505C74.5379 112.57 74.5364 112.64 74.5558 112.705V112.798H74.6403L78.3197 113.719C78.9396 113.893 79.5809 113.978 80.2247 113.973C80.8685 113.905 81.4966 113.731 82.0836 113.458L83.8119 112.69C84.0961 112.559 84.3957 112.475 84.6953 112.337C85.0064 112.211 85.2587 111.972 85.402 111.668C85.5657 111.06 85.825 110.482 86.1701 109.955C86.3489 109.697 86.6008 109.497 86.8936 109.382C87.1864 109.267 87.5068 109.242 87.8139 109.31C87.5026 109.212 87.1688 109.21 86.8563 109.304C86.5438 109.399 86.2671 109.586 86.0626 109.84Z" fill="#F0997A"/>
<path d="M87.1292 114.749C86.7592 115.416 86.2512 115.998 85.639 116.454C85.0486 116.921 84.4304 117.352 83.7878 117.744C83.6265 117.844 83.4959 117.944 83.2885 118.052C83.1073 118.135 82.9198 118.205 82.7277 118.259C82.3617 118.361 81.9897 118.441 81.6139 118.497C80.8701 118.624 80.1177 118.693 79.3633 118.704L81.5448 118.167C81.8982 118.059 82.2592 117.975 82.6048 117.852C82.7734 117.801 82.9378 117.736 83.0965 117.66C83.2194 117.598 83.3883 117.468 83.542 117.368C84.1872 116.968 84.8171 116.6 85.4316 116.177C86.0615 115.783 86.6329 115.302 87.1292 114.749Z" fill="#F0997A"/>
<path d="M86.1396 118.727C85.8104 119.303 85.3902 119.822 84.8952 120.263C84.4085 120.721 83.8727 121.122 83.2975 121.462C82.692 121.754 82.0519 121.968 81.3925 122.099C80.7506 122.253 80.0986 122.361 79.4414 122.422C80.0559 122.184 80.6781 121.984 81.2926 121.769C81.9019 121.58 82.4973 121.349 83.0747 121.078C84.19 120.424 85.2196 119.635 86.1396 118.727Z" fill="#F0997A"/>
<path opacity="0.2" d="M41.7096 159.002C51.2337 159.002 58.9544 154.544 58.9544 149.046C58.9544 143.548 51.2337 139.091 41.7096 139.091C32.1856 139.091 24.4648 143.548 24.4648 149.046C24.4648 154.544 32.1856 159.002 41.7096 159.002Z" fill="#BA68C8"/>
<path d="M53.4236 140.682C46.9559 136.949 36.463 136.949 29.9953 140.682C26.7614 142.548 25.1406 144.999 25.1406 147.449V148.14C25.1406 150.591 26.7614 153.041 29.9953 154.908C36.463 158.641 46.9559 158.641 53.4236 154.908C56.6652 153.041 58.2783 150.591 58.2783 148.14V147.457C58.286 145.006 56.6652 142.541 53.4236 140.682Z" fill="#F0F0F0"/>
<path opacity="0.1" d="M36.2096 156.475V138.423C34.0311 138.84 31.9333 139.603 29.9953 140.682C26.7614 142.548 25.1406 144.999 25.1406 147.449V148.14C25.1406 150.591 26.7614 153.041 29.9953 154.908C32.3511 156.203 34.9271 157.05 37.5922 157.404C36.2864 157.181 36.2096 156.475 36.2096 156.475Z" fill="black"/>
<path d="M53.4237 140.682C46.9559 136.949 36.4631 136.949 29.9954 140.682C23.5276 144.415 23.5276 150.476 29.9954 154.209C36.4631 157.942 46.9559 157.95 53.4237 154.209C59.8915 150.468 59.8991 144.423 53.4237 140.682Z" fill="white"/>
<path d="M50.2891 142.84C45.5497 140.106 37.8682 140.106 33.1288 142.84C28.3894 145.575 28.3894 150.015 33.1288 152.75C37.8682 155.484 45.5497 155.484 50.2891 152.75C55.0285 150.015 55.0285 145.613 50.2891 142.84Z" fill="#F0F0F0"/>
<path d="M49.2675 143.923C45.1118 141.526 38.3829 141.526 34.235 143.923C30.087 146.32 30.0793 150.206 34.235 152.603C38.3906 155 45.1195 155.007 49.2675 152.603C53.4155 150.199 53.3847 146.32 49.2675 143.923Z" fill="white"/>
<path d="M29.9023 153.664C31.2811 154.382 32.7406 154.934 34.25 155.307C35.7605 155.699 37.3029 155.956 38.8589 156.075C40.3928 156.197 41.9338 156.197 43.4677 156.075C45.0233 155.953 46.5654 155.696 48.0766 155.307C49.5749 154.943 51.026 154.407 52.4012 153.71C53.7837 153.038 55.0188 152.098 56.0345 150.944C56.5317 150.365 56.9266 149.705 57.2021 148.993C57.4752 148.281 57.5905 147.519 57.5401 146.758C57.4852 145.989 57.2762 145.24 56.9256 144.553C56.7455 144.211 56.5401 143.882 56.3111 143.57C56.0746 143.254 55.818 142.954 55.5429 142.671C55.8164 142.942 56.0729 143.229 56.3111 143.532C56.5583 143.835 56.7793 144.159 56.9717 144.5C57.3682 145.188 57.6168 145.952 57.7014 146.743C57.7832 147.537 57.6887 148.339 57.4249 149.093C57.1511 149.845 56.7539 150.546 56.2496 151.167C55.7473 151.78 55.1749 152.331 54.5443 152.811C53.9132 153.289 53.2425 153.713 52.5395 154.078C51.1391 154.799 49.6594 155.353 48.1304 155.73C45.0767 156.477 41.9187 156.703 38.7898 156.398C37.2295 156.255 35.6864 155.964 34.1809 155.53C33.4323 155.315 32.6963 155.059 31.9763 154.762C31.2583 154.449 30.565 154.081 29.9023 153.664Z" fill="white"/>
<path d="M47.6781 144.115C45.8301 143.176 43.7864 142.686 41.7135 142.686C39.6405 142.686 37.5969 143.176 35.7488 144.115C32.4535 146.02 32.4535 149.1 35.7488 151.028C37.5969 151.967 39.6405 152.457 41.7135 152.457C43.7864 152.457 45.8301 151.967 47.6781 151.028C50.9734 149.1 50.9734 146.02 47.6781 144.115Z" fill="#F0F0F0"/>
<path opacity="0.1" d="M47.6549 149.814L36.801 143.8L25.1406 147.472C25.1406 149.914 26.7691 152.349 29.9953 154.208C31.9314 155.293 34.0297 156.058 36.2096 156.474L47.6549 149.814Z" fill="black"/>
<path d="M51.9631 146.619C52.7452 146.67 53.5295 146.561 54.2676 146.297C55.2969 145.92 56.1879 144.814 56.9945 142.925C57.6858 141.335 58.7766 137.832 58.0084 136.011C57.0252 133.707 54.2522 133.638 52.4086 133.584H51.7711L51.6712 135.773C51.894 135.773 52.2397 135.85 52.4778 135.858C53.5071 135.858 55.7885 136.242 56.042 136.833C56.9023 138.254 54.7131 143.708 53.7375 144.3C52.5653 144.55 51.3533 144.55 50.181 144.3L49.459 146.135C50.264 146.424 51.1086 146.587 51.9631 146.619Z" fill="#E0E0E0"/>
<path d="M32.6372 130.964C32.8522 130.027 33.7663 129.113 35.4025 128.383C39.1817 126.693 45.3269 126.632 49.1369 128.237C50.7884 128.936 51.7255 129.827 51.9559 130.757H52.0097C52.7241 136.902 51.7024 144.007 49.5593 147.963V148.04C49.5579 148.06 49.5579 148.081 49.5593 148.101C49.1326 148.822 48.5197 149.413 47.7849 149.814C46.1792 150.649 44.3994 151.094 42.5898 151.112C40.7801 151.131 38.9916 150.723 37.3689 149.922C36.6275 149.537 36.0018 148.962 35.5561 148.255V148.201L35.51 148.109C33.2824 144.199 32.1148 137.102 32.6909 130.964H32.6372Z" fill="#EBEBEB"/>
<path d="M37.5918 148.732C34.9033 146.528 34.6421 139.2 34.7189 134.906L35.8865 128.215C35.7252 128.277 35.5562 128.338 35.4026 128.407C33.7664 129.176 32.8523 130.051 32.6373 130.988H32.5835C32.0074 137.133 33.175 144.223 35.4026 148.133L35.4487 148.225V148.279C35.8944 148.986 36.52 149.561 37.2615 149.946C38.7863 150.695 40.4563 151.101 42.1547 151.137C43.853 151.173 45.5387 150.837 47.0937 150.153C45.5176 150.731 43.8216 150.904 42.1614 150.655C40.5012 150.407 38.93 149.746 37.5918 148.732Z" fill="#E0E0E0"/>
<path d="M35.3957 127.37C31.6241 129.621 31.6625 133.2 35.4802 135.366C39.2979 137.532 45.466 137.471 49.2146 135.22C52.9631 132.97 52.9478 129.39 49.1301 127.224C45.3124 125.058 39.1596 125.119 35.3957 127.37Z" fill="#FAFAFA"/>
<path d="M36.2098 128.223C32.8838 129.989 32.9145 132.831 36.2713 134.498C38.1822 135.334 40.2488 135.755 42.3344 135.732C44.42 135.71 46.4771 135.245 48.3695 134.368C51.6956 132.601 51.6649 129.759 48.3004 128.092C46.3908 127.256 44.3254 126.836 42.2411 126.858C40.1567 126.881 38.101 127.346 36.2098 128.223Z" fill="#E0E0E0"/>
<path d="M36.2626 132.017C35.6387 132.335 35.0747 132.759 34.5957 133.269C35.0824 133.775 35.6544 134.191 36.2856 134.498C38.1965 135.334 40.2632 135.755 42.3488 135.732C44.4344 135.71 46.4914 135.245 48.3839 134.368C49.0098 134.05 49.5742 133.623 50.0507 133.108C49.5636 132.605 48.9915 132.191 48.3608 131.887C46.4504 131.049 44.3836 130.627 42.2976 130.65C40.2117 130.672 38.1545 131.138 36.2626 132.017Z" fill="#BA68C8"/>
<path opacity="0.5" d="M36.2626 132.017C35.6387 132.335 35.0747 132.759 34.5957 133.269C35.0824 133.775 35.6544 134.191 36.2856 134.498C38.1965 135.334 40.2632 135.755 42.3488 135.732C44.4344 135.71 46.4914 135.245 48.3839 134.368C49.0098 134.05 49.5742 133.623 50.0507 133.108C49.5636 132.605 48.9915 132.191 48.3608 131.887C46.4504 131.049 44.3836 130.627 42.2976 130.65C40.2117 130.672 38.1545 131.138 36.2626 132.017Z" fill="black"/>
<path opacity="0.1" d="M43.369 157.995C43.3564 157.991 43.3431 157.991 43.3305 157.995L28.0829 149.545C28.3136 149.223 28.4493 148.842 28.4747 148.447C28.4785 148.413 28.4785 148.38 28.4747 148.347C28.4747 147.855 28.0983 147.317 27.2917 146.764C25.6249 145.612 21.7765 144.606 20.1403 145.551C19.8959 145.669 19.7006 145.868 19.5883 146.115C19.4761 146.362 19.4539 146.641 19.5258 146.903C19.7416 147.718 20.1805 148.458 20.7932 149.038L20.9546 149.199L21.1466 149.376C21.5823 149.793 22.0798 150.14 22.6214 150.405C22.775 150.482 22.9364 150.551 23.0977 150.613C23.3487 150.701 23.6053 150.773 23.8658 150.828C24.2765 150.901 24.693 150.937 25.1102 150.935C25.8152 150.938 26.507 150.744 27.1074 150.375L41.6253 159.131C42.0862 159.4 43.3766 158.724 43.3766 158.363V158.133L43.369 157.995Z" fill="black"/>
<path d="M25.103 150.26C26.9235 150.26 28.4137 149 28.4137 147.64L19.4648 146.196C19.7413 147.181 20.3155 148.055 21.1087 148.7C21.6319 149.22 22.2565 149.627 22.9437 149.895C23.6308 150.164 24.3659 150.288 25.103 150.26Z" fill="#EBEBEB"/>
<path opacity="0.15" d="M25.103 150.26C26.9235 150.26 28.4137 149 28.4137 147.64L19.4648 146.196C19.7413 147.181 20.3155 148.055 21.1087 148.7C21.6319 149.22 22.2565 149.627 22.9437 149.895C23.6308 150.164 24.3659 150.288 25.103 150.26Z" fill="black"/>
<path opacity="0.15" d="M27.9606 147.84C27.9606 148.823 26.8161 150.029 24.9956 150.022C24.1293 150.014 23.2737 149.829 22.4813 149.479C21.6888 149.129 20.9761 148.621 20.3867 147.986C20.5982 148.239 20.8266 148.478 21.0704 148.7C21.5955 149.216 22.221 149.619 22.9081 149.883C23.5952 150.147 24.3292 150.268 25.0647 150.237C26.8852 150.237 28.3754 148.977 28.3754 147.617L27.9145 147.541C27.9529 147.663 27.9606 147.756 27.9606 147.84Z" fill="black"/>
<path d="M27.2311 146.057C25.5643 144.913 21.7159 143.899 20.0797 144.844C18.4436 145.789 20.1873 148.009 22.1844 148.976C22.972 149.415 23.8564 149.65 24.7576 149.661C25.6589 149.671 26.5486 149.457 27.3464 149.038C28.6906 148.262 28.8903 147.202 27.2311 146.057Z" fill="#E6E6E6"/>
<path d="M21.8536 144.567C23.7352 144.617 25.5708 145.16 27.1768 146.142C27.9449 146.672 28.3367 147.202 28.3213 147.678C28.306 148.154 27.9449 148.562 27.2997 148.938C26.5836 149.337 25.7764 149.543 24.9569 149.537C24.0065 149.524 23.0715 149.296 22.2223 148.869C20.7475 148.154 19.5568 146.849 19.5261 145.896C19.5181 145.69 19.5706 145.487 19.6771 145.311C19.7836 145.135 19.9394 144.994 20.1253 144.905C20.6612 144.64 21.2561 144.515 21.8536 144.544M21.8536 144.444C21.2377 144.424 20.627 144.562 20.0792 144.844C18.4353 145.789 20.1867 148.008 22.1839 148.976C23.0449 149.41 23.9928 149.644 24.9569 149.66C25.7943 149.669 26.619 149.454 27.3458 149.038C28.69 148.27 28.8821 147.202 27.2306 146.057C25.6068 145.069 23.7536 144.521 21.8536 144.467V144.444Z" fill="#E0E0E0"/>
<path d="M26.2859 146.303C24.6574 145.212 21.2469 144.183 20.0793 144.99C18.9117 145.796 20.8474 147.832 22.6833 148.761C24.5192 149.691 26.0401 149.637 27.0003 148.984C27.9604 148.331 27.899 147.371 26.2859 146.303Z" fill="#F0F0F0"/>
<path d="M24.4579 145.904C23.3056 145.135 20.886 144.406 20.0564 144.974C19.2268 145.543 20.5864 146.994 21.9076 147.655C23.2288 148.315 24.2812 148.269 24.9802 147.809C25.6792 147.348 25.6024 146.664 24.4579 145.904Z" fill="#FAFAFA"/>
<path d="M43.2623 157.28L27.7996 148.731C27.4953 148.958 27.1653 149.149 26.8164 149.299V149.53L41.5878 158.456C42.0487 158.724 43.3392 158.049 43.3392 157.688V157.457C43.3459 157.423 43.3421 157.388 43.3284 157.357C43.3147 157.325 43.2916 157.299 43.2623 157.28Z" fill="#E0E0E0"/>
<path opacity="0.25" d="M43.2623 157.28L27.7996 148.731C27.4974 148.962 27.167 149.153 26.8164 149.299V149.53L41.5878 158.456C42.0487 158.724 43.3392 158.049 43.3392 157.688V157.457C43.3459 157.423 43.3421 157.388 43.3284 157.357C43.3147 157.325 43.2916 157.299 43.2623 157.28Z" fill="black"/>
<path d="M41.5873 158.233C42.1173 158.532 43.7611 157.588 43.2311 157.28L27.7684 148.731C27.4653 148.96 27.1351 149.151 26.7852 149.299L41.5873 158.233Z" fill="#F0F0F0"/>
<path d="M27.8906 148.968L41.7633 156.595C42.8233 157.179 43.4609 157.44 42.7926 157.824C42.1243 158.209 41.8171 158.078 41.8171 158.078C42.0896 158.056 42.3529 157.969 42.5852 157.824C42.9769 157.571 42.6313 157.233 41.8631 156.864C41.095 156.496 27.8906 148.968 27.8906 148.968Z" fill="#FAFAFA"/>
<path opacity="0.5" d="M45.8037 116.07C44.7129 112.46 40.6187 110.155 40.6187 110.155C40.6187 110.155 43.1305 113.428 43.023 116.247C42.9154 119.066 40.6648 121.04 39.7814 123.928C39.2507 125.545 39.2104 127.284 39.6656 128.924C40.1208 130.564 41.0511 132.033 42.3393 133.146C42.3393 133.146 40.6264 128.683 42.4853 125.357C43.5684 123.467 46.8944 119.688 45.8037 116.07ZM47.4782 117.046C47.7405 118.476 47.533 119.952 46.8867 121.255C45.9868 122.959 44.9051 124.561 43.6605 126.033C42.2318 127.876 42.4161 131.218 43.8295 133.192C43.9259 131.179 44.5484 129.227 45.6347 127.531C46.4719 126.279 48.8225 124.02 49.2219 121.493C49.3992 120.662 49.3285 119.798 49.0185 119.007C48.7084 118.216 48.1728 117.534 47.4782 117.046ZM41.0796 119.05C39.7 119.753 38.4953 120.756 37.5538 121.985C36.2556 123.844 36.7857 126.002 38.4218 128.345C37.5615 124.873 38.9518 121.693 41.0796 119.05Z" fill="white"/>
<path opacity="0.2" d="M222.102 155.952C215.366 152.065 204.435 152.065 197.714 155.952C190.992 159.839 190.985 166.145 197.714 170.032C204.443 173.919 215.381 173.919 222.102 170.032C228.824 166.145 228.793 159.839 222.102 155.952Z" fill="#BA68C8"/>
<path d="M221.586 154.629C215.11 150.889 204.625 150.889 198.15 154.629C194.916 156.496 193.303 158.939 193.303 161.389V162.08C193.303 164.531 194.916 166.981 198.15 168.848C204.625 172.581 215.11 172.581 221.586 168.848C224.82 166.981 226.433 164.531 226.433 162.08V161.397C226.44 158.946 224.82 156.496 221.586 154.629Z" fill="#F0F0F0"/>
<path opacity="0.1" d="M204.364 170.415V152.363C202.185 152.781 200.087 153.546 198.15 154.629C194.916 156.496 193.303 158.939 193.303 161.389V162.08C193.303 164.531 194.916 166.981 198.15 168.848C200.507 170.147 203.086 170.996 205.754 171.352C204.433 171.121 204.364 170.415 204.364 170.415Z" fill="black"/>
<path d="M221.587 154.629C215.111 150.889 204.626 150.889 198.151 154.629C191.675 158.37 191.683 164.416 198.151 168.156C204.618 171.897 215.111 171.89 221.587 168.156C228.062 164.423 228.054 158.363 221.587 154.629Z" fill="white"/>
<path d="M218.453 156.78C213.714 154.046 206.024 154.046 201.285 156.78C196.546 159.515 196.546 163.955 201.285 166.689C206.024 169.424 213.714 169.424 218.453 166.689C223.192 163.955 223.185 159.523 218.453 156.78Z" fill="#F0F0F0"/>
<path d="M217.385 157.901C213.237 155.505 206.5 155.505 202.352 157.901C198.204 160.298 198.196 164.185 202.352 166.581C206.508 168.978 213.237 168.978 217.385 166.581C221.533 164.185 221.54 160.267 217.385 157.901Z" fill="white"/>
<path d="M198.059 167.604C199.437 168.323 200.897 168.875 202.406 169.248C203.917 169.639 205.459 169.896 207.015 170.016C208.549 170.133 210.09 170.133 211.624 170.016C213.166 169.884 214.694 169.627 216.194 169.248C217.695 168.884 219.149 168.347 220.527 167.65C221.906 166.976 223.138 166.036 224.152 164.885C224.648 164.304 225.043 163.645 225.32 162.934C225.596 162.22 225.711 161.454 225.658 160.691C225.604 159.924 225.395 159.177 225.043 158.494C224.865 158.149 224.662 157.818 224.437 157.503C224.2 157.19 223.943 156.892 223.668 156.612C223.944 156.878 224.2 157.163 224.437 157.464C224.679 157.772 224.897 158.099 225.09 158.44C225.498 159.124 225.76 159.885 225.858 160.675C225.932 161.473 225.835 162.277 225.573 163.033C225.303 163.784 224.905 164.483 224.398 165.1C223.898 165.714 223.325 166.266 222.693 166.744C222.063 167.223 221.395 167.649 220.696 168.019C219.29 168.732 217.809 169.284 216.279 169.663C213.226 170.412 210.068 170.641 206.938 170.339C205.378 170.19 203.835 169.897 202.329 169.463C201.579 169.246 200.841 168.989 200.117 168.695C199.407 168.378 198.719 168.014 198.059 167.604Z" fill="white"/>
<path d="M215.832 158.055C213.983 157.119 211.94 156.632 209.868 156.632C207.795 156.632 205.752 157.119 203.903 158.055C200.608 159.96 200.608 163.048 203.903 164.968C205.751 165.907 207.795 166.397 209.868 166.397C211.941 166.397 213.984 165.907 215.832 164.968C219.128 163.048 219.128 159.96 215.832 158.055Z" fill="#F0F0F0"/>
<path opacity="0.1" d="M215.817 163.763L204.955 157.741L193.303 161.413C193.303 163.856 194.924 166.291 198.15 168.157C200.088 169.235 202.186 169.997 204.364 170.416L215.817 163.763Z" fill="black"/>
<path d="M220.119 160.566C220.902 160.611 221.685 160.499 222.424 160.236C223.453 159.859 224.344 158.761 225.158 156.871C225.842 155.274 226.933 151.779 226.165 149.958C225.181 147.654 222.408 147.585 220.565 147.531C220.35 147.531 220.135 147.531 219.927 147.531L219.827 149.72C220.05 149.72 220.396 149.797 220.634 149.804C221.663 149.804 223.952 150.189 224.198 150.78C225.059 152.201 222.869 157.655 221.894 158.246C220.721 158.496 219.51 158.496 218.337 158.246L217.615 160.075C218.419 160.367 219.264 160.533 220.119 160.566Z" fill="#E0E0E0"/>
<path d="M200.8 144.905C201.007 143.975 201.929 143.061 203.558 142.324C207.337 140.642 213.482 140.572 217.3 142.178C218.943 142.877 219.881 143.776 220.111 144.697H220.165C220.879 150.842 219.858 157.948 217.714 161.904C217.705 161.933 217.692 161.962 217.676 161.988V162.05C217.25 162.765 216.64 163.354 215.909 163.755C214.303 164.592 212.522 165.039 210.711 165.059C208.9 165.079 207.11 164.672 205.486 163.87C204.745 163.48 204.12 162.903 203.673 162.196V162.142L203.627 162.05C201.399 158.14 200.232 151.042 200.815 144.905H200.8Z" fill="#EBEBEB"/>
<path d="M205.755 162.672C203.059 160.467 202.798 153.139 202.875 148.845L204.042 142.155C203.881 142.216 203.712 142.278 203.558 142.347C201.93 143.115 201.008 143.998 200.801 144.928H200.747C200.163 151.073 201.331 158.163 203.558 162.073L203.604 162.165V162.219C204.052 162.926 204.677 163.503 205.417 163.893C206.943 164.641 208.613 165.046 210.311 165.08C212.01 165.115 213.695 164.778 215.249 164.093C213.675 164.673 211.98 164.847 210.32 164.598C208.661 164.35 207.091 163.687 205.755 162.672Z" fill="#E0E0E0"/>
<path d="M203.55 141.309C199.778 143.56 199.817 147.14 203.634 149.313C207.452 151.487 213.62 151.41 217.369 149.167C221.117 146.924 221.102 143.33 217.284 141.163C213.467 138.997 207.322 139.059 203.55 141.309Z" fill="#FAFAFA"/>
<path d="M204.38 142.162C201.054 143.929 201.084 146.771 204.441 148.438C206.352 149.275 208.418 149.697 210.504 149.676C212.589 149.654 214.646 149.191 216.539 148.315C219.866 146.541 219.835 143.706 216.478 142.032C214.567 141.196 212.5 140.775 210.415 140.798C208.329 140.82 206.272 141.285 204.38 142.162Z" fill="#E0E0E0"/>
<path d="M204.434 145.957C203.809 146.274 203.244 146.701 202.768 147.216C203.255 147.72 203.827 148.133 204.458 148.438C206.368 149.276 208.435 149.697 210.521 149.675C212.607 149.652 214.664 149.186 216.556 148.307C217.182 147.989 217.746 147.563 218.223 147.047C217.735 146.545 217.163 146.131 216.533 145.826C214.622 144.99 212.555 144.57 210.47 144.592C208.384 144.615 206.327 145.08 204.434 145.957Z" fill="#BA68C8"/>
<path opacity="0.5" d="M204.434 145.957C203.809 146.274 203.244 146.701 202.768 147.216C203.255 147.72 203.827 148.133 204.458 148.438C206.368 149.276 208.435 149.697 210.521 149.675C212.607 149.652 214.664 149.186 216.556 148.307C217.182 147.989 217.746 147.563 218.223 147.047C217.735 146.545 217.163 146.131 216.533 145.826C214.622 144.99 212.555 144.57 210.47 144.592C208.384 144.615 206.327 145.08 204.434 145.957Z" fill="black"/>
<path opacity="0.1" d="M211.524 171.936L196.269 163.486C196.5 163.163 196.638 162.783 196.669 162.388V162.28C196.669 161.788 196.292 161.251 195.486 160.698C193.819 159.553 189.97 158.539 188.334 159.484C188.091 159.603 187.896 159.803 187.784 160.05C187.672 160.296 187.649 160.574 187.72 160.836C187.939 161.65 188.377 162.389 188.987 162.971L189.148 163.133L189.341 163.317C189.778 163.731 190.275 164.078 190.815 164.346L191.292 164.546C191.542 164.637 191.799 164.709 192.06 164.761C192.47 164.834 192.887 164.87 193.304 164.869C194.007 164.871 194.696 164.676 195.294 164.308L209.811 173.065C210.272 173.334 211.563 172.658 211.563 172.297V172.066L211.524 171.936Z" fill="black"/>
<path d="M193.265 164.201C195.078 164.201 196.568 162.949 196.568 161.581L187.619 160.137C187.897 161.123 188.471 162 189.263 162.649C189.788 163.169 190.414 163.575 191.102 163.842C191.791 164.108 192.527 164.231 193.265 164.201Z" fill="#EBEBEB"/>
<path opacity="0.15" d="M193.265 164.201C195.078 164.201 196.568 162.949 196.568 161.581L187.619 160.137C187.897 161.123 188.471 162 189.263 162.649C189.788 163.169 190.414 163.575 191.102 163.842C191.791 164.108 192.527 164.231 193.265 164.201Z" fill="black"/>
<path opacity="0.15" d="M196.116 161.788C196.116 162.764 194.971 163.977 193.151 163.97C192.29 163.955 191.442 163.766 190.656 163.415C189.871 163.064 189.165 162.558 188.58 161.926C188.791 162.182 189.02 162.423 189.264 162.648C189.79 163.165 190.417 163.568 191.105 163.833C191.794 164.097 192.529 164.217 193.266 164.185C195.079 164.185 196.569 162.933 196.569 161.565L196.108 161.496C196.116 161.611 196.116 161.742 196.116 161.788Z" fill="black"/>
<path d="M195.385 160.006C193.719 158.854 189.87 157.84 188.234 158.785C186.598 159.729 188.342 161.957 190.339 162.917C191.126 163.357 192.01 163.593 192.911 163.605C193.812 163.617 194.702 163.405 195.501 162.986C196.845 162.21 197.045 161.143 195.385 160.006Z" fill="#E6E6E6"/>
<path d="M190.016 158.509C191.892 158.548 193.724 159.078 195.332 160.045C196.1 160.575 196.492 161.105 196.476 161.581C196.461 162.057 196.1 162.465 195.455 162.841C194.752 163.239 193.958 163.448 193.15 163.448C192.197 163.433 191.259 163.202 190.408 162.772C188.933 162.057 187.742 160.752 187.712 159.799C187.705 159.594 187.758 159.391 187.864 159.215C187.97 159.039 188.126 158.897 188.311 158.808C188.849 158.542 189.447 158.417 190.047 158.447M190.047 158.355C189.431 158.325 188.818 158.452 188.265 158.724C186.621 159.676 188.372 161.896 190.369 162.856C191.231 163.295 192.183 163.529 193.15 163.54C193.984 163.547 194.805 163.336 195.531 162.925C196.876 162.157 197.068 161.082 195.416 159.945C193.794 158.953 191.94 158.405 190.039 158.355H190.047Z" fill="#E0E0E0"/>
<path d="M194.448 160.245C192.812 159.162 189.401 158.132 188.234 158.931C187.066 159.73 189.002 161.781 190.838 162.71C192.673 163.64 194.194 163.578 195.155 162.925C196.115 162.273 196.061 161.32 194.448 160.245Z" fill="#F0F0F0"/>
<path d="M192.62 159.845C191.46 159.077 189.04 158.348 188.211 158.916C187.381 159.484 188.741 160.936 190.062 161.597C191.383 162.257 192.435 162.219 193.134 161.75C193.834 161.282 193.757 160.614 192.62 159.845Z" fill="#FAFAFA"/>
<path d="M211.425 171.221L195.985 162.672C195.682 162.903 195.352 163.097 195.002 163.248V163.471L209.812 172.404C210.273 172.665 211.563 171.989 211.563 171.636V171.406C211.568 171.363 211.556 171.32 211.53 171.286C211.505 171.252 211.467 171.229 211.425 171.221Z" fill="#E0E0E0"/>
<path opacity="0.25" d="M211.425 171.221L195.985 162.672C195.683 162.905 195.353 163.099 195.002 163.248V163.471L209.812 172.404C210.273 172.665 211.563 171.989 211.563 171.636V171.406C211.568 171.363 211.556 171.32 211.53 171.286C211.505 171.252 211.467 171.229 211.425 171.221Z" fill="black"/>
<path d="M209.812 172.174C210.342 172.481 211.993 171.529 211.463 171.221L195.985 162.672C195.684 162.905 195.353 163.099 195.002 163.248L209.812 172.174Z" fill="#F0F0F0"/>
<path d="M196.047 162.918L209.92 170.546C210.98 171.122 211.625 171.383 210.949 171.775C210.273 172.166 209.973 172.028 209.973 172.028C210.245 172.001 210.507 171.915 210.741 171.775C211.133 171.521 210.795 171.183 210.019 170.807C209.244 170.43 196.047 162.918 196.047 162.918Z" fill="#FAFAFA"/>
<path opacity="0.5" d="M213.96 130.019C212.869 126.401 208.775 124.104 208.775 124.104C208.775 124.104 211.287 127.369 211.179 130.188C211.072 133.007 208.821 134.981 207.938 137.869C207.407 139.487 207.367 141.225 207.822 142.865C208.277 144.505 209.207 145.974 210.496 147.087C210.496 147.087 208.79 142.624 210.642 139.306C211.725 137.408 215.058 133.629 213.96 130.019ZM215.634 130.994C215.897 132.422 215.689 133.896 215.043 135.196C214.146 136.902 213.064 138.504 211.817 139.974C210.388 141.817 210.58 145.166 211.986 147.133C212.084 145.123 212.706 143.174 213.791 141.479C214.628 140.227 216.979 137.961 217.386 135.434C217.555 134.607 217.479 133.749 217.168 132.965C216.857 132.18 216.324 131.504 215.634 131.017V130.994ZM209.244 132.991C207.861 133.693 206.654 134.696 205.71 135.926C204.412 137.785 204.942 139.951 206.578 142.286C205.718 138.783 207.116 135.626 209.244 132.991Z" fill="white"/>
<path opacity="0.2" d="M81.5307 183.25L56.5046 168.801C56.3699 168.752 56.2535 168.662 56.1713 168.545C56.089 168.427 56.0449 168.288 56.0449 168.144C56.0449 168.001 56.089 167.861 56.1713 167.743C56.2535 167.626 56.3699 167.536 56.5046 167.487L90.4642 147.915C90.8202 147.731 91.2154 147.634 91.6164 147.634C92.0174 147.634 92.4126 147.731 92.7686 147.915L117.787 162.372C117.925 162.417 118.046 162.505 118.131 162.623C118.217 162.741 118.262 162.883 118.262 163.028C118.262 163.174 118.217 163.316 118.131 163.434C118.046 163.552 117.925 163.64 117.787 163.685L83.8351 183.25C83.4791 183.434 83.0839 183.53 82.6829 183.53C82.2819 183.53 81.8867 183.434 81.5307 183.25Z" fill="#3252BB"/>
<path d="M60.0762 167.471L83.3893 180.782L114.668 162.831L91.3549 149.519L60.0762 167.471Z" fill="#3252BB"/>
<path opacity="0.5" d="M60.0762 167.471L83.3893 180.782L114.668 162.831L91.3549 149.519L60.0762 167.471Z" fill="black"/>
<path d="M83.6041 179.963L60.9592 166.958C61.4355 165.606 61.4048 166.682 60.8594 164.876L83.389 177.774C83.389 177.774 83.7347 176.26 83.6041 179.963Z" fill="white"/>
<path d="M82.4598 176.289C82.9694 176.618 83.3938 177.064 83.6982 177.588C84.0026 178.113 84.1784 178.702 84.2112 179.308V180.176C84.2112 181.29 83.4431 181.712 82.4598 181.182L60.0762 168.331V167.463L82.214 180.107C82.7978 180.445 83.2664 180.168 83.2664 179.508V178.886C83.2468 178.522 83.1412 178.168 82.9583 177.853C82.7753 177.538 82.5203 177.27 82.214 177.073L60.0915 164.422V163.431L82.4598 176.289Z" fill="#3252BB"/>
<path opacity="0.3" d="M82.4598 176.289C82.9694 176.618 83.3938 177.064 83.6982 177.588C84.0026 178.113 84.1784 178.702 84.2112 179.308V180.176C84.2112 181.29 83.4431 181.712 82.4598 181.182L60.0762 168.331V167.463L82.214 180.107C82.7978 180.445 83.2664 180.168 83.2664 179.508V178.886C83.2468 178.522 83.1412 178.168 82.9583 177.853C82.7753 177.538 82.5203 177.27 82.214 177.073L60.0915 164.422V163.431L82.4598 176.289Z" fill="black"/>
<path d="M60.0762 163.439L91.3549 145.495L113.731 158.338C114.243 158.667 114.669 159.113 114.975 159.64C115.281 160.166 115.458 160.757 115.49 161.365V162.241C115.511 162.457 115.475 162.676 115.385 162.874C115.294 163.073 115.153 163.244 114.975 163.37L83.6966 181.314C83.876 181.189 84.0185 181.018 84.1091 180.82C84.1997 180.621 84.235 180.402 84.2112 180.184V179.309C84.1776 178.702 84.0006 178.112 83.6948 177.588C83.389 177.063 82.9632 176.618 82.4522 176.29L60.0762 163.439Z" fill="#3252BB"/>
<path opacity="0.1" d="M60.0762 163.439L91.3549 145.495L113.731 158.338C114.243 158.667 114.669 159.113 114.975 159.64C115.281 160.166 115.458 160.757 115.49 161.365V162.241C115.511 162.457 115.475 162.676 115.385 162.874C115.294 163.073 115.153 163.244 114.975 163.37L83.6966 181.314C83.876 181.189 84.0185 181.018 84.1091 180.82C84.1997 180.621 84.235 180.402 84.2112 180.184V179.309C84.1776 178.702 84.0006 178.112 83.6948 177.588C83.389 177.063 82.9632 176.618 82.4522 176.29L60.0762 163.439Z" fill="black"/>
<path opacity="0.1" d="M83.7051 177.588C84.0198 178.108 84.1969 178.7 84.2197 179.308V180.176C84.2435 180.393 84.2082 180.613 84.1176 180.812C84.0271 181.01 83.8845 181.181 83.7051 181.306L114.984 163.362C115.161 163.236 115.303 163.065 115.393 162.866C115.483 162.668 115.52 162.449 115.498 162.233V161.357C115.477 160.749 115.299 160.156 114.984 159.636L83.7051 177.588Z" fill="black"/>
<path d="M60.0762 161.265L83.3893 174.577L114.668 156.633L91.3549 143.313L60.0762 161.265Z" fill="#3252BB"/>
<path d="M83.6042 173.754L60.9594 160.757C61.4433 159.398 61.4049 160.15 60.8672 158.345L83.3891 171.242C83.3891 171.242 83.7425 170.052 83.6042 173.754Z" fill="white"/>
<path d="M82.4598 169.76C82.9694 170.089 83.3938 170.534 83.6982 171.059C84.0026 171.583 84.1784 172.173 84.2112 172.779V173.985C84.2112 175.091 83.4431 175.521 82.4598 174.991L60.0762 162.14V161.264L82.2217 173.908C82.7978 174.246 83.2664 173.977 83.2664 173.309V172.364C83.2468 172 83.1412 171.646 82.9583 171.331C82.7753 171.016 82.5203 170.748 82.214 170.551L60.0762 157.9V156.909L82.4598 169.76Z" fill="#3252BB"/>
<path opacity="0.15" d="M82.4598 169.76C82.9694 170.089 83.3938 170.534 83.6982 171.059C84.0026 171.583 84.1784 172.173 84.2112 172.779V173.985C84.2112 175.091 83.4431 175.521 82.4598 174.991L60.0762 162.14V161.264L82.2217 173.908C82.7978 174.246 83.2664 173.977 83.2664 173.309V172.364C83.2468 172 83.1412 171.646 82.9583 171.331C82.7753 171.016 82.5203 170.748 82.214 170.551L60.0762 157.9V156.909L82.4598 169.76Z" fill="white"/>
<path d="M60.0762 156.91L91.3549 138.966L113.739 151.809C114.249 152.139 114.674 152.585 114.979 153.112C115.283 153.638 115.458 154.229 115.49 154.836V156.034C115.513 156.251 115.477 156.47 115.387 156.669C115.296 156.867 115.154 157.038 114.975 157.163L83.6966 175.115C83.8754 174.99 84.0175 174.819 84.108 174.62C84.1985 174.422 84.2341 174.202 84.2112 173.985V172.779C84.1776 172.173 84.0006 171.583 83.6948 171.058C83.389 170.534 82.9632 170.089 82.4522 169.761L60.0762 156.91Z" fill="#3252BB"/>
<path opacity="0.35" d="M60.0762 156.91L91.3549 138.966L113.739 151.809C114.249 152.139 114.674 152.585 114.979 153.112C115.283 153.638 115.458 154.229 115.49 154.836V156.034C115.513 156.251 115.477 156.47 115.387 156.669C115.296 156.867 115.154 157.038 114.975 157.163L83.6966 175.115C83.8754 174.99 84.0175 174.819 84.108 174.62C84.1985 174.422 84.2341 174.202 84.2112 173.985V172.779C84.1776 172.173 84.0006 171.583 83.6948 171.058C83.389 170.534 82.9632 170.089 82.4522 169.761L60.0762 156.91Z" fill="white"/>
<path d="M83.7051 171.058C84.0185 171.58 84.1955 172.171 84.2197 172.779V173.985C84.2427 174.202 84.207 174.421 84.1165 174.62C84.026 174.818 83.8839 174.989 83.7051 175.114L114.976 157.132C115.155 157.007 115.297 156.836 115.388 156.638C115.478 156.439 115.514 156.22 115.491 156.003V154.828C115.469 154.219 115.292 153.627 114.976 153.107L83.7051 171.058Z" fill="#3252BB"/>
<path opacity="0.25" d="M83.7051 171.058C84.0185 171.58 84.1955 172.171 84.2197 172.779V173.985C84.2427 174.202 84.207 174.421 84.1165 174.62C84.026 174.818 83.8839 174.989 83.7051 175.114L114.976 157.132C115.155 157.007 115.297 156.836 115.388 156.638C115.478 156.439 115.514 156.22 115.491 156.003V154.828C115.469 154.219 115.292 153.627 114.976 153.107L83.7051 171.058Z" fill="white"/>
<path d="M163.723 39.2852C163.732 44.6642 161.691 49.8445 158.016 53.7723L156.257 55.4469C152.21 58.9148 147.005 60.7295 141.679 60.5288C136.353 60.3281 131.299 58.1268 127.525 54.3641C123.75 50.6015 121.534 45.554 121.316 40.229C121.099 34.9039 122.898 29.6928 126.353 25.6353L128.028 23.8762C131.039 21.0461 134.811 19.1583 138.881 18.445C142.951 17.7317 147.141 18.2242 150.934 19.8618C154.728 21.4995 157.96 24.2107 160.232 27.6618C162.505 31.1129 163.718 35.1532 163.723 39.2852Z" fill="white"/>
<path d="M142.514 16.3263C136.742 16.3257 131.181 18.4965 126.935 22.4074C122.69 26.3183 120.071 31.6832 119.599 37.4362C119.126 43.1892 120.836 48.9093 124.387 53.4601C127.938 58.0109 133.071 61.0594 138.766 62L141.355 68.6521C141.453 68.9023 141.624 69.1171 141.846 69.2685C142.068 69.4199 142.33 69.5009 142.599 69.5009C142.868 69.5009 143.13 69.4199 143.352 69.2685C143.574 69.1171 143.745 68.9023 143.843 68.6521L146.417 61.9846C152.105 61.0216 157.224 57.9547 160.757 53.3929C164.289 48.831 165.977 43.1077 165.486 37.3589C164.995 31.6102 162.36 26.2563 158.104 22.36C153.849 18.4638 148.284 16.31 142.514 16.3263ZM163.723 39.286C163.731 44.6651 161.691 49.8454 158.016 53.7732L156.256 55.4477C152.21 58.9157 147.004 60.7304 141.678 60.5297C136.353 60.329 131.298 58.1277 127.524 54.365C123.75 50.6023 121.533 45.5549 121.316 40.2299C121.099 34.9048 122.897 29.6936 126.353 25.6361L128.027 23.8771C131.038 21.047 134.81 19.1591 138.88 18.4459C142.95 17.7326 147.14 18.2251 150.934 19.8627C154.727 21.5003 157.959 24.2116 160.232 27.6627C162.504 31.1138 163.718 35.154 163.723 39.286Z" fill="#B1B1B1"/>
<path opacity="0.1" d="M142.514 16.3263C136.742 16.3257 131.181 18.4965 126.935 22.4074C122.69 26.3183 120.071 31.6832 119.599 37.4362C119.126 43.1892 120.836 48.9093 124.387 53.4601C127.938 58.0109 133.071 61.0594 138.766 62L141.355 68.6521C141.453 68.9023 141.624 69.1171 141.846 69.2685C142.068 69.4199 142.33 69.5009 142.599 69.5009C142.868 69.5009 143.13 69.4199 143.352 69.2685C143.574 69.1171 143.745 68.9023 143.843 68.6521L146.417 61.9846C152.105 61.0216 157.224 57.9547 160.757 53.3929C164.289 48.831 165.977 43.1077 165.486 37.3589C164.995 31.6102 162.36 26.2563 158.104 22.36C153.849 18.4638 148.284 16.31 142.514 16.3263ZM163.723 39.286C163.731 44.6651 161.691 49.8454 158.016 53.7732L156.256 55.4477C152.21 58.9157 147.004 60.7304 141.678 60.5297C136.353 60.329 131.298 58.1277 127.524 54.365C123.75 50.6023 121.533 45.5549 121.316 40.2299C121.099 34.9048 122.897 29.6936 126.353 25.6361L128.027 23.8771C131.038 21.047 134.81 19.1591 138.88 18.4459C142.95 17.7326 147.14 18.2251 150.934 19.8627C154.727 21.5003 157.959 24.2116 160.232 27.6627C162.504 31.1138 163.718 35.154 163.723 39.286Z" fill="black"/>
<path opacity="0.7" d="M163.723 39.2852C163.732 44.6642 161.691 49.8445 158.016 53.7723L156.257 55.4469C152.21 58.9148 147.005 60.7295 141.679 60.5288C136.353 60.3281 131.299 58.1268 127.525 54.3641C123.75 50.6015 121.534 45.554 121.316 40.229C121.099 34.9039 122.898 29.6928 126.353 25.6353L128.028 23.8762C131.039 21.0461 134.811 19.1583 138.881 18.445C142.951 17.7317 147.141 18.2242 150.934 19.8618C154.728 21.4995 157.96 24.2107 160.232 27.6618C162.505 31.1129 163.718 35.1532 163.723 39.2852Z" fill="white"/>
<path d="M131.145 36.3901C130.564 36.3886 129.996 36.5594 129.513 36.8809C129.029 37.2024 128.652 37.6602 128.429 38.1962C128.205 38.7323 128.146 39.3225 128.259 39.8922C128.371 40.4619 128.65 40.9854 129.06 41.3966C129.47 41.8077 129.993 42.088 130.562 42.2018C131.132 42.3156 131.722 42.258 132.259 42.0361C132.795 41.8143 133.254 41.4382 133.577 40.9555C133.899 40.4727 134.072 39.9051 134.072 39.3245C134.072 38.5476 133.764 37.8024 133.215 37.2523C132.666 36.7022 131.922 36.3922 131.145 36.3901ZM153.959 36.3901C153.379 36.3901 152.811 36.5622 152.329 36.8847C151.846 37.2071 151.47 37.6654 151.248 38.2015C151.026 38.7377 150.968 39.3277 151.081 39.8969C151.194 40.4661 151.474 40.9889 151.884 41.3993C152.294 41.8097 152.817 42.0892 153.386 42.2024C153.956 42.3156 154.546 42.2575 155.082 42.0354C155.618 41.8133 156.076 41.4372 156.399 40.9547C156.721 40.4721 156.893 39.9048 156.893 39.3245C156.894 38.9388 156.819 38.5568 156.672 38.2003C156.525 37.8439 156.309 37.52 156.036 37.2473C155.763 36.9746 155.44 36.7586 155.083 36.6114C154.727 36.4643 154.345 36.3891 153.959 36.3901ZM142.552 36.3901C141.972 36.3901 141.404 36.5622 140.922 36.8847C140.439 37.2071 140.063 37.6654 139.841 38.2015C139.619 38.7377 139.561 39.3277 139.674 39.8969C139.787 40.4661 140.067 40.9889 140.477 41.3993C140.888 41.8097 141.41 42.0892 141.98 42.2024C142.549 42.3156 143.139 42.2575 143.675 42.0354C144.211 41.8133 144.669 41.4372 144.992 40.9547C145.314 40.4721 145.486 39.9048 145.486 39.3245C145.486 38.5462 145.177 37.7999 144.627 37.2496C144.077 36.6993 143.33 36.3901 142.552 36.3901Z" fill="#3252BB"/>
</svg>
