<svg width="302" height="292" viewBox="0 0 302 292" fill="none" xmlns="http://www.w3.org/2000/svg">
<path d="M110.345 30.363L113.403 31.1039L122.308 23.4248L123.784 17.3623C123.784 17.3623 128.573 18.2178 126.087 26.0653C123.602 33.9129 124.693 32.0268 124.693 32.0268C124.693 32.0268 134.71 34.4518 135.316 35.5295C135.774 36.3042 133.639 46.3073 132.433 51.7501C131.827 54.4849 129.55 56.6068 126.869 56.6405C126.493 56.647 126.117 56.6086 125.751 56.5259C123.252 55.9197 110.972 50.7935 110.972 50.7935L105.697 49.5204L110.345 30.363Z" fill="#B1B1B1" fill-opacity="0.3"/>
<path d="M102.011 26.5776L98.832 47.9176L104.059 49.184L109.017 28.713L102.011 26.5776Z" fill="#B1B1B1" fill-opacity="0.3"/>
<path d="M147.588 12.3173L149.609 11.6437L151.892 4.09925L150.545 0.124955C150.545 0.124955 153.563 -1.11449 154.977 4.21376C156.392 9.54201 156.325 8.08702 156.325 8.08702C156.325 8.08702 162.872 5.88431 163.613 6.26827C164.145 6.54445 166.543 13.0044 167.81 16.4869C168.14 17.3228 168.182 18.2448 167.929 19.1073C167.677 19.9698 167.144 20.7235 166.415 21.2493C166.206 21.3899 165.98 21.503 165.742 21.5861C164.105 22.1385 155.321 23.6541 155.321 23.6541L151.852 24.8329L147.588 12.3173Z" fill="#B1B1B1" fill-opacity="0.3"/>
<path d="M141.506 13.173L147.38 26.3892L150.795 25.2239L146.241 11.8662L141.506 13.173Z" fill="#B1B1B1" fill-opacity="0.3"/>
<path d="M211.737 251.26L200.689 282.946H206.213L225.546 251.26H211.737Z" fill="#EBEBEB"/>
<path d="M241.746 122.708L239.105 160.349L263.443 161.488L266.845 122.486L241.746 122.708Z" fill="#FAFAFA"/>
<path d="M60.2748 14.9575H18.0059V59.0183H60.2748V14.9575Z" fill="#FAFAFA"/>
<path d="M301.999 284.281C301.999 284.382 236.457 284.456 155.624 284.456C74.7911 284.456 9.24219 284.382 9.24219 284.281C9.24219 284.18 74.7641 284.105 155.624 284.105C236.484 284.105 301.999 284.173 301.999 284.281Z" fill="#263238"/>
<path d="M53.4718 144.735C43.8594 130.031 45.2605 109.034 56.7388 95.7438C60.3022 91.6146 65.2802 88.031 70.7095 88.4958C76.2735 88.9673 80.753 93.7365 82.4438 99.058C84.1345 104.38 83.5485 110.139 82.5583 115.629C81.1639 123.321 78.8332 131.189 73.4982 136.901C68.1632 142.614 60.3292 148.487 53.4718 144.735Z" fill="#B1B1B1"/>
<path d="M58.7874 215.464C55.1634 207.017 57.7905 196.327 64.9105 190.541C67.12 188.736 70.0098 187.341 72.7648 188.069C75.5199 188.796 77.4801 191.686 77.8506 194.576C78.2211 197.466 77.4195 200.389 76.4091 203.124C74.9945 206.964 73.0814 210.803 69.8144 213.262C66.5474 215.72 61.9803 218.038 58.7874 215.485" fill="#B1B1B1"/>
<path d="M35.6214 210.446C38.2687 197.411 31.3979 183.037 19.603 176.9C15.9385 174.994 11.4321 173.869 7.74071 175.714C4.04933 177.56 2.14976 182.215 2.44614 186.432C2.74253 190.648 4.77683 194.515 7.01321 198.119C10.1455 203.144 13.9851 208.021 19.3403 210.547C24.6955 213.073 31.8492 214.999 35.6214 210.446Z" fill="#B1B1B1"/>
<path d="M37.2782 175.209C41.879 160.356 34.0718 142.358 21.0712 133.836C17.0295 131.196 11.9236 129.35 7.41713 131.068C2.80291 132.826 0.148886 137.979 0.00742786 142.917C-0.13403 147.854 1.76555 152.617 3.94804 157.062C7.00623 163.266 10.8997 169.396 16.8342 172.96C22.7687 176.523 32.3609 180.08 37.285 175.223" fill="#B1B1B1"/>
<path d="M46.514 247.797C46.442 247.562 46.3924 247.321 46.3658 247.077C46.285 246.538 46.1839 245.851 46.056 245.002C45.9953 244.551 45.928 244.045 45.8471 243.507C45.7663 242.968 45.6316 242.368 45.5103 241.742C45.2678 240.475 45.0186 239.047 44.601 237.458C44.4124 236.669 44.2103 235.841 44.0015 234.985C43.7926 234.13 43.4962 233.248 43.2268 232.331C42.7351 230.492 42.0008 228.586 41.3138 226.552C39.6688 222.2 37.7543 217.955 35.5813 213.841C33.3581 209.757 30.8834 205.816 28.1716 202.039C26.8244 200.342 25.6726 198.671 24.4129 197.25L22.6211 195.121L20.8899 193.235C19.8054 192.023 18.7411 191.012 17.8183 190.116L16.5384 188.857L15.4135 187.846L13.8507 186.499C13.6551 186.348 13.4806 186.171 13.332 185.974C13.5424 186.096 13.7409 186.238 13.9248 186.398L15.5617 187.745L16.7607 188.655L18.1079 189.881C19.0577 190.756 20.1287 191.753 21.2537 192.952L23.0253 194.798L24.844 196.9C26.1306 198.328 27.3364 199.985 28.6701 201.682C31.4347 205.462 33.946 209.42 36.1876 213.531C38.3707 217.668 40.2811 221.943 41.9065 226.33C42.5801 228.35 43.3009 230.297 43.7724 232.163C44.0351 233.079 44.2844 233.975 44.5201 234.857C44.7559 235.74 44.9041 236.562 45.086 237.357C45.4699 238.946 45.6922 240.401 45.901 241.681C46.0088 242.314 46.1031 242.914 46.1907 243.466C46.2783 244.019 46.2985 244.51 46.3456 244.975C46.4264 245.824 46.4871 246.518 46.541 247.063C46.563 247.308 46.554 247.555 46.514 247.797Z" fill="#263238"/>
<path d="M46.1756 250.452C46.1578 250.354 46.1578 250.253 46.1756 250.155C46.1756 249.92 46.2161 249.643 46.2363 249.293C46.3171 248.485 46.4181 247.387 46.5461 245.992C46.6135 245.272 46.6943 244.477 46.7819 243.615C46.8695 242.752 46.8695 241.789 46.9233 240.772C46.9974 238.751 47.1928 236.414 47.1187 233.84C47.1187 232.556 47.1187 231.209 47.1187 229.799C47.1187 228.398 46.9772 226.943 46.9031 225.441C46.8021 222.416 46.3912 219.216 46.0274 215.835C45.0375 208.537 43.5156 201.322 41.4739 194.246C39.3232 187.211 36.6575 180.344 33.4983 173.701C31.9625 170.669 30.5614 167.759 28.9986 165.173C28.2374 163.866 27.5571 162.579 26.8026 161.394C26.0482 160.208 25.3207 159.083 24.6201 158.026C23.2729 155.83 21.8516 153.984 20.6795 152.32C20.08 151.499 19.5411 150.71 19.009 150.017L17.5136 148.104L15.4927 145.503L14.9741 144.83C14.8596 144.675 14.7989 144.587 14.8124 144.581C14.8259 144.574 14.8865 144.641 15.0212 144.789L15.5938 145.463L17.7359 147.989L19.2784 149.828C19.8241 150.502 20.3764 151.29 20.9961 152.105C22.2019 153.762 23.6569 155.587 25.0378 157.77C25.7518 158.848 26.4928 159.979 27.2607 161.138C28.0286 162.296 28.7224 163.61 29.4971 164.91C31.0868 167.497 32.5148 170.413 34.0709 173.445C37.2675 180.121 39.9539 187.029 42.107 194.111C44.1611 201.219 45.6744 208.472 46.6337 215.808C46.9772 219.176 47.3747 222.416 47.4488 225.447C47.5094 226.963 47.6306 228.425 47.6306 229.833C47.6306 231.24 47.6306 232.588 47.6306 233.874C47.6778 236.447 47.4488 238.778 47.341 240.819C47.2669 241.843 47.2265 242.793 47.1456 243.668C47.0648 244.544 46.9436 245.326 46.856 246.046C46.6741 247.434 46.5327 248.532 46.4316 249.334C46.3845 249.677 46.344 249.96 46.3104 250.189C46.28 250.283 46.2345 250.372 46.1756 250.452Z" fill="#263238"/>
<path d="M71.1945 106.252C71.1945 106.252 71.1608 106.353 71.0733 106.528C70.9857 106.703 70.824 106.986 70.6556 107.296L69.0187 110.233C68.6617 110.866 68.2374 111.58 67.8332 112.348L66.5466 114.935C66.0975 115.864 65.6035 116.852 65.0647 117.899C64.5662 118.963 64.0879 120.115 63.5558 121.3C63.0236 122.486 62.4645 123.739 61.9324 125.059L60.3359 129.195C60.0597 129.909 59.7836 130.637 59.5006 131.378L58.726 133.668C58.2006 135.21 57.6684 136.807 57.1161 138.437C55.0952 145.025 53.1485 152.361 51.5184 160.147C49.8882 167.934 48.8239 175.459 48.0156 182.309C47.342 189.167 46.7964 195.364 46.6684 200.577C46.5337 203.184 46.5067 205.542 46.5 207.617C46.4933 209.691 46.4596 211.476 46.5 212.931C46.5404 214.386 46.5404 215.478 46.5471 216.3V217.175C46.5633 217.276 46.5633 217.378 46.5471 217.478C46.5252 217.381 46.5117 217.282 46.5067 217.182C46.5067 216.946 46.5067 216.663 46.4461 216.306C46.4461 215.491 46.3518 214.366 46.2844 212.938C46.2171 211.51 46.1699 209.691 46.1699 207.617C46.1699 205.542 46.1699 203.178 46.244 200.564C46.3316 195.337 46.8031 189.113 47.47 182.242C48.2581 175.378 49.3561 167.847 50.9323 160.013C52.5086 152.179 54.5227 144.85 56.5974 138.255L58.2343 133.473C58.5037 132.705 58.7664 131.937 59.0224 131.189C59.2784 130.441 59.6017 129.721 59.8846 129.006C60.4504 127.572 60.9893 126.191 61.5147 124.864C62.0402 123.537 62.6531 122.311 63.1853 121.112C63.7174 119.913 64.2226 118.781 64.7346 117.744C65.2465 116.706 65.7854 115.723 66.2637 114.787L67.6109 112.22C68.0353 111.439 68.4731 110.752 68.8436 110.125L70.5883 107.242L71.0598 106.508C71.0931 106.417 71.1384 106.331 71.1945 106.252Z" fill="#263238"/>
<path d="M67.9536 196.448C67.6644 197.072 67.3242 197.672 66.9364 198.24C66.2628 199.365 65.2659 201.022 64.1342 203.104C63.0025 205.185 61.7564 207.711 60.4967 210.574C59.157 213.691 57.9767 216.875 56.9603 220.112C55.9692 223.358 55.1418 226.652 54.4814 229.981C53.9021 233.052 53.4979 235.848 53.2689 238.199C53.0399 240.549 52.8917 242.469 52.8378 243.796C52.8385 244.485 52.7822 245.172 52.6694 245.851C52.5918 245.167 52.567 244.477 52.5953 243.79C52.5953 242.442 52.6424 240.529 52.831 238.158C53.0505 235.38 53.4102 232.615 53.9088 229.873C54.5332 226.514 55.3451 223.192 56.3405 219.924C57.3645 216.664 58.5676 213.464 59.9444 210.338C61.0784 207.793 62.3396 205.306 63.7233 202.888C64.9156 200.827 65.9395 199.197 66.7074 198.105C67.0769 197.52 67.4937 196.966 67.9536 196.448Z" fill="#263238"/>
<path d="M27.6387 241.163H69.8538L64.7478 284.28H32.8996L27.6387 241.163Z" fill="#263238"/>
<path d="M29.1816 279.625L32.7652 284.28H64.7482L68.4396 279.78L29.1816 279.625Z" fill="#263238"/>
<path d="M68.21 253.86C68.21 254.035 59.453 254.177 48.6753 254.177C37.8975 254.177 29.1406 254.035 29.1406 253.86C29.1406 253.685 37.8975 253.543 48.709 253.543C59.5204 253.543 68.21 253.671 68.21 253.86Z" fill="#FAFAFA"/>
<path d="M68.21 256.716C68.21 256.891 59.453 257.033 48.6753 257.033C37.8975 257.033 29.1406 256.891 29.1406 256.716C29.1406 256.541 37.8975 256.399 48.709 256.399C59.5204 256.399 68.21 256.554 68.21 256.716Z" fill="#FAFAFA"/>
<path d="M67.685 259.498C67.685 259.673 59.2312 259.808 48.8239 259.808C38.4167 259.808 29.9629 259.673 29.9629 259.498C29.9629 259.323 38.4167 259.182 48.8239 259.182C59.2312 259.182 67.685 259.323 67.685 259.498Z" fill="#FAFAFA"/>
<path d="M200 78.6665L206.981 66.3596C202.652 59.3493 201.101 50.9734 202.634 42.8781C204.168 34.7829 208.673 27.5539 215.266 22.612C221.858 17.6701 230.061 15.3728 238.261 16.1717C246.461 16.9706 254.066 20.8078 259.581 26.9292C265.096 33.0505 268.122 41.0133 268.063 49.2522C268.005 57.4912 264.868 65.4104 259.267 71.4533C253.666 77.4962 246.008 81.2258 237.797 81.9088C229.586 82.5919 221.417 80.179 214.895 75.1446L200 78.6665Z" fill="#FAFAFA"/>
<path d="M200 78.6667L214.871 75.0657L214.816 75.224L214.341 74.6066L214.958 75.0815C217.045 76.6794 219.31 78.0287 221.709 79.102C224.564 80.3607 227.583 81.2081 230.676 81.6188C232.388 81.8533 234.118 81.9354 235.844 81.8642C236.731 81.8088 237.641 81.785 238.551 81.7059L241.305 81.2785C249.5 79.648 256.769 74.9627 261.637 68.1722C264.34 64.4155 266.21 60.1254 267.122 55.5883C268.057 50.7928 267.922 45.8501 266.726 41.1128C265.503 36.1588 263.115 31.568 259.762 27.7216L258.432 26.2654C257.997 25.7668 257.474 25.3632 257 24.912C256.532 24.4594 256.04 24.0314 255.528 23.6299L253.945 22.4586C253.441 22.0683 252.912 21.7114 252.362 21.3901L250.708 20.385L248.951 19.5381C248.385 19.2421 247.804 18.9779 247.209 18.7467C242.577 16.9139 237.592 16.1458 232.623 16.499C227.923 16.818 223.351 18.1691 219.232 20.4562C215.393 22.5798 212.018 25.4513 209.307 28.9009C206.822 32.0509 204.929 35.6253 203.72 39.4508C202.703 42.895 202.215 46.4734 202.271 50.064C202.355 53.1845 202.888 56.2766 203.854 59.2448C204.654 61.7164 205.74 64.0858 207.091 66.3044V66.3519V66.4073L200.024 78.6588L206.925 66.3044V66.4073C205.548 64.1706 204.437 61.7799 203.617 59.2843C202.649 56.2948 202.116 53.1816 202.034 50.0403C201.962 46.4166 202.442 42.8032 203.459 39.3242C206.017 31.15 211.611 24.2672 219.09 20.0922C223.259 17.7771 227.888 16.4098 232.647 16.0875C237.675 15.7238 242.72 16.4974 247.407 18.351C248.012 18.5757 248.602 18.84 249.172 19.1424L250.921 19.9893L252.591 21.0023C253.159 21.3407 253.703 21.7161 254.222 22.1262L255.805 23.3054C256.323 23.715 256.819 24.1508 257.292 24.6113C257.798 25.0403 258.281 25.4946 258.741 25.9726L260.086 27.4526C263.486 31.3416 265.907 35.9873 267.146 41.002C268.359 45.7962 268.491 50.8 267.534 55.6516C266.617 60.2382 264.728 64.575 261.994 68.3701C257.063 75.2307 249.706 79.9565 241.416 81.5872L238.63 82.0066C237.712 82.0858 236.794 82.1016 235.9 82.157C234.157 82.2233 232.412 82.1359 230.684 81.8958C227.568 81.4656 224.527 80.597 221.654 79.3157C219.244 78.2235 216.97 76.8529 214.879 75.2319L215.029 75.0894L215.124 75.2161H214.974L200 78.6667Z" fill="#263238"/>
<path d="M187.035 91.7425C185.263 96.1547 185.317 105.275 188.261 109C189.796 110.947 191.885 112.503 192.976 114.733C194.404 117.656 193.791 121.294 191.999 124.008C190.207 126.723 187.385 128.623 184.414 129.956C181.107 131.452 177.059 132.274 173.973 130.361C171.616 128.906 170.37 126.177 169.615 123.51C167.5 116.046 168.268 108.017 170.464 100.553C172.66 93.0897 176.237 86.1314 179.773 79.2471" fill="#263238"/>
<path d="M196.856 153.6L212.645 143.961C212.645 143.961 200.655 120.863 198.85 120.028C197.045 119.192 172.842 115.629 172.842 115.629C165.479 127.202 156.264 124.345 146.975 116.626C146.147 116.794 131.529 120.122 127.71 120.62C123.891 121.119 112.891 138.646 112.891 138.646L125.366 160.464L126.309 183.071C126.309 183.071 126.983 199.15 124.349 207.449L190.551 209.597C189.827 206.15 189.319 202.661 189.029 199.15C188.779 196.341 188.018 193.539 188.591 189.928C190.403 178.463 196.856 153.6 196.856 153.6Z" fill="#2E4892"/>
<path d="M120.645 127.45C121.641 130.778 130.075 135.709 133.039 133.863C133.975 133.277 134.784 132.401 135.868 132.193C137.215 131.923 138.515 132.785 139.829 133.223C142.914 134.24 146.868 133.102 149.091 135.466C150.189 136.632 150.883 138.612 152.459 138.565C153.026 138.471 153.581 138.317 154.116 138.107C155.901 137.662 157.632 139.03 159.471 139.158C160.435 139.167 161.393 139.005 162.301 138.679L175.503 134.813C176.46 134.53 177.524 134.139 177.935 133.237C176.353 133.734 174.647 133.662 173.112 133.035C172.295 132.584 171.436 132.216 170.545 131.937C168.215 131.458 166.093 133.284 163.776 133.856C161.337 134.429 158.825 133.52 156.487 132.617L144.517 128.016C141.217 126.75 137.835 125.43 135.215 123.065C134.379 122.318 131.247 123.894 130.27 123.355C129.134 122.587 128.05 121.745 127.024 120.836C126.822 120.687 125.003 122.324 124.201 123.186C123.4 124.049 120.645 127.45 120.645 127.45Z" fill="#FAFAFA"/>
<path d="M126.343 183.07C129.28 181.831 134.319 179.877 137.451 179.291C139.758 178.789 142.132 178.67 144.477 178.941C145.642 179.11 146.848 179.426 147.98 179.089C149.111 178.752 149.872 177.931 150.869 177.439C153.732 176.031 157.154 177.783 160.3 177.372C161.095 177.318 161.842 176.97 162.395 176.395C162.655 176.099 162.796 175.717 162.788 175.323C162.781 174.929 162.626 174.552 162.354 174.266C161.982 174.004 161.537 173.863 161.081 173.862C159.573 173.759 158.06 173.777 156.555 173.916L154.123 174.071C153.114 174.192 152.092 174.146 151.098 173.936C150.149 173.595 149.228 173.181 148.343 172.697C145.097 171.269 141.372 171.909 137.862 172.4C136.122 172.741 134.334 172.76 132.588 172.454C132.007 172.263 131.401 172.158 130.789 172.144C129.758 172.205 128.89 172.966 127.872 173.135C126.855 173.303 126.795 171.356 125.852 171.114L126.343 183.07Z" fill="#FAFAFA"/>
<path d="M190.76 152.778C190.4 153.013 190.001 153.184 189.582 153.283C187.675 153.546 186.503 150.191 184.678 150.804C184.004 151.04 183.512 151.855 182.765 151.943C182.017 152.03 181.33 151.188 180.562 150.845C179.215 150.238 177.692 151.33 176.197 151.451C174.513 151.579 172.546 150.528 171.286 151.66C170.795 152.098 170.512 152.832 169.872 153.007C169.232 153.182 168.686 152.744 168.087 152.562C166.255 152.017 164.577 153.782 162.698 154.105C160.556 154.475 157.983 153.027 156.373 154.462C155.793 154.967 155.443 155.809 154.702 156.005C153.961 156.2 153.301 155.776 152.587 155.769C150.943 155.769 149.435 157.938 148.047 157.049C148.164 157.432 148.396 157.77 148.712 158.017C149.027 158.264 149.411 158.408 149.812 158.43C150.61 158.463 151.409 158.395 152.19 158.227C156.844 157.655 161.573 160.686 166.086 159.413C167.332 159.063 168.498 158.389 169.784 158.295C172.196 158.12 174.378 159.992 176.79 159.905C178.669 159.831 180.414 158.558 182.286 158.787C184.159 159.016 185.601 160.693 187.352 161.521C189.447 162.518 191.899 162.229 194.203 161.919L194.876 161.764C195.96 158.8 196.735 155.733 197.187 152.61C196.174 152.144 195.068 151.916 193.954 151.945C192.84 151.975 191.747 152.26 190.76 152.778Z" fill="#FAFAFA"/>
<path d="M185.337 193.094C184.421 193.193 183.551 193.545 182.824 194.111C182.098 194.68 181.201 194.989 180.278 194.987C178.621 194.811 177.139 192.777 175.691 193.599C175.328 193.877 174.988 194.183 174.674 194.515C173.663 195.344 172.053 195.115 171.09 195.997C170.592 196.448 170.322 197.162 169.709 197.452C168.557 197.991 167.466 196.657 166.301 196.138C164.482 195.323 162.414 196.59 160.42 196.549C159.41 196.549 158.339 196.179 157.422 196.597C156.95 196.88 156.499 197.2 156.075 197.553C154.553 198.57 152.505 198.099 150.801 197.418C149.097 196.738 147.318 195.882 145.52 196.239C145.021 196.341 144.456 196.65 144.469 197.162C144.483 197.36 144.553 197.549 144.671 197.708C145.735 199.459 147.77 200.362 149.743 200.935C151.906 201.561 154.189 201.925 156.116 203.097C157.335 203.831 158.615 204.929 159.989 204.552C161.08 204.255 161.747 203.124 162.798 202.72C164.28 202.147 166.038 203.184 167.513 202.571C168.005 202.369 168.416 201.992 168.914 201.81C170.214 201.339 171.663 202.289 173.01 201.985C173.469 201.803 173.948 201.676 174.438 201.608C175.724 201.608 176.56 203.38 177.806 203.211C178.587 203.104 179.119 202.275 179.901 202.134C180.931 201.938 182.097 202.982 182.932 202.349C183.121 202.208 183.269 201.979 183.511 201.958C183.754 201.938 184.044 202.289 184.239 202.558C185.148 203.757 187.924 202.982 189.325 202.437L188.415 194.353C188.462 193.33 186.26 193.094 185.337 193.094Z" fill="#FAFAFA"/>
<g opacity="0.3">
<path d="M128.58 127.733C127.327 131.694 126.835 136.032 128.081 139.993C128.744 141.799 129.516 143.562 130.392 145.274C133.123 151.275 134.282 157.873 133.76 164.445C133.71 164.672 133.738 164.91 133.841 165.119C134.103 165.557 134.77 165.395 135.235 165.186L138.219 163.839C139.512 164.89 139.708 166.971 141.136 167.82C142.564 168.669 144.551 167.719 145.979 166.682C149.111 164.385 152.082 161.717 153.901 158.282C155.052 155.875 155.905 153.337 156.44 150.724C156.999 148.44 157.565 146.157 157.915 143.833C159.281 134.618 157.282 125.22 152.284 117.36" fill="black"/>
</g>
<path d="M191.838 131.263C191.902 131.372 191.95 131.49 191.979 131.613C192.074 131.89 192.195 132.226 192.336 132.644C192.639 133.587 193.057 134.88 193.569 136.45C194.081 138.019 194.687 139.993 195.361 142.108C196.12 144.42 196.687 146.79 197.058 149.195C197.347 151.623 197.226 154.082 196.701 156.47C196.284 158.412 195.716 160.32 195.004 162.175C194.411 163.758 193.872 165.018 193.495 165.887C193.315 166.282 193.167 166.612 193.05 166.877C193.005 166.997 192.944 167.11 192.869 167.214C192.889 167.088 192.928 166.965 192.983 166.85L193.367 165.833C193.711 164.95 194.209 163.677 194.775 162.094C195.444 160.239 195.982 158.34 196.385 156.409C196.881 154.051 196.99 151.628 196.708 149.235C196.342 146.851 195.788 144.499 195.051 142.203C194.377 140.074 193.825 138.161 193.333 136.524C192.842 134.887 192.485 133.641 192.208 132.684L191.912 131.634C191.87 131.514 191.845 131.39 191.838 131.263Z" fill="#263238"/>
<g opacity="0.3">
<path d="M197.664 151.202C198.613 147.948 198.497 144.476 197.334 141.293C196.175 138.132 194.6 135.14 192.652 132.395C193.582 138.767 196.499 144.762 197.078 151.182" fill="black"/>
</g>
<g opacity="0.3">
<path d="M143.883 192.016C146.729 188.207 150.547 185.234 154.937 183.407C159.311 181.596 163.911 180.388 168.611 179.817C170.463 179.548 172.478 179.359 174.101 180.295C175.724 181.232 176.492 183.771 175.078 185.011C174.299 185.554 173.366 185.833 172.417 185.805C165.937 186.277 159.093 186.297 153.488 189.598C151.272 190.898 149.305 192.69 146.86 193.478C145.749 193.835 144.105 193.633 143.991 192.474" fill="black"/>
</g>
<path d="M176.918 178.948C176.788 178.962 176.657 178.962 176.527 178.948H175.409H174.594L173.637 179.008C172.964 179.062 172.162 179.089 171.3 179.217L169.953 179.386C169.481 179.453 169.003 179.554 168.498 179.642C167.487 179.803 166.43 180.079 165.312 180.315C162.907 180.965 160.55 181.782 158.259 182.76C155.974 183.759 153.753 184.9 151.61 186.176C150.627 186.775 149.691 187.341 148.855 187.927C148.02 188.513 147.225 189.038 146.518 189.55C145.811 190.062 145.171 190.547 144.645 190.965C144.12 191.383 143.628 191.76 143.258 192.07L142.382 192.743C142.284 192.83 142.175 192.905 142.059 192.966C142.142 192.865 142.234 192.772 142.335 192.689L143.163 191.935C143.527 191.605 143.978 191.214 144.511 190.783C145.043 190.352 145.649 189.833 146.356 189.321C147.064 188.809 147.818 188.217 148.673 187.651C149.529 187.085 150.452 186.479 151.429 185.866C153.575 184.566 155.805 183.409 158.104 182.403C160.411 181.416 162.789 180.603 165.217 179.972C166.349 179.716 167.413 179.44 168.43 179.298C168.942 179.217 169.427 179.116 169.899 179.056L171.246 178.914C172.115 178.8 172.903 178.786 173.597 178.752C173.947 178.752 174.271 178.719 174.567 178.719H175.382L176.507 178.759C176.654 178.798 176.793 178.862 176.918 178.948Z" fill="#263238"/>
<g opacity="0.3">
<path d="M122.282 143.072C120.564 145.45 120.368 148.656 121.076 151.499C121.783 154.341 123.285 156.888 124.781 159.434C124.983 156.909 124.787 154.367 124.201 151.903C123.494 148.952 122.228 146.083 122.234 143.045" fill="black"/>
</g>
<path d="M170.262 51.9926C170.302 49.8438 172.754 48.3214 174.876 48.6851C176.998 49.0489 178.655 50.7666 179.645 52.6729C180.635 54.5792 181.113 56.7146 181.861 58.7354C183.882 64.1243 187.85 68.7654 189.271 74.3699C190.192 78.3486 190.066 82.498 188.907 86.414C187.755 90.3034 186.166 94.0501 184.172 97.5824C182.928 99.7035 181.879 101.933 181.039 104.244C180.197 106.575 180.119 109.114 180.817 111.492C180.968 111.793 181.002 112.139 180.911 112.462C180.703 112.921 180.049 112.941 179.564 112.813C177.092 112.18 175.381 109.748 174.957 107.229C174.532 104.709 175.179 102.136 176.082 99.7447C176.984 97.3534 178.143 95.0295 178.81 92.5977C180.265 87.2089 179.254 81.4967 178.998 75.9124C178.857 72.7667 178.958 69.5872 178.325 66.4819C177.691 63.3766 176.23 60.3251 173.609 58.567C172.592 57.8934 171.42 57.3949 170.565 56.5462C169.709 55.6974 169.278 54.1818 170.053 53.2253" fill="#263238"/>
<path d="M172.479 114.47C172.479 114.47 172.405 111.21 172.405 111.244C172.405 111.277 182.058 109.405 183.762 96.7205C184.611 90.4155 184.052 80.116 183.324 71.7094C182.651 64.138 177.423 54.95 169.886 55.9267L146.437 62.4473C144.154 62.7437 143.399 64.7039 143.5 67.0143L143.332 68.0989L145.286 104.265L145.959 110.327C146.303 117.205 152.278 124.473 159.647 124.662C166.76 125.012 172.573 122.082 172.479 114.47Z" fill="#FFBE9D"/>
<path d="M179.011 79.8666C179.024 80.2894 178.872 80.7005 178.586 81.0125C178.301 81.3245 177.905 81.5128 177.482 81.5371C177.277 81.5584 177.069 81.5383 176.871 81.478C176.673 81.4177 176.489 81.3184 176.33 81.1859C176.172 81.0534 176.041 80.8905 175.946 80.7067C175.851 80.5229 175.794 80.322 175.778 80.1158C175.765 79.6941 175.917 79.2839 176.201 78.9721C176.485 78.6603 176.879 78.4713 177.3 78.4453C177.507 78.424 177.715 78.444 177.913 78.5043C178.111 78.5645 178.295 78.6637 178.455 78.7961C178.614 78.9285 178.746 79.0914 178.841 79.2752C178.937 79.459 178.995 79.6601 179.011 79.8666Z" fill="#263238"/>
<path d="M181.121 77.4688C180.926 77.6843 179.68 76.7952 177.935 76.8491C176.19 76.903 174.931 77.7989 174.742 77.59C174.641 77.4957 174.837 77.1118 175.416 76.6874C176.16 76.1496 177.051 75.8533 177.969 75.8387C178.874 75.8127 179.764 76.0771 180.508 76.5931C181.054 76.9905 181.249 77.3745 181.121 77.4688Z" fill="#263238"/>
<path d="M164.18 80.7423C163.985 80.9579 162.732 80.0687 160.987 80.1293C159.242 80.1899 157.989 81.0724 157.794 80.8635C157.7 80.776 157.895 80.3853 158.468 79.9677C159.211 79.4282 160.102 79.1296 161.021 79.1122C161.929 79.0896 162.82 79.3561 163.567 79.8733C164.086 80.2573 164.281 80.6345 164.18 80.7423Z" fill="#263238"/>
<path d="M170.714 90.6376C170.714 90.5366 171.785 90.321 173.537 90.0583C173.981 89.9977 174.399 89.9034 174.466 89.5935C174.494 89.1322 174.378 88.6735 174.136 88.28L172.742 84.9119C170.802 80.1226 169.374 76.155 169.576 76.1079C169.778 76.0607 171.502 79.8464 173.442 84.6358C173.891 85.8168 174.34 86.9395 174.789 88.0038C175.083 88.5325 175.181 89.148 175.066 89.7417C175.003 89.9006 174.906 90.0436 174.781 90.1601C174.657 90.2767 174.508 90.3639 174.345 90.4153C174.099 90.4871 173.846 90.5279 173.59 90.5366C171.819 90.6982 170.721 90.7319 170.714 90.6376Z" fill="#263238"/>
<path d="M172.404 111.244C166.456 111.474 160.561 110.049 155.375 107.128C155.375 107.128 159.855 115.952 172.478 114.47L172.404 111.244Z" fill="#EB996E"/>
<path d="M164.113 76.3168C163.917 76.7816 162.193 76.4515 160.132 76.566C158.07 76.6806 156.386 77.1453 156.144 76.7008C156.036 76.4919 156.346 76.0608 157.047 75.6432C157.966 75.1306 158.993 74.8422 160.044 74.8012C161.098 74.7358 162.151 74.9253 163.116 75.3535C163.85 75.7038 164.2 76.0945 164.113 76.3168Z" fill="#263238"/>
<path d="M180.886 72.0866C180.536 72.4908 179.101 72.0866 177.397 72.1405C175.692 72.1944 174.244 72.4773 173.901 72.0732C173.752 71.8711 173.968 71.4736 174.574 71.0829C175.435 70.6058 176.402 70.3555 177.386 70.3555C178.37 70.3555 179.338 70.6058 180.199 71.0829C180.832 71.4871 181.041 71.8913 180.886 72.0866Z" fill="#263238"/>
<path d="M169.413 94.2953C169.151 93.9661 168.821 93.6979 168.445 93.5095C168.07 93.321 167.657 93.2168 167.237 93.2041C166.76 93.219 166.291 93.3333 165.861 93.5398C165.431 93.7463 165.048 94.0403 164.738 94.4031L164.691 94.4435L164.603 94.5378C164.36 94.7966 164.209 95.1279 164.172 95.4809C164.167 95.8768 164.259 96.268 164.44 96.6203C164.62 96.9726 164.885 97.2752 165.209 97.5017C165.711 97.8841 166.319 98.1022 166.95 98.1263C167.58 98.1505 168.203 97.9794 168.732 97.6365C169.248 97.2692 169.605 96.7201 169.731 96.0999C169.857 95.4798 169.743 94.8349 169.413 94.2953Z" fill="#EB996E"/>
<path d="M164.886 92.605C164.987 92.605 165.068 93.0091 165.344 93.5817C165.699 94.3164 166.255 94.9355 166.948 95.3668C167.655 95.7732 168.464 95.9673 169.278 95.9259C169.911 95.9259 170.309 95.7777 170.356 95.872C170.403 95.9663 170.039 96.2357 169.339 96.3974C168.402 96.5907 167.427 96.4274 166.604 95.9393C165.782 95.4498 165.176 94.6678 164.906 93.7501C164.711 93.0563 164.805 92.605 164.886 92.605Z" fill="#263238"/>
<path d="M172.767 56.1357C172.698 56.7705 172.784 57.4127 173.019 58.0067C173.254 58.6006 173.63 59.1284 174.115 59.5441C175.099 60.3617 176.161 61.0793 177.287 61.6862C180.655 63.7879 182.319 68.3819 183.895 72.0261C186.671 66.7383 182.407 59.9011 178.877 55.7584C178.274 54.9859 177.529 54.3365 176.681 53.8454C176.253 53.6038 175.776 53.4631 175.286 53.4339C174.796 53.4047 174.305 53.4879 173.852 53.677" fill="#263238"/>
<path d="M183.93 98.3101C183.967 98.1492 184.016 97.9915 184.078 97.8386L184.563 96.5318C184.947 95.3799 185.513 93.7161 186.018 91.6077C187.335 86.0954 187.648 80.3907 186.941 74.7675C186.588 71.6826 185.854 68.6531 184.758 65.7478C183.871 63.3732 182.427 61.2458 180.548 59.5439C179.27 58.4088 177.753 57.5755 176.109 57.1054C174.944 56.8023 174.264 56.8023 174.264 56.7619C174.427 56.7441 174.592 56.7441 174.755 56.7619C175.223 56.7973 175.687 56.8694 176.143 56.9774C177.831 57.3995 179.396 58.2142 180.71 59.3553C182.645 61.064 184.138 63.2157 185.062 65.6266C186.189 68.553 186.938 71.6111 187.291 74.7271C188.002 80.378 187.652 86.1119 186.261 91.6346C185.828 93.3013 185.304 94.9429 184.691 96.552C184.462 97.1111 184.273 97.5489 184.146 97.8386C184.091 98.0031 184.019 98.1612 183.93 98.3101Z" fill="#455A64"/>
<path d="M185.069 107.404C185.041 107.358 185.02 107.308 185.008 107.256L184.86 106.804C184.702 106.223 184.605 105.627 184.57 105.026C184.523 102.79 185.044 100.579 186.086 98.5998C187.278 96.0334 189.454 93.4602 191.542 90.4357C192.652 88.8698 193.541 87.1585 194.183 85.3499C194.818 83.3958 195.06 81.3356 194.897 79.2875C194.741 77.2335 194.175 75.2317 193.233 73.4001C192.31 71.7114 191.178 70.1453 189.865 68.7387C187.4 66.0443 184.921 63.7406 183.297 61.4301C181.941 59.6628 180.985 57.6218 180.495 55.4484C180.32 54.6527 180.268 53.8349 180.34 53.0234C180.373 53.8292 180.47 54.6311 180.63 55.4215C181.162 57.5576 182.14 59.5571 183.499 61.2886C185.129 63.5519 187.602 65.7883 190.107 68.5232C191.441 69.9443 192.588 71.5287 193.523 73.2385C194.486 75.1101 195.065 77.1552 195.227 79.2538C195.392 81.3521 195.143 83.4625 194.493 85.4645C193.838 87.3009 192.931 89.0375 191.798 90.6243C189.676 93.6623 187.501 96.2018 186.295 98.7076C185.245 100.643 184.696 102.811 184.698 105.013C184.739 105.82 184.863 106.622 185.069 107.404Z" fill="#263238"/>
<path d="M170.733 49.507C168.571 47.9779 165.782 47.6277 163.135 47.6681C155.994 47.7691 148.746 50.4972 143.971 55.8053C139.929 60.278 133.994 68.8868 132.869 74.7876C130.128 89.1691 139.215 93.1973 131.812 115.649C130.465 119.69 128.794 123.651 127.972 127.828C127.677 129.318 127.539 130.835 127.561 132.354C126.692 134.981 127.225 138.013 128.296 140.626C129.555 143.698 131.475 146.46 132.681 149.551C133.887 152.643 136.541 157.716 134.769 160.525C137.268 159.851 137.356 157.244 139.336 155.58C139.921 157.813 139.903 160.161 139.282 162.384C142.388 162.167 145.337 160.936 147.675 158.881C152.296 154.839 153.738 148.272 154.459 142.155C156.008 128.784 154.492 115.959 150.949 102.971L150.902 103.032C148.322 94.7264 143.438 87.0607 147.824 85.2285C155.462 82.0424 148.497 78.6878 151.394 70.6584C152.303 68.1525 153.314 65.4985 155.435 63.9223C157.982 62.0227 161.424 62.1237 164.596 61.9486C167.769 61.7735 171.366 60.9382 172.855 58.136L173.05 56.4587C174.189 54.0539 172.895 51.0429 170.733 49.507Z" fill="#263238"/>
<path d="M136.286 102.675C136.497 102.512 136.685 102.322 136.845 102.109C137.23 101.444 137.38 100.668 137.269 99.9065C137.054 97.9194 136.05 95.1913 134.737 91.8232C133.994 89.9986 133.424 88.1088 133.032 86.1784C132.535 83.8131 132.752 81.3537 133.653 79.1113C134.555 76.869 136.102 74.9446 138.098 73.5819C140.253 72.0326 143.184 71.7968 144.982 69.6951C146.781 67.5935 147.677 65.0742 148.458 62.6357C148.836 61.4157 149.286 60.2191 149.805 59.0521C150.328 57.9395 150.96 56.8812 151.691 55.8929C153.046 54.0664 154.727 52.5065 156.649 51.2921C157.513 50.7188 158.451 50.2656 159.438 49.9449C160.354 49.6673 161.311 49.5533 162.267 49.6081C163.892 49.7419 165.484 50.1377 166.982 50.7802C168.329 51.3258 169.434 51.8041 170.35 52.2891C171.046 52.6473 171.652 53.1586 172.122 53.7845C172.281 54.0049 172.402 54.2509 172.479 54.512C172.352 54.2797 172.213 54.0549 172.061 53.8384C171.579 53.2423 170.972 52.7594 170.283 52.4238C169.394 51.9657 168.262 51.501 166.915 50.9755C165.431 50.3683 163.86 50.0022 162.26 49.891C161.333 49.8408 160.405 49.9571 159.519 50.2346C158.568 50.5526 157.662 50.9918 156.824 51.5414C153.914 53.4028 151.593 56.0548 150.135 59.1868C149.617 60.3429 149.168 61.5282 148.788 62.7368C147.993 65.1685 147.165 67.8427 145.245 69.9242C144.29 70.9287 143.113 71.6967 141.809 72.1673C140.579 72.5974 139.401 73.1669 138.3 73.8648C136.264 75.2624 134.704 77.2483 133.827 79.5568C133.053 81.6586 132.869 83.9323 133.295 86.1312C133.675 88.0482 134.23 89.9264 134.952 91.7424C136.232 95.1104 137.209 97.8655 137.384 99.8998C137.485 100.686 137.307 101.482 136.879 102.15C136.757 102.312 136.612 102.455 136.448 102.574L136.286 102.675Z" fill="#455A64"/>
<path d="M147.44 86.3402C147.244 83.6457 144.28 81.9213 141.977 83.3157C140.71 84.0836 139.767 85.5924 139.956 88.4486C140.434 96.0536 147.972 94.0058 147.972 93.7835C147.972 93.5612 147.635 89.4994 147.44 86.3402Z" fill="#FFBE9D"/>
<path d="M145.419 91.0486C145.419 91.0486 145.291 91.1496 145.075 91.2642C144.768 91.4185 144.414 91.4498 144.085 91.3517C143.263 91.1025 142.509 89.8698 142.387 88.5024C142.325 87.8518 142.41 87.1957 142.637 86.5826C142.692 86.3398 142.807 86.1145 142.97 85.9265C143.133 85.7385 143.34 85.5937 143.573 85.5048C143.722 85.455 143.883 85.4587 144.029 85.5153C144.176 85.5719 144.298 85.6777 144.374 85.8147C144.489 86.0235 144.449 86.1784 144.496 86.1919C144.543 86.2053 144.651 86.0504 144.57 85.7406C144.515 85.5547 144.399 85.3931 144.24 85.2825C144.019 85.1387 143.751 85.0856 143.492 85.1343C143.184 85.2163 142.903 85.3757 142.674 85.5974C142.445 85.8191 142.277 86.0956 142.185 86.4007C141.9 87.079 141.787 87.817 141.855 88.5495C142.003 90.0786 142.879 91.4662 143.997 91.7155C144.205 91.7608 144.42 91.7595 144.628 91.7117C144.835 91.664 145.029 91.571 145.196 91.4393C145.419 91.2372 145.452 91.0621 145.419 91.0486Z" fill="#EB996E"/>
<path d="M148.329 96.2352C148.329 96.2352 148.383 96.3834 148.329 96.6529C148.221 97.034 147.983 97.3653 147.656 97.5892C147.407 97.7526 147.123 97.8555 146.827 97.8894C146.531 97.9233 146.231 97.8874 145.951 97.7845C145.61 97.6607 145.299 97.4649 145.04 97.2104C144.781 96.9559 144.579 96.6486 144.449 96.3093C144.223 95.7031 144.166 95.0467 144.285 94.4106C144.404 93.7745 144.693 93.1827 145.123 92.6988C145.284 92.4881 145.487 92.3125 145.719 92.1828C145.95 92.0531 146.206 91.9719 146.47 91.9443C146.031 92.1759 145.638 92.4865 145.311 92.8604C144.982 93.2792 144.751 93.7676 144.638 94.2885C144.502 94.9176 144.551 95.5728 144.779 96.1746C144.888 96.4705 145.058 96.74 145.279 96.9653C145.5 97.1905 145.766 97.3665 146.059 97.4814C146.294 97.5767 146.548 97.6172 146.802 97.5997C147.055 97.5822 147.301 97.5072 147.521 97.3804C147.817 97.1973 148.052 96.9299 148.195 96.6124C148.282 96.3834 148.296 96.2352 148.329 96.2352Z" fill="white"/>
<path d="M171.286 57.2941C170.794 56.7934 170.255 56.3421 169.676 55.9469C168.017 54.9646 166.08 54.5573 164.165 54.7882C162.849 54.9188 161.57 55.3031 160.4 55.9199C159.068 56.6496 157.861 57.5864 156.823 58.6952C155.675 59.9347 154.657 61.2891 153.785 62.7368C152.862 64.2255 152.02 65.8422 151.151 67.4992C150.333 69.1262 149.434 70.7112 148.457 72.2482C147.529 73.6798 146.444 75.0037 145.224 76.1955C144.065 77.3339 142.906 78.3511 141.916 79.3885C140.973 80.3174 140.162 81.3713 139.505 82.5207C138.534 84.1901 138.19 86.1509 138.535 88.0511C138.706 88.7346 138.988 89.3854 139.37 89.9776C139.248 89.8397 139.135 89.6934 139.033 89.5397C138.749 89.0907 138.538 88.5996 138.407 88.0847C137.993 86.1485 138.305 84.128 139.282 82.4062C139.937 81.2251 140.753 80.1413 141.707 79.1864C142.698 78.1288 143.849 77.1049 144.995 75.9665C146.193 74.783 147.259 73.473 148.174 72.0596C149.137 70.5911 150 68.9879 150.868 67.3443C151.737 65.7007 152.579 64.0638 153.522 62.5617C154.408 61.1093 155.444 59.7545 156.614 58.52C157.68 57.3911 158.923 56.4425 160.292 55.7111C161.499 55.0913 162.814 54.7094 164.165 54.5862C166.128 54.3724 168.106 54.8282 169.777 55.8795C170.215 56.1776 170.616 56.5282 170.969 56.9236C171.083 57.0397 171.189 57.1634 171.286 57.2941Z" fill="#455A64"/>
<path d="M113.969 139.636L115.383 132.806L102.369 126.871L102.032 127.983C100.173 134.173 90.9043 164.007 90.3385 166.237C88.2503 174.515 88.7151 190.898 92.0158 193.963C94.6563 196.415 99.7286 198.22 103.083 197.849C106.438 197.479 115.686 185.576 115.686 185.576L124.167 158.403L113.969 139.636Z" fill="#FFBE9D"/>
<path d="M114.542 135.574C114.54 135.751 114.52 135.927 114.481 136.1C114.414 136.477 114.333 136.975 114.225 137.609C113.99 138.956 113.646 140.822 113.235 143.125C112.824 145.429 112.326 148.231 111.888 151.33C111.411 154.678 111.15 158.053 111.107 161.434C111.076 164.822 111.459 168.202 112.245 171.498C112.979 174.522 113.653 177.311 113.592 179.716C113.603 181.604 113.12 183.461 112.191 185.105C111.858 185.711 111.415 186.25 110.884 186.694C112.598 184.774 113.482 182.253 113.343 179.682C113.383 177.325 112.669 174.576 111.935 171.545C111.13 168.227 110.736 164.822 110.763 161.407C110.803 158.004 111.075 154.608 111.578 151.242C112.016 148.137 112.535 145.362 112.986 143.038C113.437 140.714 113.821 138.875 114.084 137.541C114.219 136.915 114.326 136.423 114.4 136.046C114.439 135.886 114.486 135.729 114.542 135.574Z" fill="#EB996E"/>
<path d="M127.993 121.509L125.473 118.72V115.406L122.86 111.648L117.646 112.483L116.049 112.618L117.127 104.992C117.725 103.042 118.51 101.154 119.471 99.3542C121.331 95.6359 118.34 93.9316 118.34 93.9316L112.749 103.712L110.89 110.213L110.095 104.911C110.095 104.911 111.038 99.7516 110.903 97.0976C110.768 94.4436 108.108 94.8275 108.108 94.8275L105.979 106.501V112.341L104.127 108.892C104.127 108.892 103.729 105.969 103.453 103.315C103.177 100.661 101.068 101.456 101.068 101.456V110.085L103.453 118.047C103.453 118.047 101.883 128.319 101.621 128.717L113.901 137.326C113.901 137.326 116.595 135.305 117.114 135.163C117.632 135.022 124.281 130.118 124.281 130.118L128.922 125.207C128.922 125.207 129.717 124.682 129.717 124.15C129.717 123.618 127.993 121.509 127.993 121.509ZM121.627 124.695L118.973 123.496L117.511 119.913L118.596 117.953L118.973 117.279L119.458 116.942L121.229 117.279C121.229 117.279 122.024 119.805 121.903 120.997C121.782 122.19 123.365 123.389 123.365 123.389L121.627 124.695Z" fill="#FFBE9D"/>
<path d="M119.459 116.922C119.459 116.963 119.216 116.99 118.853 116.875C118.377 116.711 117.957 116.417 117.64 116.026C117.317 115.644 117.111 115.176 117.047 114.679C117.007 114.302 117.047 114.066 117.115 114.073C117.225 114.711 117.498 115.31 117.909 115.811C118.32 116.311 118.854 116.697 119.459 116.929V116.922Z" fill="#EB996E"/>
<path d="M126.288 123.8C126.239 122.508 126.298 121.215 126.464 119.933C126.668 120.561 126.73 121.225 126.645 121.88C126.675 122.539 126.553 123.195 126.288 123.8Z" fill="#EB996E"/>
<path d="M122.193 128.818C122.193 128.818 121.856 128.602 121.479 128.09C120.962 127.406 120.721 126.552 120.806 125.699C120.846 125.438 120.957 125.193 121.129 124.992C121.284 124.823 121.446 124.668 121.6 124.527C121.875 124.287 122.163 124.062 122.463 123.853C122.975 123.489 123.338 123.328 123.365 123.382C123.132 123.623 122.882 123.848 122.618 124.055C122.382 124.257 122.112 124.5 121.823 124.783C121.681 124.924 121.533 125.079 121.392 125.241C121.264 125.396 121.181 125.582 121.149 125.78C121.095 126.195 121.139 126.617 121.277 127.012C121.377 127.35 121.52 127.674 121.701 127.976C121.998 128.474 122.24 128.784 122.193 128.818Z" fill="#EB996E"/>
<path d="M125.481 118.383C125.527 119.372 125.213 120.343 124.598 121.118C124.365 121.442 124.055 121.704 123.696 121.879C123.388 122.012 123.045 122.042 122.719 121.967C122.146 121.825 121.998 121.435 122.045 121.428C122.092 121.421 122.295 121.671 122.766 121.724C123.039 121.757 123.316 121.708 123.561 121.583C123.863 121.42 124.124 121.19 124.322 120.909C124.805 120.115 125.194 119.268 125.481 118.383Z" fill="#EB996E"/>
<path d="M121.904 120.788C121.823 120.788 121.628 119.616 121.231 118.181C121.076 117.56 120.959 116.93 120.88 116.295C120.833 115.804 120.88 115.494 120.88 115.494C120.88 115.494 120.988 115.783 121.096 116.255C121.251 116.928 121.392 117.488 121.54 118.101C121.972 119.542 122.019 120.788 121.904 120.788Z" fill="#EB996E"/>
<path d="M126.288 124.594C125.21 124.51 124.174 124.143 123.284 123.53C122.912 123.311 122.579 123.031 122.3 122.702C122.081 122.418 121.929 122.089 121.856 121.738C121.755 121.427 121.772 121.089 121.903 120.789C121.963 120.789 121.903 121.152 122.091 121.678C122.332 122.344 122.812 122.896 123.439 123.227C124.927 124.157 126.322 124.48 126.288 124.594Z" fill="#EB996E"/>
<path d="M115.35 127.545C114.548 126.204 113.559 124.984 112.413 123.921C111.184 122.947 109.823 122.151 108.371 121.557C108.838 121.588 109.295 121.707 109.718 121.907C111.845 122.749 113.627 124.282 114.777 126.258C115.049 126.646 115.243 127.083 115.35 127.545Z" fill="#EB996E"/>
<path d="M110.903 115.157C110.903 115.258 109.933 115.339 108.808 115.736C107.683 116.134 106.868 116.652 106.787 116.571C107.32 116.044 107.965 115.643 108.674 115.399C109.383 115.154 110.138 115.071 110.883 115.157H110.903Z" fill="#EB996E"/>
<path d="M132.23 263.088C132.23 263.088 92.8709 273.981 91.2947 274.54C88.9236 275.375 89.321 284.065 93.0124 283.93C94.757 283.862 123.237 284.987 126.841 284.765C130.445 284.543 140.125 280.723 140.125 280.723L132.23 263.088Z" fill="#455A64"/>
<path d="M115.835 278.11C115.633 278.11 115.37 276.055 114.097 273.886C112.824 271.717 111.194 270.424 111.315 270.262C111.436 270.101 113.336 271.219 114.683 273.556C116.03 275.894 115.997 278.11 115.835 278.11Z" fill="#263238"/>
<path d="M119.937 276.244C119.742 276.244 119.345 274.418 118.3 272.364C117.256 270.309 116.01 268.868 116.152 268.733C116.293 268.599 117.802 269.892 118.887 272.068C119.971 274.243 120.106 276.231 119.937 276.244Z" fill="#263238"/>
<path d="M123.783 275.213C123.588 275.213 123.736 273.233 122.867 271.057C121.998 268.881 120.583 267.521 120.718 267.372C120.853 267.224 122.564 268.443 123.48 270.815C124.396 273.186 123.945 275.267 123.783 275.213Z" fill="#263238"/>
<path d="M123.088 270.128C123.014 270.128 122.664 269.05 122.664 267.204C122.669 266.121 122.803 265.043 123.061 263.991C123.215 263.37 123.411 262.76 123.648 262.166C123.77 261.794 123.988 261.462 124.281 261.202C124.476 261.051 124.72 260.975 124.967 260.987C125.214 260.999 125.448 261.1 125.628 261.27C125.936 261.562 126.123 261.958 126.153 262.381C126.194 262.725 126.212 263.072 126.207 263.419C126.195 264.067 126.113 264.713 125.965 265.345C125.703 266.4 125.295 267.414 124.752 268.356C123.836 269.953 123.041 270.768 122.981 270.727C122.92 270.687 123.553 269.744 124.328 268.141C124.785 267.21 125.131 266.229 125.358 265.217C125.484 264.626 125.547 264.023 125.547 263.419C125.547 262.812 125.547 262.071 125.183 261.761C125.119 261.689 125.029 261.645 124.932 261.637C124.836 261.63 124.74 261.66 124.665 261.721C124.467 261.906 124.319 262.138 124.234 262.395C123.998 262.961 123.798 263.541 123.634 264.133C123.36 265.137 123.186 266.166 123.115 267.204C123.014 269.003 123.189 270.114 123.088 270.128Z" fill="#263238"/>
<path d="M123.137 269.73C123.137 269.656 124.066 269.333 125.676 269.319C126.616 269.318 127.553 269.433 128.465 269.663C129.027 269.783 129.569 269.983 130.075 270.256C130.399 270.417 130.662 270.68 130.823 271.005C130.983 271.33 131.033 271.698 130.964 272.054C130.875 272.393 130.697 272.701 130.448 272.948C130.199 273.194 129.889 273.369 129.549 273.455C128.968 273.6 128.359 273.6 127.778 273.455C126.847 273.222 125.976 272.793 125.225 272.196C124.509 271.713 123.888 271.104 123.393 270.397C123.467 270.31 124.208 270.956 125.488 271.812C126.218 272.314 127.039 272.669 127.906 272.856C128.386 272.974 128.887 272.974 129.368 272.856C129.594 272.797 129.801 272.681 129.969 272.518C130.137 272.355 130.259 272.151 130.324 271.926C130.363 271.704 130.326 271.475 130.22 271.276C130.114 271.077 129.944 270.92 129.738 270.828C129.289 270.58 128.809 270.392 128.31 270.269C127.443 270.027 126.554 269.871 125.656 269.804C124.12 269.676 123.15 269.838 123.137 269.73Z" fill="#263238"/>
<path d="M109.786 278.528C109.591 278.528 109.786 276.823 109.012 274.978C108.237 273.132 106.991 272.047 107.085 271.893C107.179 271.738 108.796 272.667 109.618 274.728C110.44 276.79 109.948 278.595 109.786 278.528Z" fill="#263238"/>
<path d="M137.248 280.346C136.764 280.632 136.255 280.871 135.726 281.06C134.299 281.61 132.836 282.06 131.347 282.408C127.582 283.357 122.213 283.896 116.319 283.836C110.425 283.775 105.103 283.499 101.25 283.344L96.6901 283.101C96.1286 283.103 95.5685 283.044 95.0195 282.926C95.5742 282.84 96.1364 282.813 96.6968 282.846H101.264L116.319 283.142C121.332 283.283 126.345 282.887 131.273 281.963C135.005 281.188 137.201 280.218 137.248 280.346Z" fill="#263238"/>
<path d="M138.414 281.242C138.36 281.33 137.282 280.703 135.464 279.895C133.144 278.796 130.563 278.369 128.014 278.662C125.05 279.114 122.948 281.107 121.581 282.488C120.213 283.869 119.391 284.873 119.311 284.806C119.83 283.838 120.478 282.945 121.237 282.152C122.007 281.239 122.882 280.421 123.844 279.713C125.035 278.826 126.421 278.235 127.886 277.989C130.558 277.664 133.264 278.177 135.632 279.457C136.648 279.902 137.587 280.504 138.414 281.242Z" fill="#263238"/>
<path d="M98.9394 282.94C98.8721 282.893 99.2089 282.374 99.5187 281.458C99.9215 280.268 100.021 278.997 99.8084 277.76C99.5696 276.52 99.0204 275.361 98.2119 274.392C97.5989 273.644 97.1005 273.273 97.1476 273.206C97.1948 273.139 97.7673 273.415 98.4948 274.136C99.4427 275.096 100.078 276.321 100.319 277.649C100.559 278.977 100.393 280.347 99.8421 281.579C99.4312 282.529 98.9731 282.98 98.9394 282.94Z" fill="#263238"/>
<path d="M128.397 207.496L121.324 224.895C121.324 224.895 86.1754 212.036 65.6034 215.781C57.7828 217.209 49.4368 234.959 60.8073 246.356C71.9286 257.477 91.7933 273.199 129.125 278.285C130.054 278.413 145.339 281.694 144.395 281.579C143.452 281.465 165.823 285.008 165.823 285.008L171.077 265.157L212.78 271.718C237.34 270.04 249.357 243.776 234.572 235.343C220.776 227.455 194.829 226.828 194.829 226.828L188.463 209.456L128.397 207.496Z" fill="#263238"/>
<path d="M166.651 285.749C166.766 285.075 167.055 283.27 167.668 279.565C167.999 277.544 168.409 275.167 168.935 272.391C169.198 271.004 169.494 269.522 169.844 267.966C170.019 267.184 170.215 266.389 170.444 265.574C170.558 265.17 170.679 264.759 170.828 264.348C170.961 263.904 171.176 263.488 171.461 263.122L171.521 263.426C162.65 260.28 151.562 256.117 139.741 251.132C132.479 248.04 125.595 244.921 119.586 241.668C116.707 240.168 113.944 238.454 111.321 236.542C108.869 234.73 106.687 232.924 104.639 231.348C100.597 228.149 96.9058 226.081 94.1575 225.205C93.5562 224.986 92.9421 224.804 92.3185 224.659C91.876 224.533 91.4261 224.434 90.9713 224.363L90.1158 224.208C90.0171 224.196 89.92 224.173 89.8262 224.141C89.9247 224.13 90.024 224.13 90.1226 224.141L90.9848 224.248C91.4526 224.302 91.9162 224.388 92.3724 224.504C93.0018 224.635 93.6227 224.803 94.2316 225.01C95.9108 225.553 97.5276 226.273 99.0546 227.158C101.074 228.33 103.012 229.637 104.854 231.072C106.916 232.635 109.112 234.44 111.59 236.218C114.209 238.104 116.963 239.794 119.829 241.277C125.858 244.497 132.708 247.602 139.963 250.708C151.771 255.686 162.866 259.876 171.69 263.075L171.932 263.163L171.751 263.372C171.51 263.701 171.326 264.067 171.205 264.456C171.057 264.854 170.935 265.258 170.821 265.655C170.585 266.457 170.39 267.252 170.208 268.026C169.844 269.576 169.534 271.051 169.265 272.432C168.713 275.2 168.275 277.612 167.918 279.585C167.561 281.559 167.244 283.075 167.069 284.146C166.961 284.671 166.88 285.069 166.813 285.338C166.771 285.479 166.717 285.617 166.651 285.749Z" fill="#455A64"/>
<path d="M226.454 237.694C226.378 237.703 226.301 237.703 226.225 237.694L225.551 237.586C224.979 237.512 224.15 237.296 223.059 237.195C219.996 236.793 216.901 236.682 213.817 236.865C209.243 237.158 204.709 237.907 200.284 239.101C197.785 239.775 195.185 240.556 192.524 241.479C189.863 242.402 187.135 243.46 184.373 244.571C181.656 245.645 178.878 246.561 176.054 247.313C173.36 248.067 170.666 248.66 168.113 249.145C163.013 250.142 158.379 250.755 154.485 251.226C150.592 251.698 147.433 252.021 145.25 252.244L142.738 252.493L142.064 252.547C141.916 252.547 141.842 252.547 141.842 252.547C141.912 252.523 141.984 252.507 142.057 252.5L142.731 252.405L145.23 252.075L154.445 250.917C158.332 250.398 162.959 249.758 168.032 248.741C170.571 248.242 173.225 247.643 175.94 246.888C178.745 246.136 181.505 245.223 184.205 244.153C186.98 243.049 189.708 241.984 192.383 241.062C195.057 240.139 197.671 239.364 200.183 238.697C204.638 237.517 209.202 236.797 213.803 236.548C216.906 236.389 220.016 236.547 223.086 237.02C224.177 237.155 224.999 237.397 225.571 237.498L226.245 237.646C226.316 237.653 226.387 237.669 226.454 237.694Z" fill="#455A64"/>
<path d="M162.26 230.573C162.26 230.87 160.394 231.341 157.268 231.631C149.105 232.296 140.89 231.416 133.052 229.038C130.068 228.095 128.337 227.226 128.404 226.943C128.606 226.316 135.982 228.29 145.278 229.246C154.574 230.203 162.192 229.92 162.26 230.573Z" fill="#263238"/>
<path d="M195.192 227.084C194.754 227.246 194.304 227.37 193.845 227.454C193.393 227.549 192.855 227.684 192.235 227.872C191.615 228.061 190.888 228.243 190.133 228.546C188.322 229.151 186.546 229.855 184.812 230.654C182.858 231.577 180.77 232.675 178.621 233.962C174.987 236.177 171.502 238.628 168.187 241.297C166.914 242.314 165.89 243.156 165.189 243.749C164.839 244.071 164.463 244.364 164.064 244.625C164.372 244.26 164.71 243.922 165.075 243.614C165.748 242.988 166.732 242.105 167.992 241.055C171.262 238.3 174.739 235.8 178.392 233.578C180.413 232.369 182.498 231.269 184.636 230.284C186.389 229.499 188.189 228.824 190.025 228.263C190.807 228.007 191.527 227.832 192.167 227.677C192.705 227.533 193.249 227.416 193.798 227.326C194.255 227.21 194.722 227.129 195.192 227.084Z" fill="#455A64"/>
<path d="M156.124 244.598C155.276 244.467 154.447 244.229 153.658 243.891C151.728 243.154 149.844 242.303 148.014 241.344L142.551 238.481C141.773 238.128 141.021 237.721 140.301 237.262C141.128 237.486 141.927 237.8 142.685 238.199C144.127 238.872 146.053 239.849 148.216 240.947C150.378 242.045 152.325 242.968 153.773 243.601C154.574 243.892 155.358 244.224 156.124 244.598Z" fill="#455A64"/>
<path d="M159.922 208.52C159.989 208.52 159.875 210.123 159.74 212.703C159.605 215.283 159.491 218.846 159.551 222.807C159.612 226.768 159.841 230.304 160.056 232.871C160.272 235.437 160.434 237.027 160.366 237.04C160.256 236.685 160.182 236.319 160.144 235.949C160.023 235.235 159.888 234.204 159.74 232.918C159.443 230.351 159.167 226.774 159.107 222.814C159.046 218.853 159.208 215.269 159.423 212.709C159.531 211.416 159.639 210.379 159.733 209.665C159.757 209.278 159.82 208.894 159.922 208.52Z" fill="#455A64"/>
<path d="M163.837 215.35C163.837 215.39 163.689 215.491 163.473 215.74C163.172 216.104 162.981 216.545 162.921 217.013C162.871 217.348 162.894 217.689 162.987 218.015C163.079 218.34 163.241 218.642 163.46 218.9C163.76 219.167 164.127 219.347 164.522 219.422C164.916 219.497 165.324 219.464 165.701 219.326C166.079 219.188 166.411 218.95 166.664 218.637C166.917 218.325 167.081 217.95 167.137 217.552C167.135 217.214 167.06 216.879 166.918 216.571C166.777 216.264 166.571 215.99 166.316 215.767C165.966 215.451 165.534 215.24 165.069 215.161C164.739 215.114 164.544 215.161 164.537 215.107C164.531 215.053 164.719 214.993 165.083 214.986C165.607 215.007 166.11 215.196 166.518 215.525C166.829 215.763 167.083 216.069 167.262 216.418C167.44 216.768 167.538 217.153 167.548 217.546C167.503 218.033 167.32 218.497 167.022 218.885C166.724 219.274 166.323 219.57 165.864 219.74C165.406 219.91 164.908 219.948 164.429 219.848C163.95 219.748 163.509 219.515 163.156 219.176C162.905 218.871 162.726 218.513 162.631 218.13C162.537 217.746 162.53 217.346 162.611 216.96C162.702 216.442 162.96 215.969 163.345 215.612C163.479 215.478 163.651 215.387 163.837 215.35Z" fill="#455A64"/>
<path d="M171.32 264.638C171.32 264.638 211.265 270.701 212.882 271.071C215.307 271.61 215.94 280.192 212.295 280.502C210.578 280.643 182.724 285.096 179.161 285.298C175.597 285.5 164.436 282.603 164.436 282.603L171.32 264.638Z" fill="#455A64"/>
<path d="M189.205 277.436C189.407 277.436 189.42 275.361 190.41 273.078C191.401 270.794 192.862 269.333 192.721 269.198C192.579 269.063 190.848 270.37 189.811 272.822C188.773 275.274 189.029 277.49 189.205 277.436Z" fill="#263238"/>
<path d="M184.94 276.089C185.135 276.089 185.31 274.223 186.098 272.081C186.886 269.939 187.931 268.383 187.776 268.268C187.621 268.154 186.294 269.616 185.485 271.859C184.677 274.102 184.778 276.123 184.94 276.089Z" fill="#263238"/>
<path d="M181.041 275.55C181.236 275.516 180.852 273.603 181.458 271.36C182.065 269.117 183.284 267.615 183.129 267.494C182.974 267.372 181.445 268.753 180.825 271.192C180.205 273.63 180.892 275.624 181.041 275.55Z" fill="#263238"/>
<path d="M181.122 270.478C181.196 270.478 181.404 269.366 181.196 267.548C181.058 266.486 180.798 265.444 180.421 264.442C180.201 263.849 179.937 263.273 179.633 262.718C179.47 262.366 179.217 262.064 178.899 261.842C178.684 261.712 178.43 261.664 178.182 261.706C177.935 261.748 177.711 261.878 177.551 262.071C177.287 262.395 177.15 262.805 177.167 263.223C177.171 263.568 177.196 263.912 177.242 264.254C177.325 264.889 177.481 265.513 177.706 266.113C178.091 267.117 178.61 268.064 179.249 268.929C179.783 269.756 180.469 270.476 181.27 271.05C181.351 270.976 180.596 270.155 179.633 268.666C179.074 267.808 178.621 266.885 178.286 265.918C178.095 265.351 177.962 264.766 177.888 264.173C177.834 263.573 177.74 262.826 178.05 262.509C178.105 262.43 178.187 262.375 178.281 262.355C178.375 262.335 178.473 262.352 178.555 262.401C178.775 262.563 178.949 262.779 179.06 263.028C179.36 263.555 179.623 264.102 179.848 264.665C180.239 265.618 180.533 266.609 180.724 267.622C181.068 269.353 181.02 270.471 181.122 270.478Z" fill="#263238"/>
<path d="M181.033 270.087C181.033 270.013 180.069 269.804 178.493 269.986C177.57 270.097 176.665 270.323 175.799 270.66C175.262 270.846 174.754 271.107 174.29 271.434C173.987 271.629 173.757 271.918 173.636 272.257C173.514 272.595 173.507 272.964 173.616 273.307C173.745 273.629 173.957 273.91 174.231 274.123C174.504 274.336 174.829 274.473 175.172 274.519C175.76 274.593 176.358 274.519 176.91 274.304C177.798 273.964 178.604 273.441 179.274 272.768C179.92 272.212 180.457 271.54 180.857 270.788C180.777 270.714 180.123 271.461 178.965 272.425C178.306 273.002 177.542 273.448 176.715 273.738C176.255 273.901 175.763 273.951 175.28 273.886C175.049 273.858 174.83 273.769 174.646 273.628C174.461 273.487 174.317 273.3 174.229 273.085C174.165 272.871 174.175 272.641 174.255 272.433C174.335 272.225 174.483 272.049 174.674 271.933C175.092 271.64 175.544 271.4 176.021 271.219C176.844 270.877 177.699 270.62 178.574 270.451C180.063 270.154 181.026 270.195 181.033 270.087Z" fill="#263238"/>
<path d="M195.186 277.16C195.375 277.113 194.984 275.483 195.53 273.584C196.076 271.684 197.2 270.465 197.059 270.33C196.918 270.195 195.469 271.286 194.897 273.408C194.324 275.53 195.038 277.248 195.186 277.16Z" fill="#263238"/>
<path d="M168.416 282.152C168.924 282.382 169.454 282.558 169.999 282.677C171.466 283.05 172.955 283.324 174.458 283.499C179.431 283.977 184.443 283.852 189.385 283.128C195.172 282.367 200.365 281.478 204.131 280.879L208.583 280.104C209.133 280.035 209.675 279.911 210.2 279.733C209.645 279.715 209.089 279.755 208.543 279.855L204.063 280.42L189.305 282.482C184.399 283.192 179.431 283.38 174.485 283.041C170.72 282.738 168.45 282.051 168.416 282.152Z" fill="#263238"/>
<path d="M167.379 283.189C167.446 283.277 168.43 282.516 170.121 281.532C172.27 280.182 174.756 279.464 177.294 279.457C180.258 279.558 182.555 281.269 184.064 282.468C184.851 283.197 185.686 283.872 186.563 284.489C185.94 283.607 185.201 282.812 184.367 282.125C183.497 281.323 182.539 280.623 181.511 280.037C180.23 279.3 178.791 278.884 177.315 278.824C174.661 278.824 172.073 279.645 169.905 281.175C168.964 281.713 168.112 282.392 167.379 283.189Z" fill="#263238"/>
<path d="M194.201 164.324C194.046 165.307 193.528 191.942 195.117 194.36C197.616 198.2 205.673 205.071 210.685 203.191C218.815 200.14 220.654 182.943 220.506 186.135L214.073 131.795H201.685L200.654 151.283L197.044 153.492C196.798 155.759 196.336 157.996 195.663 160.175L194.201 164.324Z" fill="#FFBE9D"/>
<path d="M201.686 131.795C201.686 131.795 196.742 126.905 196.742 125.82C196.742 124.736 194.808 124.129 194.808 124.129L191.669 122.567C191.669 122.567 189.649 120.633 190.107 119.549C190.367 118.92 190.845 118.406 191.454 118.101C191.454 118.101 191.609 115.447 193.582 114.733C193.582 114.733 191.73 112.712 193.582 111.237C195.435 109.761 195.879 110.388 195.879 110.388C195.879 110.388 195.677 108.818 196.762 108.704C197.846 108.589 205.606 106.649 205.606 106.649C206.718 107.208 207.758 107.897 208.705 108.704C209.668 109.667 210.153 110.267 210.153 110.267C211.004 109.183 211.659 107.959 212.087 106.649C212.565 104.837 213.292 99.4079 218.722 99.6504V100.998C217.654 102.607 216.915 104.41 216.546 106.306C215.825 109.674 214.525 117.158 214.525 117.158L214.121 131.829L201.686 131.795Z" fill="#FFBE9D"/>
<path d="M196.917 186C196.867 185.822 196.831 185.639 196.809 185.455C196.756 185.091 196.655 184.566 196.601 183.872C196.402 181.922 196.372 179.959 196.513 178.005C196.728 175.107 197.117 172.226 197.678 169.376C198.264 166.156 199.059 162.64 199.652 158.921C200.811 151.464 200.959 144.614 201.148 139.669C201.235 137.224 201.309 135.23 201.356 133.816L201.437 132.219C201.436 132.034 201.454 131.849 201.491 131.667C201.501 131.853 201.501 132.04 201.491 132.226C201.491 132.624 201.491 133.149 201.491 133.816C201.491 135.237 201.437 137.231 201.397 139.676C201.351 146.133 200.879 152.58 199.982 158.975C199.383 162.714 198.574 166.223 197.961 169.436C197.388 172.271 196.977 175.136 196.729 178.018C196.577 179.962 196.577 181.914 196.729 183.858C196.762 184.532 196.843 185.084 196.877 185.448C196.907 185.63 196.92 185.815 196.917 186Z" fill="#EB996E"/>
<path d="M205.559 109.586C205.559 109.634 205.02 109.62 204.157 109.735C203.295 109.849 202.096 109.97 200.789 110.092C199.182 110.305 197.561 110.402 195.939 110.381C197.516 110.059 199.115 109.854 200.722 109.768C202.069 109.647 203.248 109.56 204.09 109.512C204.579 109.422 205.082 109.447 205.559 109.586Z" fill="#EB996E"/>
<path d="M203.283 115.38C202.816 115.41 202.347 115.394 201.882 115.332C201.027 115.279 199.861 115.258 198.514 115.225C197.387 115.215 196.262 115.132 195.146 114.975C194.681 114.935 194.226 114.819 193.799 114.632C194.265 114.623 194.732 114.655 195.193 114.726C196.049 114.8 197.214 114.847 198.561 114.874C199.908 114.901 201.081 114.969 201.929 115.083C202.393 115.115 202.849 115.215 203.283 115.38Z" fill="#EB996E"/>
<path d="M201.497 120.061C201.016 120.063 200.536 120.007 200.069 119.892C199.193 119.744 197.994 119.515 196.667 119.219C195.34 118.922 194.148 118.68 193.299 118.471C192.824 118.391 192.36 118.253 191.918 118.06C192.401 118.057 192.883 118.114 193.353 118.229C194.222 118.377 195.427 118.606 196.721 118.902C198.014 119.199 199.233 119.441 200.089 119.657C200.573 119.732 201.046 119.868 201.497 120.061Z" fill="#EB996E"/>
<path d="M215.887 53.12C215.327 53.12 214.79 53.0467 214.277 52.9C213.764 52.7467 213.35 52.55 213.037 52.31L213.587 51.09C213.887 51.3033 214.24 51.48 214.647 51.62C215.06 51.7533 215.477 51.82 215.897 51.82C216.217 51.82 216.474 51.79 216.667 51.73C216.867 51.6633 217.014 51.5733 217.107 51.46C217.2 51.3467 217.247 51.2167 217.247 51.07C217.247 50.8833 217.174 50.7367 217.027 50.63C216.88 50.5167 216.687 50.4267 216.447 50.36C216.207 50.2867 215.94 50.22 215.647 50.16C215.36 50.0933 215.07 50.0133 214.777 49.92C214.49 49.8267 214.227 49.7067 213.987 49.56C213.747 49.4133 213.55 49.22 213.397 48.98C213.25 48.74 213.177 48.4333 213.177 48.06C213.177 47.66 213.284 47.2967 213.497 46.97C213.717 46.6367 214.044 46.3733 214.477 46.18C214.917 45.98 215.467 45.88 216.127 45.88C216.567 45.88 217 45.9333 217.427 46.04C217.854 46.14 218.23 46.2933 218.557 46.5L218.057 47.73C217.73 47.5433 217.404 47.4067 217.077 47.32C216.75 47.2267 216.43 47.18 216.117 47.18C215.804 47.18 215.547 47.2167 215.347 47.29C215.147 47.3633 215.004 47.46 214.917 47.58C214.83 47.6933 214.787 47.8267 214.787 47.98C214.787 48.16 214.86 48.3067 215.007 48.42C215.154 48.5267 215.347 48.6133 215.587 48.68C215.827 48.7467 216.09 48.8133 216.377 48.88C216.67 48.9467 216.96 49.0233 217.247 49.11C217.54 49.1967 217.807 49.3133 218.047 49.46C218.287 49.6067 218.48 49.8 218.627 50.04C218.78 50.28 218.857 50.5833 218.857 50.95C218.857 51.3433 218.747 51.7033 218.527 52.03C218.307 52.3567 217.977 52.62 217.537 52.82C217.104 53.02 216.554 53.12 215.887 53.12ZM219.964 53V46H221.584V53H219.964ZM226.625 53.12C226.072 53.12 225.562 53.0333 225.095 52.86C224.635 52.68 224.232 52.4267 223.885 52.1C223.545 51.7733 223.278 51.39 223.085 50.95C222.898 50.51 222.805 50.0267 222.805 49.5C222.805 48.9733 222.898 48.49 223.085 48.05C223.278 47.61 223.548 47.2267 223.895 46.9C224.242 46.5733 224.648 46.3233 225.115 46.15C225.582 45.97 226.095 45.88 226.655 45.88C227.275 45.88 227.832 45.9833 228.325 46.19C228.825 46.3967 229.245 46.6967 229.585 47.09L228.545 48.05C228.292 47.7833 228.015 47.5867 227.715 47.46C227.415 47.3267 227.088 47.26 226.735 47.26C226.395 47.26 226.085 47.3133 225.805 47.42C225.525 47.5267 225.282 47.68 225.075 47.88C224.875 48.08 224.718 48.3167 224.605 48.59C224.498 48.8633 224.445 49.1667 224.445 49.5C224.445 49.8267 224.498 50.1267 224.605 50.4C224.718 50.6733 224.875 50.9133 225.075 51.12C225.282 51.32 225.522 51.4733 225.795 51.58C226.075 51.6867 226.382 51.74 226.715 51.74C227.035 51.74 227.345 51.69 227.645 51.59C227.952 51.4833 228.248 51.3067 228.535 51.06L229.455 52.23C229.075 52.5167 228.632 52.7367 228.125 52.89C227.625 53.0433 227.125 53.12 226.625 53.12ZM227.975 52.02V49.39H229.455V52.23L227.975 52.02ZM230.96 53V46H232.3L236.43 51.04H235.78V46H237.38V53H236.05L231.91 47.96H232.56V53H230.96ZM244.978 53.12C243.985 53.12 243.208 52.8433 242.648 52.29C242.088 51.7367 241.808 50.9467 241.808 49.92V46H243.428V49.86C243.428 50.5267 243.565 51.0067 243.838 51.3C244.111 51.5933 244.495 51.74 244.988 51.74C245.481 51.74 245.865 51.5933 246.138 51.3C246.411 51.0067 246.548 50.5267 246.548 49.86V46H248.148V49.92C248.148 50.9467 247.868 51.7367 247.308 52.29C246.748 52.8433 245.971 53.12 244.978 53.12ZM249.749 53V46H252.779C253.406 46 253.946 46.1033 254.399 46.31C254.852 46.51 255.202 46.8 255.449 47.18C255.696 47.56 255.819 48.0133 255.819 48.54C255.819 49.06 255.696 49.51 255.449 49.89C255.202 50.27 254.852 50.5633 254.399 50.77C253.946 50.97 253.406 51.07 252.779 51.07H250.649L251.369 50.34V53H249.749ZM251.369 50.52L250.649 49.75H252.689C253.189 49.75 253.562 49.6433 253.809 49.43C254.056 49.2167 254.179 48.92 254.179 48.54C254.179 48.1533 254.056 47.8533 253.809 47.64C253.562 47.4267 253.189 47.32 252.689 47.32H250.649L251.369 46.55V50.52Z" fill="#1D1D1D"/>
<rect x="114" y="284" width="72" height="8" rx="4" fill="#686868"/>
</svg>
